<svg xmlns="http://www.w3.org/2000/svg" width="444.63035" height="46.1274" viewBox="0 0 444.63035 46.1274"><defs><style>.cls-1{fill:#fff;}</style></defs><g id="Layer_2" data-name="Layer 2"><g id="Layer_2-2" data-name="Layer 2"><path class="cls-1" d="M25.917,26.02523C25.917,40.1217,18.83727,45.49465,0,45.49465v-10.114c11.69423,0,15.17094-2.52858,15.17094-9.35546V11.17047H4.48811V1.24613H25.917Z"/><path class="cls-1" d="M25.78992,45.49465,43.48944.74034h7.71192L69.59611,45.49465ZM41.43951,35.444H53.37745l-5.969-16.87776Z"/><path class="cls-1" d="M90.771,1.24613c14.60187,0,21.93454,11.12536,21.93454,22.18744S105.37286,45.49465,90.771,45.49465H74.399V1.24613Zm0,34.13456c7.459,0,10.99881-6.13164,10.99881-11.94712s-3.53979-12.2-10.99881-12.2H85.08187V35.38069Z"/><path class="cls-1" d="M117.50826,31.27184V1.24613h10.80919V31.20876c0,6.63725,12.516,6.5107,12.516,0V1.24613h10.80937V31.27184c0,9.9876-8.597,14.91823-17.13045,14.855C125.97868,46.1268,117.50826,41.25944,117.50826,31.27184Z"/><path class="cls-1" d="M204.16392,26.54937h11.01463c-1.6554,11.65153-11.20543,19.355-22.79324,19.355a22.64081,22.64081,0,0,1-23.04777-22.857A22.80078,22.80078,0,0,1,192.38531,0c11.46035,0,21.329,7.76717,22.72951,19.22752H204.10019C200.78978,6.23923,180.161,7.51226,180.161,23.04738,180.161,38.64623,201.0443,39.72885,204.16392,26.54937Z"/><path class="cls-1" d="M230.648,34.76264h18.71847V45.26783H219.95163V.70024h29.35111V11.20543H230.648v6.49415h18.27276V28.2685H230.648Z"/><path class="cls-1" d="M254.39485,45.26783V.70024h8.40407l15.40767,22.28341V.70024h10.7601V45.26783h-8.53153L265.21829,23.55721V45.26783Z"/><path class="cls-1" d="M304.62772,45.26783v-34.381H292.5942V.70024h34.89049V10.88679H315.5149v34.381Z"/><path class="cls-1" d="M342.06349,30.17882v15.089H331.24V.70024h17.31759c17.7,0,20.31014,21.83808,6.62161,28.396l9.55042,14.13464v2.037H353.14185l-9.2955-15.089Zm0-9.86868h6.23962a4.59719,4.59719,0,1,0,0-9.16844h-6.23962Z"/><path class="cls-1" d="M396.49859,38.71H381.28173L378.799,45.26783H367.14748L384.97451.19041h7.76756l18.52767,45.07742h-12.288Zm-10.88717-11.1417-.382,1.01811H392.615l-.25491-.764-3.43787-9.67749Z"/><path class="cls-1" d="M425.91188,34.76264h18.71847V45.26783H415.0247V.70024h10.88718Z"/></g></g></svg>