<svg xmlns="http://www.w3.org/2000/svg" viewBox="0 0 168 50.97"><defs><style>.cls-1{fill:#1d1d1b;}</style></defs><g id="Layer_2" data-name="Layer 2"><g id="Layer_1-2" data-name="Layer 1"><path class="cls-1" d="M29.1,28.39c0,15.83-7.8,23.5-29.1,21.87V38.9C13.56,40.11,17,36,17,28.32V11.71H5V.57H29.1Z"/><path class="cls-1" d="M28.8,50.26,48.67,0h8.66L78,50.26ZM46.38,38.93H59.76L53.07,20Z"/><path class="cls-1" d="M99.64.57c16.4,0,24.63,12.49,24.63,24.91S116,50.26,99.64,50.26H81.26V.57Zm0,38.33C108,38.9,112,32,112,25.48s-4-13.7-12.35-13.7H93.25V38.9Z"/><path class="cls-1" d="M129.67,34.29V.57h12.14V34.22c0,7.45,14.05,7.31,14.05,0V.57H168V34.29C168,45.5,158.35,51,148.76,51S129.67,45.5,129.67,34.29Z"/></g></g></svg>