<svg xmlns="http://www.w3.org/2000/svg" width="464.09119" height="46.1274" viewBox="0 0 464.09119 46.1274"><defs><style>.cls-1{fill:#fff;}</style></defs><g id="Layer_2" data-name="Layer 2"><g id="Layer_2-2" data-name="Layer 2"><path class="cls-1" d="M26.01026,25.95293C26.01026,40.10009,18.905,45.49238,0,45.49238V35.342c11.73629,0,15.22551-2.53768,15.22551-9.38911V11.04473H4.50425v-9.96h21.506Z"/><path class="cls-1" d="M25.88268,45.49238,43.64587.57709h7.73966L69.84644,45.49238ZM41.58856,35.40554H53.56945L47.579,18.46708Z"/><path class="cls-1" d="M91.09749,1.0847c14.65439,0,22.01343,11.16537,22.01343,22.26724s-7.359,22.14044-22.01343,22.14044H74.66664V1.0847Zm0,34.25734c7.48585,0,11.03837-6.1537,11.03837-11.9901S98.58334,11.108,91.09749,11.108H85.3879V35.342Z"/><path class="cls-1" d="M117.93093,31.2184V1.0847H128.779V31.1551c0,6.66112,12.561,6.53412,12.561,0V1.0847h10.84826V31.2184c0,10.02353-8.62788,14.9719-17.19207,14.9084C126.43181,46.1268,117.93093,41.24193,117.93093,31.2184Z"/><path class="cls-1" d="M203.46431,26.64486h11.05387c-1.66136,11.69345-11.24574,19.4246-22.87523,19.4246a22.72215,22.72215,0,0,1-23.13028-22.93918A22.88271,22.88271,0,0,1,191.643,0c11.50157,0,21.40575,7.79511,22.81127,19.29668H203.40036c-3.32271-13.035-24.0257-11.7574-24.0257,3.8336C179.37466,38.78524,200.33348,39.87175,203.46431,26.64486Z"/><path class="cls-1" d="M241.60919,0a22.93632,22.93632,0,0,1,23.19424,23.13028,23.16374,23.16374,0,0,1-46.3253,0A22.88288,22.88288,0,0,1,241.60919,0Zm12.20433,23.13028c0-16.86861-24.47262-16.93257-24.47262,0C229.3409,39.99966,253.81352,39.87175,253.81352,23.13028Z"/><path class="cls-1" d="M269.14713,45.43066V.70276H277.581l15.46309,22.36356V.70276h10.79881v44.7279h-8.56183l-15.272-21.78872V45.43066Z"/><path class="cls-1" d="M308.69753,45.43066V.70276h8.43391l15.46308,22.36356V.70276h10.79881v44.7279H334.8315l-15.272-21.78872V45.43066Z"/><path class="cls-1" d="M358.98277,34.88768h18.7858v10.543H348.24792V.70276h29.45669v10.543H358.98277v6.5175h18.33809V28.37018H358.98277Z"/><path class="cls-1" d="M415.91422,26.64486h11.05387c-1.66136,11.69345-11.24574,19.4246-22.87523,19.4246a22.72215,22.72215,0,0,1-23.13028-22.93918A22.8827,22.8827,0,0,1,404.09286,0c11.50157,0,21.40575,7.79511,22.81127,19.29668H415.85026c-3.32271-13.035-24.02569-11.7574-24.02569,3.8336C391.82457,38.78524,412.78339,39.87175,415.91422,26.64486Z"/><path class="cls-1" d="M441.152,45.43066V10.926H429.07559V.70276h35.0156V10.926H452.07873V45.43066Z"/></g></g></svg>