<svg xmlns="http://www.w3.org/2000/svg" xmlns:xlink="http://www.w3.org/1999/xlink" viewBox="0 0 0 0"><defs><style>.cls-1{fill:none;}.cls-2{clip-path:url(#clip-path);}.cls-3{clip-path:url(#clip-path-2);}</style><clipPath id="clip-path"><path class="cls-1" d="M297.45,281.27a84,84,0,1,0,84,84A84,84,0,0,0,297.45,281.27Zm0,135.78a51.78,51.78,0,1,1,51.78-51.78A51.78,51.78,0,0,1,297.45,417.05Z"/></clipPath><clipPath id="clip-path-2"><path class="cls-1" d="M297.45,417.05a51.78,51.78,0,1,0-51.79-51.78A51.78,51.78,0,0,0,297.45,417.05Zm0-71.55a19.77,19.77,0,1,1-19.77,19.77A19.77,19.77,0,0,1,297.45,345.5Z"/></clipPath></defs></svg>