<svg id="Layer_1" data-name="Layer 1" xmlns="http://www.w3.org/2000/svg" viewBox="0 0 168 93.71"><defs><style>.cls-1{fill:#fff;}</style></defs><path class="cls-1" d="M217.39,444.27a13.34,13.34,0,0,1,9.56-4.11,12.94,12.94,0,0,1,12.87,10.19h-3.95a9,9,0,0,0-8.92-6.24,9.36,9.36,0,0,0-6.79,3,10.18,10.18,0,0,0,0,14.13,9.5,9.5,0,0,0,15.94-3.63H240c-1.58,6.28-6.63,10.54-13.06,10.54a13.18,13.18,0,0,1-9.56-4.11,14.32,14.32,0,0,1,0-19.73Z" transform="translate(-213.45 -374.4)"/><path class="cls-1" d="M247.91,463.93h12.83v4H243.88V440.32H260.7v4H247.91v7.77h12.51v4H247.91Z" transform="translate(-213.45 -374.4)"/><path class="cls-1" d="M265,467.91V440.28H268l13.46,19.46V440.28h3.95v27.63h-3.16L269,448.61v19.3Z" transform="translate(-213.45 -374.4)"/><path class="cls-1" d="M297.37,467.91V444.07H289v-3.79h20.68v3.79h-8.33v23.84Z" transform="translate(-213.45 -374.4)"/><path class="cls-1" d="M318.37,453.9H323a4.8,4.8,0,1,0,0-9.59h-6.12v23.6h-4V440.28H323a8.56,8.56,0,0,1,9,8.8,8.32,8.32,0,0,1-7.15,8.45l8.72,10.38h-5.17l-10.06-12.12Z" transform="translate(-213.45 -374.4)"/><path class="cls-1" d="M353.89,460.92H342.68l-2.68,7h-4.3l11.09-28h2.92l11.09,28h-4.26Zm-9.75-3.75h8.29l-4.14-10.89Z" transform="translate(-213.45 -374.4)"/><path class="cls-1" d="M368.46,464h13v3.87h-17V440.28h4Z" transform="translate(-213.45 -374.4)"/><path class="cls-1" d="M242.55,402.8c0,15.83-7.81,23.5-29.1,21.86V413.3c13.55,1.21,17-2.91,17-10.57V386.12h-12V375h24.06Z" transform="translate(-213.45 -374.4)"/><path class="cls-1" d="M242.24,424.66l19.88-50.26h8.66l20.66,50.26Zm17.59-11.32h13.38l-6.69-18.92Z" transform="translate(-213.45 -374.4)"/><path class="cls-1" d="M313.09,375c16.39,0,24.63,12.5,24.63,24.92s-8.24,24.77-24.63,24.77H294.7V375Zm0,38.33c8.37,0,12.35-6.88,12.35-13.41s-4-13.7-12.35-13.7H306.7V413.3Z" transform="translate(-213.45 -374.4)"/><path class="cls-1" d="M343.11,408.69V375h12.14v33.65c0,7.45,14.06,7.31,14.06,0V375h12.14v33.72c0,11.22-9.66,16.75-19.24,16.68S343.11,419.91,343.11,408.69Z" transform="translate(-213.45 -374.4)"/></svg>