<svg id="Layer_1" data-name="Layer 1" xmlns="http://www.w3.org/2000/svg" viewBox="0 0 217.79 81.97"><defs><style>.cls-1{fill:#fff;}</style></defs><path class="cls-1" d="M259.45,400.31c0,10.27-5,15-18.26,15v-4.69c10.22,0,13.28-3.41,13.28-10.27v-15h-9.33v-4.54h14.31Z" transform="translate(-188.55 -380.27)"/><path class="cls-1" d="M306.9,380.77c11.3,0,17,8.63,17,17.27s-5.68,17.23-17,17.23H294.51v-34.5Zm0,29.51c8,0,12-6.12,12-12.24s-4.05-12.29-12-12.29h-7.41v24.53Z" transform="translate(-188.55 -380.27)"/><path class="cls-1" d="M328.18,404.9V380.77h5V405c0,3.8,4.09,5.68,7.75,5.68s7.7-1.93,7.7-5.73V380.77h5V405c0,7-6.81,10.67-12.73,10.67C334.9,415.62,328.18,412,328.18,404.9Z" transform="translate(-188.55 -380.27)"/><path class="cls-1" d="M278,380.27h-3.66l-13.85,35h31.39Zm6.77,30.31H267.69l8.56-22.37Z" transform="translate(-188.55 -380.27)"/><path class="cls-1" d="M215.73,447.14h8.59c-1.29,9.09-8.74,15.1-17.78,15.1a17.91,17.91,0,1,1,0-35.82c8.94,0,16.64,6.06,17.73,15h-8.59c-2.59-10.14-18.68-9.14-18.68,3S213.29,457.42,215.73,447.14Z" transform="translate(-188.55 -380.27)"/><path class="cls-1" d="M236.89,453.55h14.6v8.19h-23V427h22.9v8.2H236.89v5.06h14.26v8.25H236.89Z" transform="translate(-188.55 -380.27)"/><path class="cls-1" d="M255.91,461.74V427h6.56l12,17.39V427h8.4v34.77h-6.66L264.36,444.8v16.94Z" transform="translate(-188.55 -380.27)"/><path class="cls-1" d="M295.61,461.74V434.92h-9.39V427h27.22v7.95H304.1v26.82Z" transform="translate(-188.55 -380.27)"/><path class="cls-1" d="M325.32,450v11.77h-8.45V427h13.51c13.81,0,15.85,17,5.17,22.16l7.45,11v1.58h-9L326.71,450Zm0-7.7h4.86a3.59,3.59,0,1,0,0-7.15h-4.86Z" transform="translate(-188.55 -380.27)"/><path class="cls-1" d="M368.29,456.63H356.41l-1.93,5.11h-9.1l13.91-35.17h6.07l14.45,35.17h-9.59Zm-8.5-8.7-.3.8h5.77l-.2-.6-2.69-7.55Z" transform="translate(-188.55 -380.27)"/><path class="cls-1" d="M391.73,453.55h14.61v8.19h-23.1V427h8.49Z" transform="translate(-188.55 -380.27)"/></svg>