<?xml version="1.0" encoding="utf-8"?>
<!-- Generator: Adobe Illustrator 19.0.0, SVG Export Plug-In . SVG Version: 6.00 Build 0)  -->
<!DOCTYPE svg PUBLIC "-//W3C//DTD SVG 1.1//EN" "http://www.w3.org/Graphics/SVG/1.1/DTD/svg11.dtd">
<svg version="1.1" id="Layer_1" xmlns="http://www.w3.org/2000/svg" xmlns:xlink="http://www.w3.org/1999/xlink" x="0px" y="0px"
	 viewBox="0 0 563.4 100" enable-background="new 0 0 563.4 100" xml:space="preserve">
<g>
	<path fill="#FFFFFF" d="M59.8,77.1c13.3,0,24.3-8.6,26.8-21.7c0.1-0.7-0.3-1.3-1.1-1.3H74.6c-0.4,0-0.9,0.3-1,0.8
		C69.2,69.8,45.3,68.2,45.3,50c0-18.1,23.7-19.9,28.2-5.3c0.1,0.4,0.6,0.7,1,0.7h11c0.7,0,1.2-0.6,1.1-1.3
		c-2.2-12.9-13.6-21.5-26.8-21.5c-15.1,0-27.3,11.8-27.3,27.3C32.4,65.6,44.7,77.1,59.8,77.1z"/>
	<path fill="#FFFFFF" d="M126.4,77.1c15.1,0,27.4-11.8,27.4-27.1c0-15.6-12.3-27.3-27.4-27.3C111.3,22.7,99,34.5,99,50
		C99,65.6,111.3,77.1,126.4,77.1z M140.8,50c0,19.8-28.9,19.9-28.9,0C111.9,30,140.8,30.1,140.8,50z"/>
	<path fill="#FFFFFF" d="M167.6,76.4h10.7c0.6,0,1.1-0.5,1.1-1.1V54.1c0-1.9,0.9-2.2,2-0.6L197,75.9c0.2,0.3,0.6,0.5,0.9,0.5h8.5
		c0.6,0,1.1-0.5,1.1-1.1V24.6c0-0.6-0.5-1.1-1.1-1.1h-10.6c-0.6,0-1.1,0.5-1.1,1.1v21.9c0,1.9-0.9,2.2-2,0.6l-16-23.1
		c-0.2-0.3-0.6-0.5-0.9-0.5h-8.3c-0.6,0-1.1,0.5-1.1,1.1v50.7C166.5,75.9,167,76.4,167.6,76.4z"/>
	<path fill="#FFFFFF" d="M221.2,35.6h12.1c0.6,0,1.1,0.5,1.1,1.1v38.6c0,0.6,0.5,1.1,1.1,1.1h10.7c0.6,0,1.1-0.5,1.1-1.1V36.7
		c0-0.6,0.5-1.1,1.1-1.1h12c0.6,0,1.1-0.5,1.1-1.1v-9.9c0-0.6-0.5-1.1-1.1-1.1h-39.2c-0.6,0-1.1,0.5-1.1,1.1v9.9
		C220.1,35.1,220.6,35.6,221.2,35.6z"/>
	<path fill="#FFFFFF" d="M275.5,76.4h28.3c0.6,0,1.1-0.5,1.1-1.1v-9.4c0-0.6-0.5-1.1-1.1-1.1h-6.6c-0.6,0-1.1-0.5-1.1-1.1V36.4
		c0-0.6,0.5-1.1,1.1-1.1h6.6c0.6,0,1.1-0.5,1.1-1.1v-9.6c0-0.6-0.5-1.1-1.1-1.1h-28.3c-0.6,0-1.1,0.5-1.1,1.1v9.6
		c0,0.6,0.5,1.1,1.1,1.1h6.6c0.6,0,1.1,0.5,1.1,1.1v27.3c0,0.6-0.5,1.1-1.1,1.1h-6.6c-0.6,0-1.1,0.5-1.1,1.1v9.4
		C274.4,75.9,274.9,76.4,275.5,76.4z"/>
	<path fill="#FFFFFF" d="M319.2,76.4h10.7c0.6,0,1.1-0.5,1.1-1.1V54.1c0-1.9,0.9-2.2,2-0.6l15.7,22.5c0.2,0.3,0.6,0.5,0.9,0.5h8.5
		c0.6,0,1.1-0.5,1.1-1.1V24.6c0-0.6-0.5-1.1-1.1-1.1h-10.6c-0.6,0-1.1,0.5-1.1,1.1v21.9c0,1.9-0.9,2.2-2,0.6l-16-23.1
		c-0.2-0.3-0.6-0.5-0.9-0.5h-8.3c-0.6,0-1.1,0.5-1.1,1.1v50.7C318.1,75.9,318.6,76.4,319.2,76.4z"/>
	<path fill="#FFFFFF" d="M393.4,77.1c10.2,0.1,20.5-5.8,20.5-17.7V24.6c0-0.6-0.5-1.1-1.1-1.1h-10.7c-0.6,0-1.1,0.5-1.1,1.1v34.7
		c0,7.8-15,7.9-15,0V24.6c0-0.6-0.5-1.1-1.1-1.1h-10.7c-0.6,0-1.1,0.5-1.1,1.1v34.8C373.1,71.3,383.2,77.1,393.4,77.1z"/>
	<path fill="#FFFFFF" d="M448.3,77.1c10.2,0.1,20.5-5.8,20.5-17.7V24.6c0-0.6-0.5-1.1-1.1-1.1h-10.7c-0.6,0-1.1,0.5-1.1,1.1v34.7
		c0,7.8-15,7.9-15,0V24.6c0-0.6-0.5-1.1-1.1-1.1H429c-0.6,0-1.1,0.5-1.1,1.1v34.8C427.9,71.3,438.1,77.1,448.3,77.1z"/>
	<path fill="#FFFFFF" d="M483.8,76.4h10.7c0.6,0,1.1-0.5,1.1-1.1V53.7c0-2,0.9-2.2,2-0.6L503,61c0.2,0.3,0.6,0.5,0.9,0.5h6
		c0.3,0,0.7-0.2,0.9-0.5l5.3-7.8c1.1-1.6,2-1.3,2,0.6v21.5c0,0.6,0.5,1.1,1.1,1.1h10.7c0.6,0,1.1-0.5,1.1-1.1V24.6
		c0-0.6-0.5-1.1-1.1-1.1h-8.5c-0.3,0-0.7,0.2-0.9,0.5l-12.7,18.7c-0.5,0.7-1.3,0.7-1.8,0L493.3,24c-0.2-0.3-0.6-0.5-0.9-0.5h-8.6
		c-0.6,0-1.1,0.5-1.1,1.1v50.7C482.8,75.9,483.2,76.4,483.8,76.4z"/>
	<path fill="#FFFFFF" d="M28.8,0L28.8,0C7.9,0,0,7.4,0,23.6V100h534.6v0c21,0,28.8-7.4,28.8-23.6V0H28.8z M555.5,76.4
		c0,10.8-4.8,16.4-21,16.4H7.9V23.6c0-10.8,4.8-16.4,21-16.4h526.7V76.4z"/>
</g>
</svg>
