<svg xmlns="http://www.w3.org/2000/svg" width="121.12812" height="61.19402" viewBox="0 0 121.12812 61.19402"><defs><style>.cls-1{fill:#fff;}</style></defs><g id="Layer_2" data-name="Layer 2"><g id="Layer_2-2" data-name="Layer 2"><path class="cls-1" d="M25.12615,17.95522c0,10.01012-5.02746,13.82555-18.40411,13.82555V24.59868c8.30426,0,10.77313-1.79559,10.77313-6.64346V7.4066H9.90912V.35917h15.217Z"/><path class="cls-1" d="M25.03588,31.78077,37.6046,0H43.081L56.14337,31.78077Zm11.113-7.13716h8.47733L40.38757,12.65844Z"/><path class="cls-1" d="M71.18.35917c10.369,0,15.57607,7.9003,15.57607,15.75566S81.549,31.78077,71.18,31.78077H59.554V.35917Zm0,24.23951c5.29677,0,7.81043-4.35418,7.81043-8.48385S76.47677,7.4514,71.18,7.4514H67.14006V24.59868Z"/><path class="cls-1" d="M90.16657,21.68091V.35917h7.67578v21.277c0,4.71322,8.88781,4.62336,8.88781,0V.35917h7.67592V21.68091c0,7.09237-6.10485,10.59368-12.16462,10.54875C96.18155,32.22966,90.16657,28.77328,90.16657,21.68091Z"/><path class="cls-1" d="M15.32351,52.67788h4.84641A9.82853,9.82853,0,0,1,10.141,61.194a10.099,10.099,0,1,1,0-20.19779,9.78356,9.78356,0,0,1,10.00092,8.46006H15.29547C13.8389,43.74147,4.76229,44.3016,4.76229,51.137,4.76229,58.00047,13.95089,58.47682,15.32351,52.67788Z"/><path class="cls-1" d="M26.97644,56.2917h8.23608V60.914H22.27006V41.30433H35.18448v4.62226h-8.208V48.784h8.04v4.65029h-8.04Z"/><path class="cls-1" d="M37.425,60.914V41.30433h3.69777L47.9021,51.109V41.30433h4.73441V60.914H48.88266l-6.69538-9.55262V60.914Z"/><path class="cls-1" d="M59.52732,60.914V45.78639H54.23261V41.30433H69.58433v4.48206H64.31765V60.914Z"/><path class="cls-1" d="M75.999,54.27483V60.914H71.23668V41.30433h7.61969c7.78794,0,8.93641,9.6087,2.91349,12.49415l4.20216,6.2192V60.914h-5.0986l-4.09-6.63913Zm0-4.34219h2.74542a2.02275,2.02275,0,1,0,0-4.03409H75.999Z"/><path class="cls-1" d="M99.95027,58.02851H93.25489L92.1625,60.914H87.03585L94.8797,41.08h3.41771l8.15213,19.834h-5.40671Zm-4.79033-4.90232-.16807.448H98.2415l-.11216-.33614-1.51266-4.25807Z"/><path class="cls-1" d="M112.892,56.2917h8.23608V60.914H108.10171V41.30433H112.892Z"/></g></g></svg>