<?xml version="1.0" encoding="utf-8"?>
<!-- Generator: Adobe Illustrator 18.1.0, SVG Export Plug-In . SVG Version: 6.00 Build 0)  -->
<!DOCTYPE svg PUBLIC "-//W3C//DTD SVG 1.1//EN" "http://www.w3.org/Graphics/SVG/1.1/DTD/svg11.dtd">
<svg version="1.1" id="Layer_1" xmlns="http://www.w3.org/2000/svg" xmlns:xlink="http://www.w3.org/1999/xlink" x="0px" y="0px"
	 viewBox="0 0 612.6 193.6" enable-background="new 0 0 612.6 193.6" xml:space="preserve">
<g>
	<g>
		<path d="M594.4,0c10,0,18.2,8.1,18.2,18.2c0,10-8.1,18.2-18.2,18.2s-18.2-8.1-18.2-18.2C576.3,8.1,584.4,0,594.4,0 M594.4,3.5
			c-8.1,0-14.6,6.6-14.6,14.6s6.6,14.6,14.6,14.6c8.1,0,14.6-6.6,14.6-14.6S602.5,3.5,594.4,3.5L594.4,3.5z"/>
	</g>
	<g>
		<path d="M472,193.6c-14.8,0-26.2-4.3-34.2-12.8c-8-8.5-12-21.1-12-37.7V55.8h43.1v66.5c0,6.8,0.2,12.4,0.7,16.9
			c0.4,4.5,1.5,8.2,3.1,11.2c1.5,2.9,3.8,5.1,6.9,6.4c3.1,1.4,7.4,2,12.9,2c3.7,0,7.7-0.7,12.2-2c4.5-1.4,8.8-3.3,12.9-6v-95h43.1
			V190h-43.1v-14.8c-8,6.1-15.2,10.7-21.9,13.8C489,192,481.1,193.6,472,193.6"/>
		<path d="M165.4,148.1c0-4.2,1.1-7.6,3.4-10.2c2.3-2.6,5.5-4.6,9.8-5.9c3.5-1.1,8.6-2.1,15.4-2.9c6.7-0.8,13-1.5,18.8-2v28
			c-3.3,2.9-7.2,5.2-11.6,7c-4.4,1.8-8.7,2.6-13,2.6c-5.4,0-9.4-0.4-11.9-1.1c-2.5-0.8-4.7-1.9-6.5-3.5c-1.9-1.6-3.1-3.3-3.6-5
			C165.6,153.1,165.4,150.9,165.4,148.1z M166.5,193.6c5.4,0,10.4-0.5,14.9-1.4c4.5-0.9,8.9-2.4,13.1-4.3c3-1.4,6.2-3.4,9.7-5.8
			c3.4-2.5,6.3-4.6,8.6-6.3V190h42.5V98.8c0-16.1-5.4-27.9-16.3-35.4c-10.9-7.5-28.5-11.3-52.9-11.3c-10.3,0-20.5,0.8-30.7,2.4
			c-10.2,1.6-17.6,3-22.1,4.2v31.9h3.9c3.5-1.3,9.3-3.3,17.3-5.7c8-2.5,15.6-3.7,22.7-3.7c11.8,0,20.7,1.4,26.7,4.3
			c6,2.9,9.1,8.1,9.1,15.7v0.7c-12.6,0.7-24.8,1.8-36.6,3.3c-11.8,1.5-21.6,4.1-29.6,7.6c-8,3.6-14.2,8.5-18.6,14.7
			c-4.4,6.2-6.6,14.2-6.6,24c0,12.3,4.3,22.3,12.9,30.2C143.2,189.7,153.8,193.6,166.5,193.6"/>
		<path d="M319.5,193.6c-16.4,0-29.5-6.3-39.3-18.9c-9.8-12.6-14.7-29.5-14.7-50.9c0-11.4,1.7-21.5,5-30.3
			c3.3-8.8,7.8-16.3,13.6-22.6c5.4-6,12-10.6,19.7-13.9c7.7-3.3,15.5-5,23.2-5c8.1,0,14.7,0.9,19.8,2.6c5.1,1.7,10.4,3.9,15.9,6.5
			V4.1h43.1V190h-43.1v-14c-7.4,6-14.4,10.5-20.8,13.4C335.4,192.2,327.9,193.6,319.5,193.6 M338.7,160.9c3.9,0,8-0.7,12.4-2.2
			c4.4-1.5,8.2-3.4,11.6-5.8V87.2c-3-1.3-6.2-2.2-9.5-2.7c-3.3-0.6-6.4-0.8-9.2-0.8c-11.3,0-19.7,3.5-25.4,10.6
			c-5.6,7-8.5,16.8-8.5,29.3c0,13.1,2.3,22.7,6.8,28.6C321.4,158,328.7,160.9,338.7,160.9z"/>
		<path d="M0,153.3h4.3c3.8,1.4,7.8,2.8,11.9,4c4.1,1.2,9.4,1.8,15.9,1.8c8.4,0,14.8-1.1,19.3-3.3c4.5-2.2,7.7-5.3,9.6-9.3
			c1.8-3.9,2.9-8.2,3.1-12.9c0.2-4.7,0.4-10.6,0.4-17.9V44.8H23.8V12.1h86.5v125.7c0,7.8-1.4,15.1-4.2,21.9
			c-2.8,6.8-6.9,12.6-12.4,17.3c-5.8,5-12.8,8.9-21,11.6c-8.2,2.7-18.3,4.1-30.4,4.1c-8.2,0-15.9-0.3-23.2-0.9
			c-7.2-0.6-13.6-1.5-19.1-2.6 M0,153.3v36"/>
	</g>
	<path d="M593.5,20.3h-1.8v6.6h-4.4v-18h6.8c1.3,0,2.3,0,3,0.1c0.8,0.1,1.5,0.3,2.3,0.8c0.8,0.5,1.4,1,1.8,1.7
		c0.4,0.7,0.6,1.5,0.6,2.4c0,1.3-0.4,2.4-1.1,3.2c-0.7,0.8-1.7,1.5-2.9,2l6.8,7.8H599L593.5,20.3z M592.8,17.1
		c0.7,0,1.4-0.1,1.9-0.2c0.5-0.1,0.9-0.3,1.3-0.5c0.3-0.2,0.6-0.5,0.7-0.9c0.2-0.3,0.2-0.8,0.2-1.3c0-0.4-0.1-0.7-0.2-1
		c-0.2-0.3-0.4-0.6-0.8-0.8c-0.3-0.2-0.7-0.3-1.2-0.4c-0.4,0-1-0.1-1.5-0.1h-1.4v5H592.8z"/>
</g>
</svg>
