<?xml version="1.0" encoding="utf-8"?>
<!-- Generator: Adobe Illustrator 19.0.0, SVG Export Plug-In . SVG Version: 6.00 Build 0)  -->
<!DOCTYPE svg PUBLIC "-//W3C//DTD SVG 1.1//EN" "http://www.w3.org/Graphics/SVG/1.1/DTD/svg11.dtd">
<svg version="1.1" id="Layer_1" xmlns="http://www.w3.org/2000/svg" xmlns:xlink="http://www.w3.org/1999/xlink" x="0px" y="0px"
	 viewBox="0 0 126.5 16" enable-background="new 0 0 126.5 16" xml:space="preserve">
<g>
	<path fill="#999999" d="M45.9,12.3c2.1,0,3.9-1.4,4.3-3.5c0-0.1-0.1-0.2-0.2-0.2h-1.8c-0.1,0-0.1,0.1-0.2,0.1
		c-0.7,2.4-4.5,2.1-4.5-0.8c0-2.9,3.8-3.2,4.5-0.8c0,0.1,0.1,0.1,0.2,0.1H50c0.1,0,0.2-0.1,0.2-0.2C49.8,5,48,3.6,45.9,3.6
		c-2.4,0-4.4,1.9-4.4,4.4S43.5,12.3,45.9,12.3z"/>
	<path fill="#999999" d="M56.6,12.3c2.4,0,4.4-1.9,4.4-4.3c0-2.5-2-4.4-4.4-4.4c-2.4,0-4.4,1.9-4.4,4.4S54.1,12.3,56.6,12.3z
		 M58.9,8c0,3.2-4.6,3.2-4.6,0C54.2,4.8,58.9,4.8,58.9,8z"/>
	<path fill="#999999" d="M63.1,12.2h1.7c0.1,0,0.2-0.1,0.2-0.2V8.7c0-0.3,0.1-0.3,0.3-0.1l2.5,3.6c0,0,0.1,0.1,0.1,0.1h1.4
		c0.1,0,0.2-0.1,0.2-0.2V3.9c0-0.1-0.1-0.2-0.2-0.2h-1.7c-0.1,0-0.2,0.1-0.2,0.2v3.5c0,0.3-0.1,0.4-0.3,0.1l-2.6-3.7
		c0,0-0.1-0.1-0.1-0.1h-1.3C63,3.8,63,3.8,63,3.9V12C63,12.1,63,12.2,63.1,12.2z"/>
	<path fill="#999999" d="M71.7,5.7h1.9c0.1,0,0.2,0.1,0.2,0.2V12c0,0.1,0.1,0.2,0.2,0.2h1.7c0.1,0,0.2-0.1,0.2-0.2V5.9
		c0-0.1,0.1-0.2,0.2-0.2H78c0.1,0,0.2-0.1,0.2-0.2V3.9c0-0.1-0.1-0.2-0.2-0.2h-6.3c-0.1,0-0.2,0.1-0.2,0.2v1.6
		C71.5,5.6,71.6,5.7,71.7,5.7z"/>
	<path fill="#999999" d="M80.4,12.2h4.5c0.1,0,0.2-0.1,0.2-0.2v-1.5c0-0.1-0.1-0.2-0.2-0.2h-1.1c-0.1,0-0.2-0.1-0.2-0.2V5.8
		c0-0.1,0.1-0.2,0.2-0.2h1.1c0.1,0,0.2-0.1,0.2-0.2V3.9c0-0.1-0.1-0.2-0.2-0.2h-4.5c-0.1,0-0.2,0.1-0.2,0.2v1.5
		c0,0.1,0.1,0.2,0.2,0.2h1.1c0.1,0,0.2,0.1,0.2,0.2v4.4c0,0.1-0.1,0.2-0.2,0.2h-1.1c-0.1,0-0.2,0.1-0.2,0.2V12
		C80.2,12.1,80.3,12.2,80.4,12.2z"/>
	<path fill="#999999" d="M87.4,12.2h1.7c0.1,0,0.2-0.1,0.2-0.2V8.7c0-0.3,0.1-0.3,0.3-0.1l2.5,3.6c0,0,0.1,0.1,0.1,0.1h1.4
		c0.1,0,0.2-0.1,0.2-0.2V3.9c0-0.1-0.1-0.2-0.2-0.2h-1.7c-0.1,0-0.2,0.1-0.2,0.2v3.5c0,0.3-0.1,0.4-0.3,0.1l-2.6-3.7
		c0,0-0.1-0.1-0.1-0.1h-1.3c-0.1,0-0.2,0.1-0.2,0.2V12C87.2,12.1,87.3,12.2,87.4,12.2z"/>
	<path fill="#999999" d="M99.3,12.3c1.6,0,3.3-0.9,3.3-2.8V3.9c0-0.1-0.1-0.2-0.2-0.2h-1.7c-0.1,0-0.2,0.1-0.2,0.2v5.6
		c0,1.2-2.4,1.3-2.4,0V3.9c0-0.1-0.1-0.2-0.2-0.2h-1.7c-0.1,0-0.2,0.1-0.2,0.2v5.6C96,11.4,97.7,12.3,99.3,12.3z"/>
	<path fill="#999999" d="M108.1,12.3c1.6,0,3.3-0.9,3.3-2.8V3.9c0-0.1-0.1-0.2-0.2-0.2h-1.7c-0.1,0-0.2,0.1-0.2,0.2v5.6
		c0,1.2-2.4,1.3-2.4,0V3.9c0-0.1-0.1-0.2-0.2-0.2H105c-0.1,0-0.2,0.1-0.2,0.2v5.6C104.8,11.4,106.4,12.3,108.1,12.3z"/>
	<path fill="#999999" d="M113.8,12.2h1.7c0.1,0,0.2-0.1,0.2-0.2V8.6c0-0.3,0.1-0.4,0.3-0.1l0.8,1.3c0,0,0.1,0.1,0.1,0.1h1
		c0.1,0,0.1,0,0.1-0.1l0.8-1.3c0.2-0.3,0.3-0.2,0.3,0.1V12c0,0.1,0.1,0.2,0.2,0.2h1.7c0.1,0,0.2-0.1,0.2-0.2V3.9
		c0-0.1-0.1-0.2-0.2-0.2h-1.4c-0.1,0-0.1,0-0.1,0.1l-2,3c-0.1,0.1-0.2,0.1-0.3,0l-2-3c0,0-0.1-0.1-0.1-0.1h-1.4
		c-0.1,0-0.2,0.1-0.2,0.2V12C113.6,12.1,113.7,12.2,113.8,12.2z"/>
	<path fill="#999999" d="M22.1,4.9h-1.7c-0.1,0-0.2,0.1-0.2,0.2v5.8c0,0.1,0.1,0.2,0.2,0.2h1.7c2,0,3-1.5,3-3S24,4.9,22.1,4.9z"/>
	<path fill="#999999" d="M14.2,6c-0.1-0.2-0.2-0.2-0.3,0l-1.8,4.8c0,0.1,0,0.2,0.2,0.2h3.6c0.1,0,0.2-0.1,0.2-0.2L14.2,6z"/>
	<path fill="#999999" d="M4.6,0L4.6,0C1.3,0,0,1.2,0,3.8V16l121.9,0c3.4,0,4.6-1.2,4.6-3.8V0H4.6z M9.7,8.6c0,2.5-1.2,3.8-4.3,3.7
		c-0.1,0-0.2-0.1-0.2-0.2v-0.8c0-0.1,0.1-0.2,0.2-0.2c2.4,0.1,3.1-0.9,3.1-2.6V5c0-0.1-0.1-0.2-0.2-0.2h-2c-0.1,0-0.2-0.1-0.2-0.2
		V3.9c0-0.1,0.1-0.2,0.2-0.2h3.2c0.1,0,0.2,0.1,0.2,0.2V8.6z M17.7,12.3h-7.2c-0.1,0-0.2-0.1-0.2-0.2l3.3-8.3c0-0.1,0.1-0.1,0.2-0.1
		h0.7c0.1,0,0.1,0,0.2,0.1l3.3,8.3C17.9,12.2,17.8,12.3,17.7,12.3z M22.1,12.3h-2.9c-0.1,0-0.2-0.1-0.2-0.2V3.9
		c0-0.1,0.1-0.2,0.2-0.2h2.9c2.8,0,4.2,2.2,4.2,4.3C26.2,10.2,24.9,12.3,22.1,12.3z M33.7,9.7c0,1.7-1.7,2.6-3.1,2.6
		c-1.5,0-3.2-0.9-3.2-2.6V3.8c0-0.1,0.1-0.2,0.2-0.2h0.9c0.1,0,0.2,0.1,0.2,0.2v5.9c0,0.9,1,1.4,1.9,1.4c0.9,0,1.9-0.5,1.9-1.4V3.8
		c0-0.1,0.1-0.2,0.2-0.2h0.9c0.1,0,0.2,0.1,0.2,0.2V9.7z M125.2,12.2c0,1.7-0.8,2.6-3.4,2.6H37.6V1.1h87.6V12.2z"/>
</g>
</svg>
