<svg xmlns="http://www.w3.org/2000/svg" viewBox="0 0 168 93.29"><defs><style>.cls-1{fill:#1d1d1b;}</style></defs><g id="Layer_2" data-name="Layer 2"><g id="Layer_1-2" data-name="Layer 1"><path class="cls-1" d="M3.65,71a12.29,12.29,0,0,1,8.82-3.79,11.94,11.94,0,0,1,11.89,9.41H20.71a8.31,8.31,0,0,0-8.24-5.77A8.67,8.67,0,0,0,6.2,73.56a9.42,9.42,0,0,0,0,13.06,8.79,8.79,0,0,0,14.73-3.36h3.61C23.08,89.06,18.42,93,12.47,93a12.14,12.14,0,0,1-8.82-3.8A13.21,13.21,0,0,1,3.65,71Z"/><path class="cls-1" d="M31.47,70.72a13.06,13.06,0,0,1,18.64,0,13.32,13.32,0,0,1,0,18.67,13.09,13.09,0,0,1-18.64,0,13.29,13.29,0,0,1,0-18.67Zm16,2.66a9.44,9.44,0,0,0-6.67-2.81,9.21,9.21,0,0,0-6.6,2.81,9.42,9.42,0,0,0,0,13.34,9.17,9.17,0,0,0,6.6,2.81,9.48,9.48,0,0,0,6.67-16.15Z"/><path class="cls-1" d="M57.65,92.81V67.29H60.5l12.43,18v-18h3.65V92.81H73.66L61.34,75V92.81Z"/><path class="cls-1" d="M81.1,92.81V67.29h2.84l12.44,18v-18H100V92.81H97.11L84.78,75V92.81Z"/><path class="cls-1" d="M108.23,89.13h11.85v3.68H104.51V67.32h15.54V71H108.23v7.18h11.56v3.72H108.23Z"/><path class="cls-1" d="M126.79,71a12.31,12.31,0,0,1,8.83-3.79,12,12,0,0,1,11.89,9.41h-3.65a8.32,8.32,0,0,0-8.24-5.77,8.65,8.65,0,0,0-6.27,2.74,9.42,9.42,0,0,0,0,13.06,8.79,8.79,0,0,0,14.73-3.36h3.61c-1.46,5.8-6.13,9.74-12.07,9.74a12.16,12.16,0,0,1-8.83-3.8,13.23,13.23,0,0,1,0-18.23Z"/><path class="cls-1" d="M156.62,92.81v-22h-7.73v-3.5H168v3.5h-7.69v22Z"/><path class="cls-1" d="M29.1,28.39c0,15.83-7.8,23.5-29.1,21.87V38.9C13.56,40.11,17,36,17,28.32V11.71H5V.57H29.1Z"/><path class="cls-1" d="M28.8,50.26,48.67,0h8.66L78,50.26ZM46.38,38.93H59.76L53.07,20Z"/><path class="cls-1" d="M99.64.57c16.4,0,24.63,12.49,24.63,24.91S116,50.26,99.64,50.26H81.26V.57Zm0,38.33C108,38.9,112,32,112,25.48s-4-13.7-12.35-13.7H93.25V38.9Z"/><path class="cls-1" d="M129.67,34.29V.57h12.14V34.22c0,7.45,14.05,7.31,14.05,0V.57H168V34.29C168,45.5,158.35,51,148.76,51S129.67,45.5,129.67,34.29Z"/></g></g></svg>