<svg id="Layer_1" data-name="Layer 1" xmlns="http://www.w3.org/2000/svg" viewBox="0 0 126.5 16"><defs><style>.cls-1{fill:#414042;}</style></defs><title>jadu-continuum-brandmark</title><path class="cls-1" d="M45.9,12.3a4.3,4.3,0,0,0,4.3-3.5.22.22,0,0,0-.2-.2H48.2c-.1,0-.1.1-.2.1a2.3,2.3,0,0,1-4.5-.8A2.3,2.3,0,0,1,48,7.1c0,.1.1.1.2.1H50a.22.22,0,0,0,.2-.2,4.31,4.31,0,0,0-4.3-3.4A4.37,4.37,0,0,0,41.5,8,4.29,4.29,0,0,0,45.9,12.3Z"/><path class="cls-1" d="M56.6,12.3A4.35,4.35,0,1,0,52.2,8,4.23,4.23,0,0,0,56.6,12.3ZM58.9,8a2.3,2.3,0,1,1-4.6,0A2.3,2.3,0,1,1,58.9,8Z"/><path class="cls-1" d="M63.1,12.2h1.7A.22.22,0,0,0,65,12V8.7c0-.3.1-.3.3-.1l2.5,3.6.1.1h1.4a.22.22,0,0,0,.2-.2V3.9a.22.22,0,0,0-.2-.2H67.6a.22.22,0,0,0-.2.2V7.4c0,.3-.1.4-.3.1L64.5,3.8l-.1-.1H63.1c-.1.1-.1.1-.1.2V12C63,12.1,63,12.2,63.1,12.2Z"/><path class="cls-1" d="M71.7,5.7h1.9a.22.22,0,0,1,.2.2V12a.22.22,0,0,0,.2.2h1.7a.22.22,0,0,0,.2-.2V5.9a.22.22,0,0,1,.2-.2H78a.22.22,0,0,0,.2-.2V3.9a.22.22,0,0,0-.2-.2H71.7a.22.22,0,0,0-.2.2V5.5A.22.22,0,0,0,71.7,5.7Z"/><path class="cls-1" d="M80.4,12.2h4.5a.22.22,0,0,0,.2-.2V10.5a.22.22,0,0,0-.2-.2H83.8a.22.22,0,0,1-.2-.2V5.8a.22.22,0,0,1,.2-.2h1.1a.22.22,0,0,0,.2-.2V3.9a.22.22,0,0,0-.2-.2H80.4a.22.22,0,0,0-.2.2V5.4a.22.22,0,0,0,.2.2h1.1a.22.22,0,0,1,.2.2v4.4a.22.22,0,0,1-.2.2H80.4a.22.22,0,0,0-.2.2V12A.22.22,0,0,0,80.4,12.2Z"/><path class="cls-1" d="M87.4,12.2h1.7a.22.22,0,0,0,.2-.2V8.7c0-.3.1-.3.3-.1l2.5,3.6.1.1h1.4a.22.22,0,0,0,.2-.2V3.9a.22.22,0,0,0-.2-.2H91.9a.22.22,0,0,0-.2.2V7.4c0,.3-.1.4-.3.1L88.8,3.8l-.1-.1H87.4a.22.22,0,0,0-.2.2V12A.22.22,0,0,0,87.4,12.2Z"/><path class="cls-1" d="M99.3,12.3c1.6,0,3.3-.9,3.3-2.8V3.9a.22.22,0,0,0-.2-.2h-1.7a.22.22,0,0,0-.2.2V9.5c0,1.2-2.4,1.3-2.4,0V3.9a.22.22,0,0,0-.2-.2H96.2a.22.22,0,0,0-.2.2V9.5C96,11.4,97.7,12.3,99.3,12.3Z"/><path class="cls-1" d="M108.1,12.3c1.6,0,3.3-.9,3.3-2.8V3.9a.22.22,0,0,0-.2-.2h-1.7a.22.22,0,0,0-.2.2V9.5c0,1.2-2.4,1.3-2.4,0V3.9a.22.22,0,0,0-.2-.2H105a.22.22,0,0,0-.2.2V9.5C104.8,11.4,106.4,12.3,108.1,12.3Z"/><path class="cls-1" d="M113.8,12.2h1.7a.22.22,0,0,0,.2-.2V8.6c0-.3.1-.4.3-.1l.8,1.3.1.1h1c.1,0,.1,0,.1-.1l.8-1.3c.2-.3.3-.2.3.1V12a.22.22,0,0,0,.2.2H121a.22.22,0,0,0,.2-.2V3.9a.22.22,0,0,0-.2-.2h-1.4c-.1,0-.1,0-.1.1l-2,3a.19.19,0,0,1-.3,0l-2-3-.1-.1h-1.4a.22.22,0,0,0-.2.2V12C113.6,12.1,113.7,12.2,113.8,12.2Z"/><path class="cls-1" d="M22.1,4.9H20.4a.22.22,0,0,0-.2.2v5.8a.22.22,0,0,0,.2.2h1.7a2.88,2.88,0,0,0,3-3A3.11,3.11,0,0,0,22.1,4.9Z"/><path class="cls-1" d="M14.2,6q-.15-.3-.3,0l-1.8,4.8c0,.1,0,.2.2.2h3.6a.22.22,0,0,0,.2-.2Z"/><path class="cls-1" d="M4.6,0h0C1.3,0,0,1.2,0,3.8V16H121.9c3.4,0,4.6-1.2,4.6-3.8V0ZM9.7,8.6c0,2.5-1.2,3.8-4.3,3.7a.22.22,0,0,1-.2-.2v-.8a.22.22,0,0,1,.2-.2c2.4.1,3.1-.9,3.1-2.6V5a.22.22,0,0,0-.2-.2h-2a.22.22,0,0,1-.2-.2V3.9a.22.22,0,0,1,.2-.2H9.5a.22.22,0,0,1,.2.2Zm8,3.7H10.5a.22.22,0,0,1-.2-.2l3.3-8.3c0-.1.1-.1.2-.1h.7c.1,0,.1,0,.2.1L18,12.1C17.9,12.2,17.8,12.3,17.7,12.3Zm4.4,0H19.2a.22.22,0,0,1-.2-.2V3.9a.22.22,0,0,1,.2-.2h2.9A4.11,4.11,0,0,1,26.3,8C26.2,10.2,24.9,12.3,22.1,12.3ZM33.7,9.7c0,1.7-1.7,2.6-3.1,2.6s-3.2-.9-3.2-2.6V3.8a.22.22,0,0,1,.2-.2h.9a.22.22,0,0,1,.2.2V9.7c0,.9,1,1.4,1.9,1.4s1.9-.5,1.9-1.4V3.8a.22.22,0,0,1,.2-.2h.9a.22.22,0,0,1,.2.2V9.7Zm91.5,2.5c0,1.7-.8,2.6-3.4,2.6H37.6V1.1h87.6Z"/></svg>