<?xml version="1.0" encoding="utf-8"?>
<!-- Generator: Adobe Illustrator 19.0.0, SVG Export Plug-In . SVG Version: 6.00 Build 0)  -->
<!DOCTYPE svg PUBLIC "-//W3C//DTD SVG 1.1//EN" "http://www.w3.org/Graphics/SVG/1.1/DTD/svg11.dtd">
<svg version="1.1" id="Logo" xmlns="http://www.w3.org/2000/svg" xmlns:xlink="http://www.w3.org/1999/xlink" x="0px" y="0px"
	 viewBox="0 0 326.2 100" enable-background="new 0 0 326.2 100" xml:space="preserve">
<g>
	<path fill="#FFFFFF" d="M49.7,0.6H13.2c-1.1,0-2,0.9-2,2v8.8c0,1.1,0.9,2,2,2h22.4c1.1,0,2,0.9,2,2v41.3c0,18.9-8.1,30.6-35.5,29.7
		c-1.1,0-2.1,0.9-2.1,2v9.2c0,1.1,0.9,2,2,2c36.1,0.7,49.7-14.4,49.7-42.9V2.6C51.7,1.5,50.8,0.6,49.7,0.6z"/>
	<path fill="#FFFFFF" d="M106.9,1.3c-0.3-0.7-1.1-1.3-1.9-1.3h-7.6c-0.7,0-1.6,0.6-1.9,1.3L58,96.3c-0.6,1.5,0.2,2.7,1.9,2.7h82.9
		c1.6,0,2.5-1.2,1.9-2.7L106.9,1.3z M122.3,84.9H80.6c-1.6,0-2.4-1.2-1.9-2.7l20.8-54.8c1-2.7,2.7-2.7,3.7,0l20.8,54.8
		C124.7,83.7,123.9,84.9,122.3,84.9z"/>
	<path fill="#FFFFFF" d="M193,0.4H160c-1.1,0-2,0.9-2,2V97c0,1.1,0.9,2,2,2H193c32,0,48-24.3,48-48.7C241.1,25.8,225,0.4,193,0.4z
		 M193,84.9h-19c-1.1,0-2-0.9-2-2V16.5c0-1.1,0.9-2,2-2h19c22.6,0,34.1,18.4,34.1,35.8S215.7,84.9,193,84.9z"/>
	<path fill="#FFFFFF" d="M324.2,0.3h-10.2c-1.1,0-2,0.9-2,2v67.4c0,10.8-11.6,16.2-21.8,16.2c-10.3,0-21.9-5.3-21.9-16.1V2.3
		c0-1.1-0.9-2-2-2H256c-1.1,0-2,0.9-2,2v67.4c0,20,19,30.3,36.2,30.3c16.8,0,36-10.3,36-30.2V2.3C326.2,1.2,325.3,0.3,324.2,0.3z"/>
</g>
</svg>
