<?xml version="1.0" encoding="utf-8"?>
<!-- Generator: Adobe Illustrator 19.0.0, SVG Export Plug-In . SVG Version: 6.00 Build 0)  -->
<!DOCTYPE svg PUBLIC "-//W3C//DTD SVG 1.1//EN" "http://www.w3.org/Graphics/SVG/1.1/DTD/svg11.dtd">
<svg version="1.1" xmlns="http://www.w3.org/2000/svg" xmlns:xlink="http://www.w3.org/1999/xlink" x="0px" y="0px"
	 viewBox="0 0 200 200" enable-background="new 0 0 200 200" xml:space="preserve">
<g id="Layer_1" display="none">
	<g display="inline">
		<g>
			<path fill="#1F1F1F" d="M80.4,519.8h20.1c1.3,0,2.2,1.1,2,2.4c-4.5,24-24.8,39.8-49.3,39.8C25.4,562,3,540.8,3,512.2
				S25.4,462,53.2,462c24.2,0,45.1,15.9,49.2,39.5c0.2,1.3-0.7,2.4-2,2.4H80.2c-0.8,0-1.7-0.6-1.9-1.4c-8.3-26.8-51.8-23.6-51.8,9.7
				c0,33.4,44,36.3,51.9,9C78.7,520.4,79.6,519.8,80.4,519.8z"/>
			<path fill="#1F1F1F" d="M206.5,466.1l-30.2,44.4c-0.3,0.5-0.3,1.2,0,1.7l30.4,46.1c0.1,0.2,0.2,0.6,0.2,0.8v0
				c0,0.8-0.7,1.5-1.5,1.5h-22.9c-0.6,0-1.4-0.4-1.7-0.9L162.2,531l-18.3,28.6c-0.3,0.5-1.1,0.9-1.7,0.9h-22.9
				c-0.8,0-1.5-0.7-1.5-1.5v0c0-0.2,0.1-0.6,0.2-0.8l30.3-46.1c0.3-0.5,0.3-1.2,0-1.7l-29.8-43.9c-0.1-0.2-0.3-0.6-0.3-0.8V465
				c0-0.8,0.7-1.5,1.5-1.5h22.4c0.6,0,1.3,0.4,1.6,0.9l17.2,25c0.7,1,1.8,1,2.4,0l17.5-25c0.3-0.5,1.1-0.9,1.6-0.9h22.7
				c0.8,0,1.5,0.7,1.5,1.5v0.3C206.7,465.5,206.6,465.9,206.5,466.1z"/>
			<path fill="#1F1F1F" d="M252.7,560.6H233c-1.1,0-2-0.9-2-2v-93.1c0-1.1,0.9-2,2-2h15.8c0.6,0,1.3,0.4,1.7,0.9l23.3,34.3
				c0.9,1.3,2.4,1.3,3.3,0l23.3-34.3c0.3-0.5,1.1-0.9,1.7-0.9h15.5c1.1,0,2,0.9,2,2v93.1c0,1.1-0.9,2-2,2h-19.6c-1.1,0-2-0.9-2-2
				v-39.5c0-3.6-1.6-4.1-3.7-1.1l-9.8,14.4c-0.3,0.5-1.1,0.9-1.7,0.9h-11c-0.6,0-1.3-0.4-1.7-0.9l-9.8-14.6c-2-3-3.7-2.5-3.7,1.1
				v39.7C254.7,559.7,253.8,560.6,252.7,560.6z"/>
		</g>
		<path fill="#1F1F1F" d="M199.7,410.5c7.2-8.7,11.5-19.8,11.5-31.9c0-27.6-22.4-50-50-50c-27.6,0-50,22.4-50,50
			c0,27.6,22.4,50,50,50c11.9,0,22.9-4.2,31.5-11.2l12,10.7c0.8,0.7,2,0.7,2.7-0.1l2.8-2.8c0.7-0.7,0.8-2,0.1-2.7L199.7,410.5z
			 M161.2,417.6c-21.5,0-39-17.5-39-39c0-21.5,17.5-39,39-39c21.5,0,39,17.5,39,39c0,8.8-3,17-7.9,23.5L178.9,387
			c-0.3-0.4-0.3-1,0-1.4l3.6-3.6c1.1-1.1,0.8-2.3-0.8-2.5l-22.2-4.1c-1.2-0.2-2,0.6-1.7,1.7l4.1,22.2c0.3,1.5,1.4,1.9,2.5,0.8
			l3.6-3.6c0.4-0.4,1-0.4,1.4,0l15.1,13.4C177.9,414.8,169.9,417.6,161.2,417.6z"/>
	</g>
</g>
<g id="Layer_2" display="none">
	<g display="inline">
		<g>
			<path fill="#1F1F1F" d="M424.5,470.1l-30.2,44.4c-0.3,0.5-0.3,1.2,0,1.7l30.4,46.1c0.1,0.2,0.2,0.6,0.2,0.8l0,0
				c0,0.8-0.7,1.5-1.5,1.5h-23c-0.6,0-1.3-0.4-1.6-0.9l-17.3-26.7c-0.7-1.1-1.8-1.1-2.5,0l-17,26.7c-0.3,0.5-1.1,0.9-1.6,0.9h-22.9
				c-0.8,0-1.5-0.7-1.5-1.5v0c0-0.2,0.1-0.6,0.2-0.8l30.3-46.1c0.3-0.5,0.3-1.2,0-1.7l-29.8-43.8c-0.1-0.2-0.3-0.6-0.3-0.8V469
				c0-0.8,0.7-1.5,1.5-1.5h22.4c0.6,0,1.3,0.4,1.6,0.8l17.2,25c0.7,1,1.8,1,2.5,0l17.5-25c0.3-0.5,1-0.8,1.6-0.8h22.7
				c0.8,0,1.5,0.7,1.5,1.5v0.3C424.8,469.5,424.7,469.9,424.5,470.1z"/>
			<path fill="#1F1F1F" d="M470.9,564.5h-19.7c-1.1,0-1.9-0.9-1.9-1.9v-93.1c0-1.1,0.9-1.9,1.9-1.9h58.9c1.1,0,1.9,0.9,1.9,1.9v18.7
				c0,1.1-0.9,1.9-1.9,1.9h-35.3c-1.1,0-1.9,0.9-1.9,1.9v13.4c0,1.1,0.9,1.9,1.9,1.9h33.1c1.1,0,1.9,0.9,1.9,1.9v18.2
				c0,1.1-0.9,1.9-1.9,1.9h-33.1c-1.1,0-1.9,0.9-1.9,1.9v31.2C472.9,563.6,472,564.5,470.9,564.5z"/>
			<path fill="#1F1F1F" d="M571.9,467.5c45.5,0,45.3,68.2,0,68.2h-11.5c-1.1,0-1.9,0.9-1.9,1.9v24.9c0,1.1-0.9,1.9-1.9,1.9h-19.8
				c-1.1,0-1.9-0.9-1.9-1.9v-93.1c0-1.1,0.9-1.9,1.9-1.9H571.9z M571.9,513.3c14.7,0,14.7-22.9,0-22.9h-11.5c-1.1,0-1.9,0.9-1.9,1.9
				v19c0,1.1,0.9,1.9,1.9,1.9H571.9z"/>
		</g>
		<path fill="#1F1F1F" d="M520.1,332.6l-98.9,11.3c-0.6,0.1-0.6,0.9,0,1l40.5,8.3c0.2,0,0.5,0.3,0.7,0.5l44.2,77
			c1.7,2.9,3.3,2.5,3.7-0.8l11-96.2C521.3,333.1,520.8,332.6,520.1,332.6z M507.8,374.4l-3.2,28.4c-0.3,2.5-1.5,2.7-2.8,0.6
			l-13-22.5c-0.3-0.6-0.1-1.2,0.5-1.4l17.1-6C507.3,373,507.9,373.5,507.8,374.4z"/>
	</g>
</g>
<g id="Layer_3">
	<g>
		<path fill="#FFFFFF" d="M49.9,172.8h13c0.9,0,1.4,0.7,1.3,1.5c-2.9,15.5-16,25.7-31.8,25.7C14.5,200,0,186.3,0,167.9
			s14.5-32.4,32.4-32.4c15.6,0,29.1,10.2,31.7,25.5c0.1,0.8-0.4,1.5-1.3,1.5h-13c-0.5,0-1.1-0.4-1.2-0.9
			c-5.3-17.3-33.4-15.2-33.4,6.3c0,21.6,28.4,23.4,33.5,5.8C48.9,173.2,49.4,172.8,49.9,172.8z"/>
		<path fill="#FFFFFF" d="M92.8,199.1H80.1c-0.7,0-1.3-0.6-1.3-1.3v-60.1c0-0.7,0.6-1.3,1.3-1.3h10.2c0.4,0,0.9,0.3,1.1,0.6l15,22.1
			c0.6,0.9,1.5,0.9,2.1,0l15-22.1c0.2-0.3,0.7-0.6,1.1-0.6h10c0.7,0,1.3,0.6,1.3,1.3v60.1c0,0.7-0.6,1.3-1.3,1.3H122
			c-0.7,0-1.3-0.6-1.3-1.3v-25.5c0-2.3-1.1-2.6-2.4-0.7l-6.3,9.3c-0.2,0.3-0.7,0.6-1.1,0.6h-7.1c-0.4,0-0.9-0.3-1.1-0.6l-6.3-9.4
			c-1.3-1.9-2.4-1.6-2.4,0.7v25.6C94.1,198.5,93.6,199.1,92.8,199.1z"/>
		<path fill="#FFFFFF" d="M184.7,156.2c-0.6,0-1.2-0.5-1.3-1.1c-0.5-3.5-3.7-5.4-8.1-5.4c-4.7,0-8.1,2.1-8.1,5.5
			c0,4.7,7.4,4.7,9.5,4.9c8.9,1.2,20,3.5,22.7,14.8c0.3,1.4,0.4,3,0.4,4.4c0,13.1-12.7,20.6-24.6,20.6c-9.9,0-23.3-5.9-24-20.8
			c0-0.7,0.5-1.4,1.3-1.4h12.9c0.6,0,1.2,0.5,1.3,1.1c0.6,5.2,5.4,6.2,8.6,6.2c5,0,9-1.4,9-5c0-4.5-7.2-4.7-9.5-4.9
			c-10.1-1-22.1-3.2-23.3-17.6v0.1c-0.7-13.8,10.6-22,23.9-22c10.8,0,22.5,5.9,23.2,19.3c0,0.7-0.5,1.4-1.3,1.4H184.7z"/>
	</g>
	<g>
		<path fill="#FFFFFF" d="M177.9,97.2L101.6,1.3c-0.9-1.1-2.3-1.1-3.2,0L22.1,97.2c-1.4,1.8-0.7,3.3,1.6,3.3h152.6
			C178.6,100.5,179.3,99,177.9,97.2z M153.7,89.3H46.3c-2.3,0-3-1.5-1.6-3.3l53.7-67.4c0.9-1.1,2.3-1.1,3.2,0L155.3,86
			C156.7,87.9,156,89.3,153.7,89.3z"/>
		<path fill="#FFFFFF" d="M98.2,31.5L61.5,77.5c-0.7,0.9-0.4,1.6,0.8,1.6H99c0.6,0,1-0.5,1-1V32.1C100,30.5,99.2,30.2,98.2,31.5z"/>
	</g>
</g>
</svg>
