<svg xmlns="http://www.w3.org/2000/svg" viewBox="0 0 168 93.71"><defs><style>.cls-1{fill:#1d1d1b;}</style></defs><g id="Layer_2" data-name="Layer 2"><g id="Layer_1-2" data-name="Layer 1"><path class="cls-1" d="M4,69.86a13.35,13.35,0,0,1,9.55-4.1A12.92,12.92,0,0,1,26.37,75.94H22.42A9,9,0,0,0,13.5,69.7a9.44,9.44,0,0,0-6.79,3,10.22,10.22,0,0,0,0,14.14,9.51,9.51,0,0,0,16-3.63h3.91C25,89.44,19.93,93.71,13.5,93.71A13.16,13.16,0,0,1,4,89.6,14.31,14.31,0,0,1,4,69.86Z"/><path class="cls-1" d="M34.46,89.52H47.29v4H30.43V65.92H47.25v4H34.46v7.78H47v4H34.46Z"/><path class="cls-1" d="M51.51,93.51V65.88h3.08L68.05,85.34V65.88h4V93.51H68.84L55.5,74.2V93.51Z"/><path class="cls-1" d="M83.92,93.51V69.66H75.55V65.88H96.24v3.78H87.91V93.51Z"/><path class="cls-1" d="M104.92,79.49h4.66a4.8,4.8,0,1,0,0-9.59h-6.12V93.51H99.51V65.88h10.07a8.56,8.56,0,0,1,9,8.8,8.32,8.32,0,0,1-7.15,8.45l8.73,10.38H115L104.92,81.39Z"/><path class="cls-1" d="M140.45,86.52H129.24l-2.69,7h-4.3l11.09-28h2.92l11.1,28h-4.27Zm-9.75-3.75H139l-4.15-10.89Z"/><path class="cls-1" d="M155,89.64h13v3.87H151V65.88h4Z"/><path class="cls-1" d="M29.1,28.39c0,15.83-7.8,23.5-29.1,21.87V38.9C13.56,40.11,17,36,17,28.32V11.71H5V.57H29.1Z"/><path class="cls-1" d="M28.8,50.26,48.67,0h8.66L78,50.26ZM46.38,38.93H59.76L53.07,20Z"/><path class="cls-1" d="M99.64.57c16.4,0,24.63,12.49,24.63,24.91S116,50.26,99.64,50.26H81.26V.57Zm0,38.33C108,38.9,112,32,112,25.48s-4-13.7-12.35-13.7H93.25V38.9Z"/><path class="cls-1" d="M129.67,34.29V.57h12.14V34.22c0,7.45,14.05,7.31,14.05,0V.57H168V34.29C168,45.5,158.35,51,148.76,51S129.67,45.5,129.67,34.29Z"/></g></g></svg>