<?xml version="1.0" encoding="utf-8"?>
<!-- Generator: Adobe Illustrator 19.0.0, SVG Export Plug-In . SVG Version: 6.00 Build 0)  -->
<!DOCTYPE svg PUBLIC "-//W3C//DTD SVG 1.1//EN" "http://www.w3.org/Graphics/SVG/1.1/DTD/svg11.dtd">
<svg version="1.1" xmlns="http://www.w3.org/2000/svg" xmlns:xlink="http://www.w3.org/1999/xlink" x="0px" y="0px"
	 viewBox="0 0 200 200" enable-background="new 0 0 200 200" xml:space="preserve">
<g id="Layer_1" display="none">
	<g display="inline">
		<g>
			<path fill="#1F1F1F" d="M80.4,519.8h20.1c1.3,0,2.2,1.1,2,2.4c-4.5,24-24.8,39.8-49.3,39.8C25.4,562,3,540.8,3,512.2
				S25.4,462,53.2,462c24.2,0,45.1,15.9,49.2,39.5c0.2,1.3-0.7,2.4-2,2.4H80.2c-0.8,0-1.7-0.6-1.9-1.4c-8.3-26.8-51.8-23.6-51.8,9.7
				c0,33.4,44,36.3,51.9,9C78.7,520.4,79.6,519.8,80.4,519.8z"/>
			<path fill="#1F1F1F" d="M206.5,466.1l-30.2,44.4c-0.3,0.5-0.3,1.2,0,1.7l30.4,46.1c0.1,0.2,0.2,0.6,0.2,0.8v0
				c0,0.8-0.7,1.5-1.5,1.5h-22.9c-0.6,0-1.4-0.4-1.7-0.9L162.2,531l-18.3,28.6c-0.3,0.5-1.1,0.9-1.7,0.9h-22.9
				c-0.8,0-1.5-0.7-1.5-1.5v0c0-0.2,0.1-0.6,0.2-0.8l30.3-46.1c0.3-0.5,0.3-1.2,0-1.7l-29.8-43.9c-0.1-0.2-0.3-0.6-0.3-0.8V465
				c0-0.8,0.7-1.5,1.5-1.5h22.4c0.6,0,1.3,0.4,1.6,0.9l17.2,25c0.7,1,1.8,1,2.4,0l17.5-25c0.3-0.5,1.1-0.9,1.6-0.9h22.7
				c0.8,0,1.5,0.7,1.5,1.5v0.3C206.7,465.5,206.6,465.9,206.5,466.1z"/>
			<path fill="#1F1F1F" d="M252.7,560.6H233c-1.1,0-2-0.9-2-2v-93.1c0-1.1,0.9-2,2-2h15.8c0.6,0,1.3,0.4,1.7,0.9l23.3,34.3
				c0.9,1.3,2.4,1.3,3.3,0l23.3-34.3c0.3-0.5,1.1-0.9,1.7-0.9h15.5c1.1,0,2,0.9,2,2v93.1c0,1.1-0.9,2-2,2h-19.6c-1.1,0-2-0.9-2-2
				v-39.5c0-3.6-1.6-4.1-3.7-1.1l-9.8,14.4c-0.3,0.5-1.1,0.9-1.7,0.9h-11c-0.6,0-1.3-0.4-1.7-0.9l-9.8-14.6c-2-3-3.7-2.5-3.7,1.1
				v39.7C254.7,559.7,253.8,560.6,252.7,560.6z"/>
		</g>
		<path fill="#1F1F1F" d="M199.7,410.5c7.2-8.7,11.5-19.8,11.5-31.9c0-27.6-22.4-50-50-50c-27.6,0-50,22.4-50,50
			c0,27.6,22.4,50,50,50c11.9,0,22.9-4.2,31.5-11.2l12,10.7c0.8,0.7,2,0.7,2.7-0.1l2.8-2.8c0.7-0.7,0.8-2,0.1-2.7L199.7,410.5z
			 M161.2,417.6c-21.5,0-39-17.5-39-39c0-21.5,17.5-39,39-39c21.5,0,39,17.5,39,39c0,8.8-3,17-7.9,23.5L178.9,387
			c-0.3-0.4-0.3-1,0-1.4l3.6-3.6c1.1-1.1,0.8-2.3-0.8-2.5l-22.2-4.1c-1.2-0.2-2,0.6-1.7,1.7l4.1,22.2c0.3,1.5,1.4,1.9,2.5,0.8
			l3.6-3.6c0.4-0.4,1-0.4,1.4,0l15.1,13.4C177.9,414.8,169.9,417.6,161.2,417.6z"/>
	</g>
</g>
<g id="Layer_2" display="none">
	<g display="inline">
		<g>
			<path fill="#1F1F1F" d="M424.5,470.1l-30.2,44.4c-0.3,0.5-0.3,1.2,0,1.7l30.4,46.1c0.1,0.2,0.2,0.6,0.2,0.8l0,0
				c0,0.8-0.7,1.5-1.5,1.5h-23c-0.6,0-1.3-0.4-1.6-0.9l-17.3-26.7c-0.7-1.1-1.8-1.1-2.5,0l-17,26.7c-0.3,0.5-1.1,0.9-1.6,0.9h-22.9
				c-0.8,0-1.5-0.7-1.5-1.5v0c0-0.2,0.1-0.6,0.2-0.8l30.3-46.1c0.3-0.5,0.3-1.2,0-1.7l-29.8-43.8c-0.1-0.2-0.3-0.6-0.3-0.8V469
				c0-0.8,0.7-1.5,1.5-1.5h22.4c0.6,0,1.3,0.4,1.6,0.8l17.2,25c0.7,1,1.8,1,2.5,0l17.5-25c0.3-0.5,1-0.8,1.6-0.8h22.7
				c0.8,0,1.5,0.7,1.5,1.5v0.3C424.8,469.5,424.7,469.9,424.5,470.1z"/>
			<path fill="#1F1F1F" d="M470.9,564.5h-19.7c-1.1,0-1.9-0.9-1.9-1.9v-93.1c0-1.1,0.9-1.9,1.9-1.9h58.9c1.1,0,1.9,0.9,1.9,1.9v18.7
				c0,1.1-0.9,1.9-1.9,1.9h-35.3c-1.1,0-1.9,0.9-1.9,1.9v13.4c0,1.1,0.9,1.9,1.9,1.9h33.1c1.1,0,1.9,0.9,1.9,1.9v18.2
				c0,1.1-0.9,1.9-1.9,1.9h-33.1c-1.1,0-1.9,0.9-1.9,1.9v31.2C472.9,563.6,472,564.5,470.9,564.5z"/>
			<path fill="#1F1F1F" d="M571.9,467.5c45.5,0,45.3,68.2,0,68.2h-11.5c-1.1,0-1.9,0.9-1.9,1.9v24.9c0,1.1-0.9,1.9-1.9,1.9h-19.8
				c-1.1,0-1.9-0.9-1.9-1.9v-93.1c0-1.1,0.9-1.9,1.9-1.9H571.9z M571.9,513.3c14.7,0,14.7-22.9,0-22.9h-11.5c-1.1,0-1.9,0.9-1.9,1.9
				v19c0,1.1,0.9,1.9,1.9,1.9H571.9z"/>
		</g>
		<path fill="#1F1F1F" d="M520.1,332.6l-98.9,11.3c-0.6,0.1-0.6,0.9,0,1l40.5,8.3c0.2,0,0.5,0.3,0.7,0.5l44.2,77
			c1.7,2.9,3.3,2.5,3.7-0.8l11-96.2C521.3,333.1,520.8,332.6,520.1,332.6z M507.8,374.4l-3.2,28.4c-0.3,2.5-1.5,2.7-2.8,0.6
			l-13-22.5c-0.3-0.6-0.1-1.2,0.5-1.4l17.1-6C507.3,373,507.9,373.5,507.8,374.4z"/>
	</g>
</g>
<g id="Layer_3">
	<g>
		<path fill="#FFFFFF" d="M75.1,166.5h6.4c0.4,0,0.7,0.3,0.6,0.8c-1.5,7.7-8,12.7-15.8,12.7c-8.9,0-16.1-6.8-16.1-16
			S57.5,148,66.4,148c7.7,0,14.4,5.1,15.8,12.7c0.1,0.4-0.2,0.8-0.6,0.8h-6.5c-0.3,0-0.5-0.2-0.6-0.4c-2.7-8.6-16.6-7.6-16.6,3.1
			c0,10.7,14.1,11.6,16.6,2.9C74.6,166.7,74.9,166.5,75.1,166.5z"/>
		<path fill="#FFFFFF" d="M96.4,179.5h-6.3c-0.4,0-0.6-0.3-0.6-0.6v-29.8c0-0.4,0.3-0.6,0.6-0.6h5.1c0.2,0,0.4,0.1,0.5,0.3l7.5,11
			c0.3,0.4,0.8,0.4,1.1,0l7.5-11c0.1-0.2,0.3-0.3,0.5-0.3h5c0.4,0,0.6,0.3,0.6,0.6v29.8c0,0.4-0.3,0.6-0.6,0.6h-6.3
			c-0.4,0-0.6-0.3-0.6-0.6v-12.6c0-1.1-0.5-1.3-1.2-0.4l-3.1,4.6c-0.1,0.2-0.3,0.3-0.5,0.3h-3.5c-0.2,0-0.4-0.1-0.5-0.3l-3.1-4.7
			c-0.6-1-1.2-0.8-1.2,0.4v12.7C97.1,179.3,96.8,179.5,96.4,179.5z"/>
		<path fill="#FFFFFF" d="M142.1,158.3c-0.3,0-0.6-0.2-0.6-0.5c-0.3-1.7-1.9-2.7-4-2.7c-2.4,0-4,1-4,2.7c0,2.3,3.7,2.4,4.7,2.4
			c4.4,0.6,10,1.7,11.3,7.3c0.1,0.7,0.2,1.5,0.2,2.2c0,6.5-6.3,10.2-12.2,10.2c-4.9,0-11.6-2.9-11.9-10.3c0-0.4,0.3-0.7,0.6-0.7h6.4
			c0.3,0,0.6,0.2,0.6,0.6c0.3,2.6,2.7,3.1,4.3,3.1c2.5,0,4.5-0.7,4.5-2.5c0-2.2-3.6-2.3-4.7-2.4c-5-0.5-11-1.6-11.6-8.8v0
			c-0.4-6.8,5.2-10.9,11.9-10.9c5.4,0,11.2,2.9,11.5,9.6c0,0.4-0.3,0.7-0.6,0.7H142.1z"/>
	</g>
	<g>
		<path fill="#FFFFFF" d="M199.2,123.1L102.1,1c-1.1-1.4-2.9-1.4-4,0L0.9,123.1c-1.8,2.3-0.9,4.2,2,4.2h194.2
			C200.1,127.3,201,125.4,199.2,123.1z M168.4,113.1H31.7c-2.9,0-3.8-1.9-2-4.2L98,23.2c1.1-1.4,2.9-1.4,4,0l68.4,85.8
			C172.3,111.2,171.4,113.1,168.4,113.1z"/>
		<path fill="#FFFFFF" d="M97.8,39.4L51.1,98.1c-0.9,1.1-0.5,2.1,1,2.1h46.7c0.7,0,1.3-0.6,1.3-1.3V40.3
			C100.1,38.2,99,37.9,97.8,39.4z"/>
	</g>
</g>
</svg>
