<svg id="Layer_1" data-name="Layer 1" xmlns="http://www.w3.org/2000/svg" viewBox="0 0 168 50.97"><defs><style>.cls-1{fill:#1d1d1b;}</style></defs><path class="cls-1" d="M242.55,423.71c0,15.83-7.81,23.49-29.1,21.86V434.21c13.55,1.21,17-2.91,17-10.58V407h-12V395.88h24.06Z" transform="translate(-213.45 -395.31)"/><path class="cls-1" d="M242.24,445.57l19.88-50.26h8.66l20.66,50.26Zm17.59-11.33h13.38l-6.69-18.91Z" transform="translate(-213.45 -395.31)"/><path class="cls-1" d="M313.09,395.88c16.39,0,24.63,12.49,24.63,24.92s-8.24,24.77-24.63,24.77H294.7V395.88Zm0,38.33c8.37,0,12.35-6.88,12.35-13.41s-4-13.71-12.35-13.71H306.7v27.12Z" transform="translate(-213.45 -395.31)"/><path class="cls-1" d="M343.11,429.6V395.88h12.14v33.65c0,7.45,14.06,7.31,14.06,0V395.88h12.14V429.6c0,11.21-9.66,16.75-19.24,16.68S343.11,440.81,343.11,429.6Z" transform="translate(-213.45 -395.31)"/></svg>