<?xml version="1.0" encoding="utf-8"?>
<!-- Generator: Adobe Illustrator 19.0.0, SVG Export Plug-In . SVG Version: 6.00 Build 0)  -->
<!DOCTYPE svg PUBLIC "-//W3C//DTD SVG 1.1//EN" "http://www.w3.org/Graphics/SVG/1.1/DTD/svg11.dtd">
<svg version="1.1" id="Layer_1" xmlns="http://www.w3.org/2000/svg" xmlns:xlink="http://www.w3.org/1999/xlink" x="0px" y="0px"
	 viewBox="0 0 200 25.3" enable-background="new 0 0 200 25.3" xml:space="preserve">
<g>
	<path fill="#FFFFFF" d="M72.6,19.5c3.4,0,6.2-2.2,6.8-5.5c0-0.2-0.1-0.3-0.3-0.3h-2.8c-0.1,0-0.2,0.1-0.3,0.2
		c-1.1,3.7-7.2,3.4-7.2-1.2c0-4.6,6-5,7.1-1.3c0,0.1,0.2,0.2,0.3,0.2h2.8c0.2,0,0.3-0.1,0.3-0.3c-0.6-3.3-3.4-5.4-6.8-5.4
		c-3.8,0-6.9,3-6.9,6.9S68.8,19.5,72.6,19.5z"/>
	<path fill="#FFFFFF" d="M89.4,19.5c3.8,0,6.9-3,6.9-6.9c0-3.9-3.1-6.9-6.9-6.9c-3.8,0-6.9,3-6.9,6.9S85.6,19.5,89.4,19.5z
		 M93.1,12.7c0,5-7.3,5-7.3,0C85.8,7.6,93.1,7.6,93.1,12.7z"/>
	<path fill="#FFFFFF" d="M99.9,19.3h2.7c0.2,0,0.3-0.1,0.3-0.3v-5.4c0-0.5,0.2-0.6,0.5-0.2l4,5.7c0,0.1,0.1,0.1,0.2,0.1h2.1
		c0.2,0,0.3-0.1,0.3-0.3V6.2c0-0.2-0.1-0.3-0.3-0.3H107c-0.2,0-0.3,0.1-0.3,0.3v5.5c0,0.5-0.2,0.6-0.5,0.2l-4-5.8
		C102.1,6,102,6,102,6h-2.1c-0.2,0-0.3,0.1-0.3,0.3V19C99.6,19.2,99.7,19.3,99.9,19.3z"/>
	<path fill="#FFFFFF" d="M113.4,9h3.1c0.2,0,0.3,0.1,0.3,0.3V19c0,0.2,0.1,0.3,0.3,0.3h2.7c0.2,0,0.3-0.1,0.3-0.3V9.3
		c0-0.2,0.1-0.3,0.3-0.3h3c0.2,0,0.3-0.1,0.3-0.3V6.2c0-0.2-0.1-0.3-0.3-0.3h-9.9c-0.2,0-0.3,0.1-0.3,0.3v2.5
		C113.1,8.9,113.3,9,113.4,9z"/>
	<path fill="#FFFFFF" d="M127.2,19.3h7.1c0.2,0,0.3-0.1,0.3-0.3v-2.4c0-0.2-0.1-0.3-0.3-0.3h-1.7c-0.2,0-0.3-0.1-0.3-0.3V9.2
		c0-0.2,0.1-0.3,0.3-0.3h1.7c0.2,0,0.3-0.1,0.3-0.3V6.2c0-0.2-0.1-0.3-0.3-0.3h-7.1c-0.2,0-0.3,0.1-0.3,0.3v2.4
		c0,0.2,0.1,0.3,0.3,0.3h1.7c0.2,0,0.3,0.1,0.3,0.3v6.9c0,0.2-0.1,0.3-0.3,0.3h-1.7c-0.2,0-0.3,0.1-0.3,0.3V19
		C126.9,19.2,127,19.3,127.2,19.3z"/>
	<path fill="#FFFFFF" d="M138.2,19.3h2.7c0.2,0,0.3-0.1,0.3-0.3v-5.4c0-0.5,0.2-0.6,0.5-0.2l4,5.7c0,0.1,0.1,0.1,0.2,0.1h2.1
		c0.2,0,0.3-0.1,0.3-0.3V6.2c0-0.2-0.1-0.3-0.3-0.3h-2.7c-0.2,0-0.3,0.1-0.3,0.3v5.5c0,0.5-0.2,0.6-0.5,0.2l-4-5.8
		c0-0.1-0.1-0.1-0.2-0.1h-2.1c-0.2,0-0.3,0.1-0.3,0.3V19C137.9,19.2,138.1,19.3,138.2,19.3z"/>
	<path fill="#FFFFFF" d="M157,19.5c2.6,0,5.2-1.5,5.2-4.5V6.2c0-0.2-0.1-0.3-0.3-0.3h-2.7c-0.2,0-0.3,0.1-0.3,0.3V15
		c0,2-3.8,2-3.8,0V6.2c0-0.2-0.1-0.3-0.3-0.3h-2.7c-0.2,0-0.3,0.1-0.3,0.3V15C151.9,18,154.4,19.5,157,19.5z"/>
	<path fill="#FFFFFF" d="M170.9,19.5c2.6,0,5.2-1.5,5.2-4.5V6.2c0-0.2-0.1-0.3-0.3-0.3h-2.7c-0.2,0-0.3,0.1-0.3,0.3V15
		c0,2-3.8,2-3.8,0V6.2c0-0.2-0.1-0.3-0.3-0.3H166c-0.2,0-0.3,0.1-0.3,0.3V15C165.7,18,168.3,19.5,170.9,19.5z"/>
	<path fill="#FFFFFF" d="M179.9,19.3h2.7c0.2,0,0.3-0.1,0.3-0.3v-5.5c0-0.5,0.2-0.6,0.5-0.2l1.3,2c0,0.1,0.1,0.1,0.2,0.1h1.5
		c0.1,0,0.2-0.1,0.2-0.1l1.3-2c0.3-0.4,0.5-0.3,0.5,0.2V19c0,0.2,0.1,0.3,0.3,0.3h2.7c0.2,0,0.3-0.1,0.3-0.3V6.2
		c0-0.2-0.1-0.3-0.3-0.3h-2.1c-0.1,0-0.2,0.1-0.2,0.1l-3.2,4.7c-0.1,0.2-0.3,0.2-0.5,0l-3.2-4.7c0-0.1-0.1-0.1-0.2-0.1h-2.2
		c-0.2,0-0.3,0.1-0.3,0.3V19C179.6,19.2,179.7,19.3,179.9,19.3z"/>
	<path fill="#FFFFFF" d="M34.9,7.8h-2.6C32.1,7.8,32,7.9,32,8v9.1c0,0.2,0.1,0.3,0.3,0.3h2.6c3.1,0,4.7-2.4,4.7-4.8S38,7.8,34.9,7.8
		z"/>
	<path fill="#FFFFFF" d="M22.5,9.5c-0.1-0.4-0.4-0.4-0.5,0l-2.9,7.5c-0.1,0.2,0,0.4,0.3,0.4h5.7c0.2,0,0.3-0.2,0.3-0.4L22.5,9.5z"/>
	<path fill="#FFFFFF" d="M7.3,0L7.3,0C2,0,0,1.9,0,6v19.3l192.7,0c5.3,0,7.3-1.9,7.3-6V0H7.3z M15.4,13.6c0,3.9-1.9,6-6.8,5.9
		c-0.1,0-0.3-0.1-0.3-0.3v-1.3c0-0.2,0.1-0.3,0.3-0.3c3.8,0.1,4.9-1.5,4.9-4.1V7.9c0-0.2-0.1-0.3-0.3-0.3h-3.1
		c-0.2,0-0.3-0.1-0.3-0.3V6.1c0-0.2,0.1-0.3,0.3-0.3h5c0.2,0,0.3,0.1,0.3,0.3V13.6z M28,19.4H16.5c-0.2,0-0.3-0.2-0.3-0.4l5.2-13.1
		c0-0.1,0.2-0.2,0.3-0.2h1c0.1,0,0.2,0.1,0.3,0.2L28.2,19C28.3,19.2,28.2,19.4,28,19.4z M34.9,19.4h-4.6c-0.2,0-0.3-0.1-0.3-0.3v-13
		c0-0.2,0.1-0.3,0.3-0.3h4.6c4.4,0,6.6,3.5,6.6,6.9C41.5,16.1,39.3,19.4,34.9,19.4z M53.2,15.4c0,2.7-2.7,4.2-5,4.2
		c-2.4,0-5-1.4-5-4.2V6.1c0-0.2,0.1-0.3,0.3-0.3H45c0.2,0,0.3,0.1,0.3,0.3v9.3c0,1.5,1.6,2.2,3,2.2c1.4,0,3-0.8,3-2.2V6.1
		c0-0.2,0.1-0.3,0.3-0.3H53c0.2,0,0.3,0.1,0.3,0.3V15.4z M198,19.3c0,2.7-1.2,4.2-5.3,4.2H59.4V1.8H198V19.3z"/>
</g>
</svg>
