<?xml version="1.0" encoding="utf-8"?>
<!-- Generator: Adobe Illustrator 19.0.0, SVG Export Plug-In . SVG Version: 6.00 Build 0)  -->
<!DOCTYPE svg PUBLIC "-//W3C//DTD SVG 1.1//EN" "http://www.w3.org/Graphics/SVG/1.1/DTD/svg11.dtd">
<svg version="1.1" id="Logo" xmlns="http://www.w3.org/2000/svg" xmlns:xlink="http://www.w3.org/1999/xlink" x="0px" y="0px"
	 viewBox="0 0 75 24.8" enable-background="new 0 0 75 24.8" xml:space="preserve">
<g>
	<path fill="#FFFFFF" d="M11.4,0.1H3c-0.3,0-0.5,0.2-0.5,0.5v2.1C2.6,3,2.8,3.2,3,3.2h5.1c0.3,0,0.5,0.2,0.5,0.5v9.9
		c0,4.5-1.9,7.3-8.2,7.1c-0.3,0-0.5,0.2-0.5,0.5v2.2c0,0.3,0.2,0.5,0.4,0.5c8.3,0.2,11.4-3.5,11.4-10.3v-13
		C11.9,0.4,11.7,0.1,11.4,0.1z"/>
	<path fill="#FFFFFF" d="M24.6,0.3C24.5,0.1,24.3,0,24.2,0h-1.8C22.2,0,22,0.1,22,0.3l-8.7,22.8c-0.1,0.4,0.1,0.7,0.4,0.7h19.1
		c0.4,0,0.6-0.3,0.4-0.7L24.6,0.3z M28.1,20.4h-9.6c-0.4,0-0.6-0.3-0.4-0.7l4.8-13.1c0.2-0.6,0.6-0.6,0.9,0l4.8,13.1
		C28.7,20.1,28.5,20.4,28.1,20.4z"/>
	<path fill="#FFFFFF" d="M44.4,0.1h-7.6c-0.3,0-0.5,0.2-0.5,0.5v22.7c0,0.3,0.2,0.5,0.5,0.5h7.6c7.4,0,11-5.8,11-11.7
		C55.4,6.2,51.7,0.1,44.4,0.1z M44.4,20.4H40c-0.3,0-0.5-0.2-0.5-0.5V4c0-0.3,0.2-0.5,0.5-0.5h4.4c5.2,0,7.8,4.4,7.8,8.6
		S49.6,20.4,44.4,20.4z"/>
	<path fill="#FFFFFF" d="M74.5,0.1h-2.4c-0.3,0-0.5,0.2-0.5,0.5v16.2c0,2.6-2.7,3.9-5,3.9c-2.4,0-5-1.3-5-3.9V0.5
		c0-0.3-0.2-0.5-0.5-0.5h-2.4c-0.3,0-0.5,0.2-0.5,0.5v16.2c0,4.8,4.4,7.3,8.3,7.3c3.9,0,8.3-2.5,8.3-7.2V0.5
		C75,0.3,74.8,0.1,74.5,0.1z"/>
</g>
<g>
	<path fill="#FF6600" d="M11.4,23.9H3c-0.3,0-0.5,0.2-0.5,0.5v2.1C2.6,26.8,2.8,27,3,27h5.1c0.3,0,0.5,0.2,0.5,0.5v9.9
		c0,4.5-1.9,7.3-8.2,7.1C0.2,44.5,0,44.7,0,45v2.2c0,0.3,0.2,0.5,0.4,0.5c8.3,0.2,11.4-3.5,11.4-10.3v-13
		C11.9,24.1,11.7,23.9,11.4,23.9z"/>
	<path fill="#FF6600" d="M24.6,24.1c-0.1-0.2-0.3-0.3-0.4-0.3h-1.8c-0.2,0-0.4,0.1-0.4,0.3l-8.7,22.8c-0.1,0.4,0.1,0.7,0.4,0.7h19.1
		c0.4,0,0.6-0.3,0.4-0.7L24.6,24.1z M28.1,44.1h-9.6c-0.4,0-0.6-0.3-0.4-0.7l4.8-13.1c0.2-0.6,0.6-0.6,0.9,0l4.8,13.1
		C28.7,43.8,28.5,44.1,28.1,44.1z"/>
	<path fill="#FF6600" d="M44.4,23.9h-7.6c-0.3,0-0.5,0.2-0.5,0.5v22.7c0,0.3,0.2,0.5,0.5,0.5h7.6c7.4,0,11-5.8,11-11.7
		C55.4,30,51.7,23.9,44.4,23.9z M44.4,44.1H40c-0.3,0-0.5-0.2-0.5-0.5V27.7c0-0.3,0.2-0.5,0.5-0.5h4.4c5.2,0,7.8,4.4,7.8,8.6
		S49.6,44.1,44.4,44.1z"/>
	<path fill="#FF6600" d="M74.5,23.8h-2.4c-0.3,0-0.5,0.2-0.5,0.5v16.2c0,2.6-2.7,3.9-5,3.9c-2.4,0-5-1.3-5-3.9V24.3
		c0-0.3-0.2-0.5-0.5-0.5h-2.4c-0.3,0-0.5,0.2-0.5,0.5v16.2c0,4.8,4.4,7.3,8.3,7.3c3.9,0,8.3-2.5,8.3-7.2V24.3
		C75,24,74.8,23.8,74.5,23.8z"/>
</g>
</svg>
