<svg id="Layer_1" data-name="Layer 1" xmlns="http://www.w3.org/2000/svg" viewBox="0 0 112.44 35.34"><defs><style>.cls-1{fill:#1d1d1b;}</style></defs><path class="cls-1" d="M259.49,423.62c0,10.27-5,15-18.26,15v-4.69c10.22,0,13.28-3.4,13.28-10.27v-15h-9.33v-4.54h14.31Z" transform="translate(-241.23 -403.58)"/><path class="cls-1" d="M306.94,404.08c11.3,0,17,8.64,17,17.27s-5.68,17.23-17,17.23H294.55v-34.5Zm0,29.52c8,0,12-6.13,12-12.25s-4.05-12.29-12-12.29h-7.41V433.6Z" transform="translate(-241.23 -403.58)"/><path class="cls-1" d="M328.22,428.25V404.08h5v24.17c0,3.81,4.09,5.68,7.75,5.68s7.7-1.92,7.7-5.72V404.08h5v24.17c0,7-6.81,10.67-12.73,10.67S328.22,435.25,328.22,428.25Z" transform="translate(-241.23 -403.58)"/><path class="cls-1" d="M278,403.58h-3.66l-13.85,35h31.39Zm6.77,30.31H267.73l8.56-22.37Z" transform="translate(-241.23 -403.58)"/></svg>