<?xml version="1.0" encoding="utf-8"?>
<!-- Generator: Adobe Illustrator 19.0.0, SVG Export Plug-In . SVG Version: 6.00 Build 0)  -->
<!DOCTYPE svg PUBLIC "-//W3C//DTD SVG 1.1//EN" "http://www.w3.org/Graphics/SVG/1.1/DTD/svg11.dtd">
<svg version="1.1" id="Layer_1" xmlns="http://www.w3.org/2000/svg" xmlns:xlink="http://www.w3.org/1999/xlink" x="0px" y="0px"
	 viewBox="0 0 72.1 72.1" style="enable-background:new 0 0 72.1 72.1;" xml:space="preserve">
<style type="text/css">
	.st0{fill:#80BB42;}
	.st1{fill:#3399CC;}
	.st2{fill:#55B9A9;}
	.st3{fill:#DD5172;}
</style>
<path id="XMLID_135_" class="st0" d="M43.6,35.8L37.3,38c-0.2,0.1-0.3,0.3-0.2,0.5l4.7,8.2c0.5,0.8,0.9,0.7,1-0.2l1.2-10.3
	C44.1,35.9,43.9,35.7,43.6,35.8"/>
<path id="XMLID_132_" class="st0" d="M36.1,0C16.1,0,0,16.1,0,36.1C0,56,16.1,72.1,36.1,72.1C56,72.1,72.1,56,72.1,36.1
	C72.1,16.1,56,0,36.1,0 M44.9,56.4c-0.1,1.2-0.7,1.3-1.3,0.3l-16.1-28c0-0.1-0.2-0.2-0.2-0.2l-14.8-3c-0.2,0-0.2-0.3,0-0.4l36-4.1
	c0.2,0,0.4,0.2,0.4,0.4L44.9,56.4z"/>
<path id="XMLID_164_" class="st1" d="M134.8,23.8c-0.3-0.4-0.8-0.4-1.1,0l-14.8,18.6c-0.5,0.6-0.3,1.2,0.6,1.2h29.6
	c0.8,0,1.1-0.5,0.6-1.2L134.8,23.8z M134.2,40.3c0,0.3-0.2,0.5-0.5,0.5h-9.3c-0.6,0-0.8-0.4-0.4-0.9l9.3-11.6c0.5-0.7,1-0.5,1,0.3
	V40.3z"/>
<path id="XMLID_161_" class="st1" d="M134.2,0c-19.9,0-36.1,16.1-36.1,36.1c0,19.9,16.1,36.1,36.1,36.1c19.9,0,36.1-16.1,36.1-36.1
	C170.3,16.1,154.2,0,134.2,0 M156.2,47.5h-43.9c-0.8,0-1.1-0.5-0.6-1.2l22-27.6c0.3-0.4,0.8-0.4,1.1,0l22,27.6
	C157.3,46.9,157,47.5,156.2,47.5"/>
<path id="XMLID_275_" class="st2" d="M233.9,22c-7.8,0-14.1,6.3-14.1,14.1c0,7.8,6.3,14.1,14.1,14.1c3.1,0,6-1,8.3-2.7l-5.4-4.8
	c-0.1-0.1-0.4-0.1-0.5,0l-1.3,1.3c-0.4,0.4-0.8,0.3-0.9-0.3l-1.5-8c-0.1-0.4,0.2-0.7,0.6-0.6l8,1.5c0.6,0.1,0.7,0.5,0.3,0.9
	l-1.3,1.3c-0.1,0.1-0.1,0.4,0,0.5l4.9,5.5c1.8-2.4,2.9-5.3,2.9-8.5C248,28.3,241.7,22,233.9,22"/>
<path id="XMLID_272_" class="st2" d="M233.9,0c-19.9,0-36.1,16.1-36.1,36.1c0,19.9,16.1,36.1,36.1,36.1c19.9,0,36.1-16.1,36.1-36.1
	C270,16.1,253.9,0,233.9,0 M251.7,51.9c0.2,0.3,0.2,0.7,0,1l-1,1c-0.3,0.3-0.7,0.3-1,0l-4.3-3.9c-3.1,2.5-7.1,4-11.4,4
	c-10,0-18.1-8.1-18.1-18.1c0-10,8.1-18.1,18.1-18.1S252,26.1,252,36.1c0,4.4-1.6,8.4-4.2,11.5L251.7,51.9z"/>
<path id="XMLID_293_" class="st3" d="M323.3,38.5c-0.3-0.4-0.8-0.4-1.1,0l-7.1,8.9c-0.1,0.2-0.1,0.4,0.1,0.5
	c0.5,0.3,1.1,0.7,1.7,0.9c0.1,0.1,0.3,0,0.4-0.1l4.9-6.2c0.3-0.4,0.8-0.4,1.1,0l4.9,6.2c0.1,0.1,0.3,0.2,0.4,0.1
	c0.6-0.3,1.2-0.6,1.7-0.9c0.2-0.1,0.2-0.4,0.1-0.5L323.3,38.5z"/>
<path id="XMLID_292_" class="st3" d="M321.8,22c-7.1,0.5-12.8,6.4-13.1,13.5c-0.1,3.8,1.2,7.2,3.5,9.8c0.2,0.2,0.4,0.2,0.6,0
	l9.5-11.9c0.3-0.4,0.8-0.4,1.1,0l9.5,11.9c0.1,0.2,0.4,0.2,0.6,0c2.2-2.5,3.5-5.7,3.5-9.3C336.9,28,330,21.5,321.8,22"/>
<path id="XMLID_289_" class="st3" d="M322.8,0c-19.9,0-36.1,16.1-36.1,36.1c0,19.9,16.1,36.1,36.1,36.1s36.1-16.1,36.1-36.1
	C358.8,16.1,342.7,0,322.8,0 M322.8,54.1c-10,0-18.1-8.1-18.1-18.1c0-10,8.1-18.1,18.1-18.1c10,0,18.1,8.1,18.1,18.1
	C340.8,46,332.7,54.1,322.8,54.1"/>
</svg>
