<?xml version="1.0" encoding="utf-8"?>
<!-- Generator: Adobe Illustrator 19.0.0, SVG Export Plug-In . SVG Version: 6.00 Build 0)  -->
<!DOCTYPE svg PUBLIC "-//W3C//DTD SVG 1.1//EN" "http://www.w3.org/Graphics/SVG/1.1/DTD/svg11.dtd">
<svg version="1.1" id="Layer_1" xmlns="http://www.w3.org/2000/svg" xmlns:xlink="http://www.w3.org/1999/xlink" x="0px" y="0px"
	 viewBox="0 0 72.1 72.1" style="enable-background:new 0 0 72.1 72.1;" xml:space="preserve">
<style type="text/css">
	.st0{fill:#FFFFFF;}
</style>
<path class="st0" d="M36.1,22C28.3,22,22,28.3,22,36.1c0,7.8,6.3,14.1,14.1,14.1c3.1,0,6-1,8.3-2.7L39,42.6c-0.1-0.1-0.4-0.1-0.5,0
	l-1.3,1.3c-0.4,0.4-0.8,0.3-0.9-0.3l-1.5-8c-0.1-0.4,0.2-0.7,0.6-0.6l8,1.5c0.6,0.1,0.7,0.5,0.3,0.9l-1.3,1.3
	c-0.1,0.1-0.1,0.4,0,0.5l4.9,5.5c1.8-2.4,2.9-5.3,2.9-8.5C50.2,28.3,43.8,22,36.1,22"/>
<path class="st0" d="M36.1,0C16.1,0,0,16.1,0,36.1C0,56,16.1,72.1,36.1,72.1C56,72.1,72.1,56,72.1,36.1C72.1,16.1,56,0,36.1,0
	 M53.8,51.9c0.2,0.3,0.2,0.7,0,1l-1,1c-0.3,0.3-0.7,0.3-1,0l-4.3-3.9c-3.1,2.5-7.1,4-11.4,4C26.1,54.1,18,46,18,36.1
	c0-10,8.1-18.1,18.1-18.1s18.1,8.1,18.1,18.1c0,4.4-1.6,8.4-4.2,11.5L53.8,51.9z"/>
</svg>
