<?xml version="1.0" encoding="utf-8"?>
<!-- Generator: Adobe Illustrator 19.0.0, SVG Export Plug-In . SVG Version: 6.00 Build 0)  -->
<!DOCTYPE svg PUBLIC "-//W3C//DTD SVG 1.1//EN" "http://www.w3.org/Graphics/SVG/1.1/DTD/svg11.dtd">
<svg version="1.1" id="Layer_1" xmlns="http://www.w3.org/2000/svg" xmlns:xlink="http://www.w3.org/1999/xlink" x="0px" y="0px"
	 viewBox="0 0 72.1 72.1" style="enable-background:new 0 0 72.1 72.1;" xml:space="preserve">
<style type="text/css">
	.st0{fill:#000000;}
</style>
<path class="st0" d="M36.6,23.8c-0.3-0.4-0.8-0.4-1.1,0L20.7,42.3c-0.5,0.6-0.3,1.2,0.6,1.2h29.6c0.8,0,1.1-0.5,0.6-1.2L36.6,23.8z
	 M36.1,40.3c0,0.3-0.2,0.5-0.5,0.5h-9.3c-0.6,0-0.8-0.4-0.4-0.9l9.3-11.6c0.5-0.7,1-0.5,1,0.3V40.3z"/>
<path class="st0" d="M36.1,0C16.1,0,0,16.1,0,36.1C0,56,16.1,72.1,36.1,72.1C56,72.1,72.1,56,72.1,36.1C72.1,16.1,56,0,36.1,0
	 M58,47.5H14.1c-0.8,0-1.1-0.5-0.6-1.2l22-27.6c0.3-0.4,0.8-0.4,1.1,0l22,27.6C59.1,46.9,58.9,47.5,58,47.5"/>
</svg>
