<?xml version="1.0" encoding="utf-8"?>
<!-- Generator: Adobe Illustrator 19.0.0, SVG Export Plug-In . SVG Version: 6.00 Build 0)  -->
<!DOCTYPE svg PUBLIC "-//W3C//DTD SVG 1.1//EN" "http://www.w3.org/Graphics/SVG/1.1/DTD/svg11.dtd">
<svg version="1.1" id="Layer_1" xmlns="http://www.w3.org/2000/svg" xmlns:xlink="http://www.w3.org/1999/xlink" x="0px" y="0px"
	 viewBox="0 0 72.1 72.1" style="enable-background:new 0 0 72.1 72.1;" xml:space="preserve">
<style type="text/css">
	.st0{fill:#80BB42;}
	.st1{fill:#3399CC;}
	.st2{fill:#55B9A9;}
	.st3{fill:#DD5172;}
</style>
<path id="XMLID_135_" class="st0" d="M-252.2,35.8l-6.2,2.2c-0.2,0.1-0.3,0.3-0.2,0.5l4.7,8.2c0.5,0.8,0.9,0.7,1-0.2l1.2-10.3
	C-251.7,35.9-251.9,35.7-252.2,35.8"/>
<path id="XMLID_132_" class="st0" d="M-259.7,0c-19.9,0-36.1,16.1-36.1,36.1c0,19.9,16.1,36.1,36.1,36.1c19.9,0,36.1-16.1,36.1-36.1
	C-223.6,16.1-239.8,0-259.7,0 M-250.8,56.4c-0.1,1.2-0.7,1.3-1.3,0.3l-16.1-28c0-0.1-0.2-0.2-0.2-0.2l-14.8-3c-0.2,0-0.2-0.3,0-0.4
	l36-4.1c0.2,0,0.4,0.2,0.4,0.4L-250.8,56.4z"/>
<path id="XMLID_164_" class="st1" d="M-160.9,23.8c-0.3-0.4-0.8-0.4-1.1,0l-14.8,18.6c-0.5,0.6-0.3,1.2,0.6,1.2h29.6
	c0.8,0,1.1-0.5,0.6-1.2L-160.9,23.8z M-161.5,40.3c0,0.3-0.2,0.5-0.5,0.5h-9.3c-0.6,0-0.8-0.4-0.4-0.9l9.3-11.6c0.5-0.7,1-0.5,1,0.3
	V40.3z"/>
<path id="XMLID_161_" class="st1" d="M-161.5,0c-19.9,0-36.1,16.1-36.1,36.1c0,19.9,16.1,36.1,36.1,36.1c19.9,0,36.1-16.1,36.1-36.1
	C-125.5,16.1-141.6,0-161.5,0 M-139.6,47.5h-43.9c-0.8,0-1.1-0.5-0.6-1.2l22-27.6c0.3-0.4,0.8-0.4,1.1,0l22,27.6
	C-138.5,46.9-138.7,47.5-139.6,47.5"/>
<path id="XMLID_275_" class="st2" d="M-61.8,22c-7.8,0-14.1,6.3-14.1,14.1c0,7.8,6.3,14.1,14.1,14.1c3.1,0,6-1,8.3-2.7l-5.4-4.8
	c-0.1-0.1-0.4-0.1-0.5,0l-1.3,1.3c-0.4,0.4-0.8,0.3-0.9-0.3l-1.5-8c-0.1-0.4,0.2-0.7,0.6-0.6l8,1.5c0.6,0.1,0.7,0.5,0.3,0.9
	l-1.3,1.3c-0.1,0.1-0.1,0.4,0,0.5l4.9,5.5c1.8-2.4,2.9-5.3,2.9-8.5C-47.7,28.3-54,22-61.8,22"/>
<path id="XMLID_272_" class="st2" d="M-61.8,0c-19.9,0-36.1,16.1-36.1,36.1c0,19.9,16.1,36.1,36.1,36.1c19.9,0,36.1-16.1,36.1-36.1
	C-25.8,16.1-41.9,0-61.8,0 M-44.1,51.9c0.2,0.3,0.2,0.7,0,1l-1,1c-0.3,0.3-0.7,0.3-1,0l-4.3-3.9c-3.1,2.5-7.1,4-11.4,4
	c-10,0-18.1-8.1-18.1-18.1c0-10,8.1-18.1,18.1-18.1s18.1,8.1,18.1,18.1c0,4.4-1.6,8.4-4.2,11.5L-44.1,51.9z"/>
<path id="XMLID_293_" class="st3" d="M36.6,38.2c-0.3-0.4-0.8-0.4-1.1,0l-7.1,8.9c-0.1,0.2-0.1,0.4,0.1,0.5c0.5,0.3,1.1,0.7,1.7,0.9
	c0.1,0.1,0.3,0,0.4-0.1l4.9-6.2c0.3-0.4,0.8-0.4,1.1,0l4.9,6.2c0.1,0.1,0.3,0.2,0.4,0.1c0.6-0.3,1.2-0.6,1.7-0.9
	c0.2-0.1,0.2-0.4,0.1-0.5L36.6,38.2z"/>
<path id="XMLID_292_" class="st3" d="M35.1,21.7C28,22.2,22.3,28.1,22,35.2c-0.1,3.8,1.2,7.2,3.5,9.8c0.2,0.2,0.4,0.2,0.6,0
	l9.5-11.9c0.3-0.4,0.8-0.4,1.1,0L46.1,45c0.1,0.2,0.4,0.2,0.6,0c2.2-2.5,3.5-5.7,3.5-9.3C50.2,27.7,43.3,21.2,35.1,21.7"/>
<path id="XMLID_289_" class="st3" d="M36.1-0.3C16.1-0.3,0,15.9,0,35.8c0,19.9,16.1,36.1,36.1,36.1s36.1-16.1,36.1-36.1
	C72.1,15.9,56-0.3,36.1-0.3 M36.1,53.8c-10,0-18.1-8.1-18.1-18.1c0-10,8.1-18.1,18.1-18.1c10,0,18.1,8.1,18.1,18.1
	C54.1,45.8,46,53.8,36.1,53.8"/>
</svg>
