<?xml version="1.0" encoding="utf-8"?>
<!-- Generator: Adobe Illustrator 19.0.0, SVG Export Plug-In . SVG Version: 6.00 Build 0)  -->
<!DOCTYPE svg PUBLIC "-//W3C//DTD SVG 1.1//EN" "http://www.w3.org/Graphics/SVG/1.1/DTD/svg11.dtd">
<svg version="1.1" id="Layer_1" xmlns="http://www.w3.org/2000/svg" xmlns:xlink="http://www.w3.org/1999/xlink" x="0px" y="0px"
	 viewBox="0 0 72.1 72.1" style="enable-background:new 0 0 72.1 72.1;" xml:space="preserve">
<style type="text/css">
	.st0{fill:#000000;}
</style>
<path class="st0" d="M43.6,35.8L37.3,38c-0.2,0.1-0.3,0.3-0.2,0.5l4.7,8.2c0.5,0.8,0.9,0.7,1-0.2l1.2-10.3
	C44.1,35.9,43.9,35.7,43.6,35.8"/>
<path class="st0" d="M36.1,0C16.1,0,0,16.1,0,36.1C0,56,16.1,72.1,36.1,72.1C56,72.1,72.1,56,72.1,36.1C72.1,16.1,56,0,36.1,0
	 M44.9,56.4c-0.1,1.2-0.7,1.3-1.3,0.3l-16.1-28c0-0.1-0.2-0.2-0.2-0.2l-14.8-3c-0.2,0-0.2-0.3,0-0.4l36-4.1c0.2,0,0.4,0.2,0.4,0.4
	L44.9,56.4z"/>
</svg>
