<?xml version="1.0" encoding="utf-8"?>
<!-- Generator: Adobe Illustrator 19.0.0, SVG Export Plug-In . SVG Version: 6.00 Build 0)  -->
<!DOCTYPE svg PUBLIC "-//W3C//DTD SVG 1.1//EN" "http://www.w3.org/Graphics/SVG/1.1/DTD/svg11.dtd">
<svg version="1.1" id="Layer_1" xmlns="http://www.w3.org/2000/svg" xmlns:xlink="http://www.w3.org/1999/xlink" x="0px" y="0px"
	 viewBox="0 0 72.1 72.1" style="enable-background:new 0 0 72.1 72.1;" xml:space="preserve">
<style type="text/css">
	.st0{fill:#000000;}
</style>
<path class="st0" d="M36.6,38.5c-0.3-0.4-0.8-0.4-1.1,0l-7.1,8.9c-0.1,0.2-0.1,0.4,0.1,0.5c0.5,0.3,1.1,0.7,1.7,0.9
	c0.1,0.1,0.3,0,0.4-0.1l4.9-6.2c0.3-0.4,0.8-0.4,1.1,0l4.9,6.2c0.1,0.1,0.3,0.2,0.4,0.1c0.6-0.3,1.2-0.6,1.7-0.9
	c0.2-0.1,0.2-0.4,0.1-0.5L36.6,38.5z"/>
<path class="st0" d="M35.1,22C28,22.5,22.3,28.4,22,35.5c-0.1,3.8,1.2,7.2,3.5,9.8c0.2,0.2,0.4,0.2,0.6,0l9.5-11.9
	c0.3-0.4,0.8-0.4,1.1,0l9.5,11.9c0.1,0.2,0.4,0.2,0.6,0c2.2-2.5,3.5-5.7,3.5-9.3C50.2,28,43.3,21.5,35.1,22"/>
<path class="st0" d="M36.1,0C16.1,0,0,16.1,0,36.1C0,56,16.1,72.1,36.1,72.1S72.1,56,72.1,36.1C72.1,16.1,56,0,36.1,0 M36.1,54.1
	C26.1,54.1,18,46,18,36.1c0-10,8.1-18.1,18.1-18.1c10,0,18.1,8.1,18.1,18.1C54.1,46,46,54.1,36.1,54.1"/>
</svg>
