<svg id="Layer_1" xmlns="http://www.w3.org/2000/svg" viewBox="0 0 72.1 72.1"><style>.st0{fill:#80bb42}.st1{fill:#39c}.st2{fill:#55b9a9}.st3{fill:#dd5172}</style><path id="XMLID_135_" class="st0" d="M-54.3 35.8l-6.2 2.2c-.2.1-.3.3-.2.5l4.7 8.2c.5.8.9.7 1-.2l1.2-10.3c0-.3-.2-.5-.5-.4"/><path id="XMLID_132_" class="st0" d="M-61.8 0c-19.9 0-36.1 16.1-36.1 36.1 0 19.9 16.1 36.1 36.1 36.1 19.9 0 36.1-16.1 36.1-36.1S-41.9 0-61.8 0m8.9 56.4c-.1 1.2-.7 1.3-1.3.3l-16.1-28c0-.1-.2-.2-.2-.2l-14.8-3c-.2 0-.2-.3 0-.4l36-4.1c.2 0 .4.2.4.4l-4 35z"/><path id="XMLID_164_" class="st1" d="M36.9 23.8c-.3-.4-.8-.4-1.1 0L21 42.3c-.5.6-.3 1.2.6 1.2h29.6c.8 0 1.1-.5.6-1.2L36.9 23.8zm-.5 16.5c0 .3-.2.5-.5.5h-9.3c-.6 0-.8-.4-.4-.9l9.3-11.6c.5-.7 1-.5 1 .3l-.1 11.7z"/><path id="XMLID_161_" class="st1" d="M36.4 0C16.5 0 .3 16.1.3 36.1.3 56 16.4 72.2 36.4 72.2c19.9 0 36.1-16.1 36.1-36.1C72.4 16.1 56.3 0 36.4 0m21.9 47.5H14.4c-.8 0-1.1-.5-.6-1.2l22-27.6c.3-.4.8-.4 1.1 0l22 27.6c.5.6.3 1.2-.6 1.2"/><path id="XMLID_275_" class="st2" d="M136.1 22c-7.8 0-14.1 6.3-14.1 14.1s6.3 14.1 14.1 14.1c3.1 0 6-1 8.3-2.7l-5.4-4.9c-.1-.1-.4-.1-.5 0l-1.3 1.3c-.4.4-.8.3-.9-.3l-1.5-8c-.1-.4.2-.7.6-.6l8 1.5c.6.1.7.5.3.9l-1.3 1.3c-.1.1-.1.4 0 .5l4.9 5.5c1.8-2.4 2.9-5.3 2.9-8.5 0-7.9-6.4-14.2-14.1-14.2"/><path id="XMLID_272_" class="st2" d="M136.1 0c-20 0-36.1 16.1-36.1 36.1 0 19.9 16.1 36 36.1 36 19.9 0 36-16.1 36-36 0-20-16.1-36.1-36-36.1m17.7 51.9c.2.3.2.7 0 1l-1 1c-.3.3-.7.3-1 0l-4.3-3.9c-3.1 2.5-7.1 4-11.4 4-10 .1-18.1-8-18.1-17.9 0-10 8.1-18.1 18.1-18.1s18.1 8.1 18.1 18.1c0 4.4-1.6 8.4-4.2 11.5l3.8 4.3z"/><path id="XMLID_293_" class="st3" d="M225.5 38.5c-.3-.4-.8-.4-1.1 0l-7.1 8.9c-.1.2-.1.4.1.5.5.3 1.1.7 1.7.9.1.1.3 0 .4-.1l4.9-6.2c.3-.4.8-.4 1.1 0l4.9 6.2c.1.1.3.2.4.1.6-.3 1.2-.6 1.7-.9.2-.1.2-.4.1-.5l-7.1-8.9z"/><path id="XMLID_292_" class="st3" d="M223.9 22c-7.1.5-12.8 6.4-13.1 13.5-.1 3.8 1.2 7.2 3.5 9.8.2.2.4.2.6 0l9.5-11.9c.3-.4.8-.4 1.1 0l9.5 11.9c.1.2.4.2.6 0 2.2-2.5 3.5-5.7 3.5-9.3-.1-8-7-14.6-15.2-14"/><path id="XMLID_289_" class="st3" d="M224.9 0c-19.9 0-36.1 16.1-36.1 36.1 0 19.9 16.1 36.1 36.1 36.1S261 56 261 36.1c0-20-16.2-36.1-36.1-36.1m0 54.1c-10 0-18.1-8.1-18.1-18.1s8.1-18.1 18.1-18.1S243 26 243 36s-8.1 18.1-18.1 18.1"/></svg>