<?xml version="1.0" encoding="utf-8"?>
<!-- Generator: Adobe Illustrator 18.1.1, SVG Export Plug-In . SVG Version: 6.00 Build 0)  -->
<!DOCTYPE svg PUBLIC "-//W3C//DTD SVG 1.1//EN" "http://www.w3.org/Graphics/SVG/1.1/DTD/svg11.dtd">
<svg version="1.1" id="Layer_1" xmlns="http://www.w3.org/2000/svg" xmlns:xlink="http://www.w3.org/1999/xlink" x="0px" y="0px"
	 viewBox="0 0 800 800" enable-background="new 0 0 800 800" xml:space="preserve">
<path fill="#FFFFFF" d="M400.8,386.3c-7.8,0-14.1,6.3-14.1,14.1c0,7.8,6.3,14.1,14.1,14.1c3.1,0,6-1,8.3-2.7l-5.4-4.8
	c-0.1-0.1-0.4-0.1-0.5,0l-1.3,1.3c-0.4,0.4-0.8,0.3-0.9-0.3l-1.5-8c-0.1-0.4,0.2-0.7,0.6-0.6l8,1.5c0.6,0.1,0.7,0.5,0.3,0.9
	l-1.3,1.3c-0.1,0.1-0.1,0.4,0,0.5l4.9,5.5c1.8-2.4,2.9-5.3,2.9-8.5C414.9,392.6,408.6,386.3,400.8,386.3"/>
<path fill="#FFFFFF" d="M400.8,364.3c-19.9,0-36.1,16.1-36.1,36.1c0,19.9,16.1,36.1,36.1,36.1c19.9,0,36.1-16.1,36.1-36.1
	C436.9,380.4,420.7,364.3,400.8,364.3 M418.6,416.2c0.2,0.3,0.2,0.7,0,1l-1,1c-0.3,0.3-0.7,0.3-1,0l-4.3-3.9c-3.1,2.5-7.1,4-11.4,4
	c-10,0-18.1-8.1-18.1-18.1c0-10,8.1-18.1,18.1-18.1s18.1,8.1,18.1,18.1c0,4.4-1.6,8.4-4.2,11.5L418.6,416.2z"/>
</svg>
