<?xml version="1.0" encoding="utf-8"?>
<!-- Generator: Adobe Illustrator 19.0.0, SVG Export Plug-In . SVG Version: 6.00 Build 0)  -->
<!DOCTYPE svg PUBLIC "-//W3C//DTD SVG 1.1//EN" "http://www.w3.org/Graphics/SVG/1.1/DTD/svg11.dtd">
<svg version="1.1" id="Layer_1" xmlns="http://www.w3.org/2000/svg" xmlns:xlink="http://www.w3.org/1999/xlink" x="0px" y="0px"
	 viewBox="0 0 72.1 72.1" style="enable-background:new 0 0 72.1 72.1;" xml:space="preserve">
<style type="text/css">
	.st0{fill:#80BB42;}
	.st1{fill:#3399CC;}
	.st2{fill:#55B9A9;}
	.st3{fill:#DD5172;}
</style>
<path id="XMLID_135_" class="st0" d="M-154.3,35.8l-6.2,2.2c-0.2,0.1-0.3,0.3-0.2,0.5l4.7,8.2c0.5,0.8,0.9,0.7,1-0.2l1.2-10.3
	C-153.8,35.9-154,35.7-154.3,35.8"/>
<path id="XMLID_132_" class="st0" d="M-161.8,0c-19.9,0-36.1,16.1-36.1,36.1c0,19.9,16.1,36.1,36.1,36.1c19.9,0,36.1-16.1,36.1-36.1
	C-125.7,16.1-141.9,0-161.8,0 M-152.9,56.4c-0.1,1.2-0.7,1.3-1.3,0.3l-16.1-28c0-0.1-0.2-0.2-0.2-0.2l-14.8-3c-0.2,0-0.2-0.3,0-0.4
	l36-4.1c0.2,0,0.4,0.2,0.4,0.4L-152.9,56.4z"/>
<path id="XMLID_164_" class="st1" d="M-63.1,23.8c-0.3-0.4-0.8-0.4-1.1,0L-79,42.3c-0.5,0.6-0.3,1.2,0.6,1.2h29.6
	c0.8,0,1.1-0.5,0.6-1.2L-63.1,23.8z M-63.6,40.3c0,0.3-0.2,0.5-0.5,0.5h-9.3c-0.6,0-0.8-0.4-0.4-0.9l9.3-11.6c0.5-0.7,1-0.5,1,0.3
	V40.3z"/>
<path id="XMLID_161_" class="st1" d="M-63.6,0c-19.9,0-36.1,16.1-36.1,36.1c0,19.9,16.1,36.1,36.1,36.1c19.9,0,36.1-16.1,36.1-36.1
	C-27.6,16.1-43.7,0-63.6,0 M-41.7,47.5h-43.9c-0.8,0-1.1-0.5-0.6-1.2l22-27.6c0.3-0.4,0.8-0.4,1.1,0l22,27.6
	C-40.6,46.9-40.8,47.5-41.7,47.5"/>
<path id="XMLID_275_" class="st2" d="M36.1,22C28.3,22,22,28.3,22,36.1c0,7.8,6.3,14.1,14.1,14.1c3.1,0,6-1,8.3-2.7L39,42.6
	c-0.1-0.1-0.4-0.1-0.5,0l-1.3,1.3c-0.4,0.4-0.8,0.3-0.9-0.3l-1.5-8c-0.1-0.4,0.2-0.7,0.6-0.6l8,1.5c0.6,0.1,0.7,0.5,0.3,0.9
	l-1.3,1.3c-0.1,0.1-0.1,0.4,0,0.5l4.9,5.5c1.8-2.4,2.9-5.3,2.9-8.5C50.2,28.3,43.8,22,36.1,22"/>
<path id="XMLID_272_" class="st2" d="M36.1,0C16.1,0,0,16.1,0,36.1C0,56,16.1,72.1,36.1,72.1C56,72.1,72.1,56,72.1,36.1
	C72.1,16.1,56,0,36.1,0 M53.8,51.9c0.2,0.3,0.2,0.7,0,1l-1,1c-0.3,0.3-0.7,0.3-1,0l-4.3-3.9c-3.1,2.5-7.1,4-11.4,4
	C26.1,54.1,18,46,18,36.1c0-10,8.1-18.1,18.1-18.1s18.1,8.1,18.1,18.1c0,4.4-1.6,8.4-4.2,11.5L53.8,51.9z"/>
<path id="XMLID_293_" class="st3" d="M134.5,38.2c-0.3-0.4-0.8-0.4-1.1,0l-7.1,8.9c-0.1,0.2-0.1,0.4,0.1,0.5
	c0.5,0.3,1.1,0.7,1.7,0.9c0.1,0.1,0.3,0,0.4-0.1l4.9-6.2c0.3-0.4,0.8-0.4,1.1,0l4.9,6.2c0.1,0.1,0.3,0.2,0.4,0.1
	c0.6-0.3,1.2-0.6,1.7-0.9c0.2-0.1,0.2-0.4,0.1-0.5L134.5,38.2z"/>
<path id="XMLID_292_" class="st3" d="M133,21.7c-7.1,0.5-12.8,6.4-13.1,13.5c-0.1,3.8,1.2,7.2,3.5,9.8c0.2,0.2,0.4,0.2,0.6,0
	l9.5-11.9c0.3-0.4,0.8-0.4,1.1,0L144,45c0.1,0.2,0.4,0.2,0.6,0c2.2-2.5,3.5-5.7,3.5-9.3C148,27.7,141.2,21.2,133,21.7"/>
<path id="XMLID_289_" class="st3" d="M134-0.3c-19.9,0-36.1,16.1-36.1,36.1c0,19.9,16.1,36.1,36.1,36.1S170,55.7,170,35.8
	C170,15.9,153.9-0.3,134-0.3 M134,53.8c-10,0-18.1-8.1-18.1-18.1c0-10,8.1-18.1,18.1-18.1c10,0,18.1,8.1,18.1,18.1
	C152,45.7,143.9,53.8,134,53.8"/>
</svg>
