<svg id="Layer_1" data-name="Layer 1" xmlns="http://www.w3.org/2000/svg" viewBox="0 0 175.8 200"><defs><style>.cls-1{fill:#fff;}</style></defs><title>Artboard 1</title><path class="cls-1" d="M175.4,194.47,99.4,2.55A4.36,4.36,0,0,0,95.59,0H80.21a4.37,4.37,0,0,0-3.76,2.55L.4,194.47c-1.21,3,.48,5.53,3.75,5.53H30.23a1.89,1.89,0,0,0,1.88-1.74,18.62,18.62,0,0,1,18.54-16.89h3.11a1.61,1.61,0,0,0,1.64-1.49A18.62,18.62,0,0,1,73,162.77a1.58,1.58,0,0,0,1.39-1L82,141.38c.4-1,.84-1.88,1.88-1.88h8c1,0,1.41.78,1.88,1.88l7.7,20.39a1.58,1.58,0,0,0,1.39,1,18.62,18.62,0,0,1,17.51,17.11,1.61,1.61,0,0,0,1.61,1.49h3.11a18.62,18.62,0,0,1,18.54,16.89,1.89,1.89,0,0,0,1.88,1.74h26.09C174.93,200,176.62,197.51,175.4,194.47ZM40.85,173.1a7.43,7.43,0,1,1,7.43-7.43h0A7.43,7.43,0,0,1,40.85,173.1Zm20.31-17.89a4.59,4.59,0,1,1,4.59-4.59h0A4.59,4.59,0,0,1,61.16,155.21Zm53.48,0a4.59,4.59,0,1,1,4.59-4.59h0A4.59,4.59,0,0,1,114.64,155.21Zm6.26-31.59a1.67,1.67,0,0,1-1.67,1.67h-10a1.71,1.71,0,0,0-1.19.49L100.76,133a1.6,1.6,0,0,1-1.18.49H76.22A1.6,1.6,0,0,1,75,133l-7.28-7.27a1.68,1.68,0,0,0-1.18-.49h-10a1.67,1.67,0,0,1-1.67-1.67V117c0-13.07,7.77-15.78,11-16.35A1.66,1.66,0,0,0,67.28,99V92.3c0-29.57,16.55-39.27,20-41a1.42,1.42,0,0,1,1.24,0c3.45,1.7,20,11.4,20,41V99a1.66,1.66,0,0,0,1.38,1.64c3.23.57,11,3.28,11,16.35Zm14,49.48a7.43,7.43,0,1,1,7.43-7.43h0A7.43,7.43,0,0,1,135,173.1Z"/><circle class="cls-1" cx="87.9" cy="89.88" r="6.58"/></svg>