<?xml version="1.0" encoding="utf-8"?>
<!-- Generator: Adobe Illustrator 19.0.0, SVG Export Plug-In . SVG Version: 6.00 Build 0)  -->
<!DOCTYPE svg PUBLIC "-//W3C//DTD SVG 1.1//EN" "http://www.w3.org/Graphics/SVG/1.1/DTD/svg11.dtd">
<svg version="1.1" id="Layer_1" xmlns="http://www.w3.org/2000/svg" xmlns:xlink="http://www.w3.org/1999/xlink" x="0px" y="0px"
	 viewBox="0 0 37.5 37.5" style="enable-background:new 0 0 37.5 37.5;" xml:space="preserve">
<style type="text/css">
	.st0{fill:#459A8C;}
</style>
<path class="st0" d="M18.8,0C8.4,0,0,8.4,0,18.8c0,10.4,8.4,18.8,18.8,18.8c4.5,0,8.6-1.6,11.8-4.2l4.5,4c0.3,0.3,0.8,0.2,1,0
	l1.1-1.1c0.3-0.3,0.3-0.7,0-1l-4-4.5c2.7-3.2,4.3-7.4,4.3-12C37.5,8.4,29.1,0,18.8,0 M30.4,27.6l-5-5.7c-0.1-0.1-0.1-0.4,0-0.5
	l1.3-1.3c0.4-0.4,0.3-0.8-0.3-1l-8.3-1.5c-0.4-0.1-0.7,0.2-0.7,0.7l1.5,8.3c0.1,0.6,0.5,0.7,1,0.3l1.3-1.3c0.1-0.1,0.4-0.1,0.5,0
	l5.7,5c-2.4,1.8-5.4,2.8-8.7,2.8c-8.1,0-14.6-6.6-14.6-14.6c0-8.1,6.5-14.6,14.6-14.6c8.1,0,14.6,6.6,14.6,14.6
	C33.4,22.1,32.3,25.1,30.4,27.6"/>
</svg>
