<?xml version="1.0" encoding="utf-8"?>
<!-- Generator: Adobe Illustrator 19.0.0, SVG Export Plug-In . SVG Version: 6.00 Build 0)  -->
<!DOCTYPE svg PUBLIC "-//W3C//DTD SVG 1.1//EN" "http://www.w3.org/Graphics/SVG/1.1/DTD/svg11.dtd">
<svg version="1.1" id="Layer_1" xmlns="http://www.w3.org/2000/svg" xmlns:xlink="http://www.w3.org/1999/xlink" x="0px" y="0px"
	 viewBox="0 0 70 70" style="enable-background:new 0 0 70 70;" xml:space="preserve">
<style type="text/css">
	.st0{fill:#12A6D1;}
</style>
<path id="XMLID_1_" class="st0" d="M35.6,23.1c-0.3-0.4-0.8-0.4-1.1,0l-14.4,18c-0.5,0.6-0.3,1.1,0.5,1.1h28.8c0.8,0,1-0.5,0.5-1.1
	L35.6,23.1z M35,39.1c0,0.3-0.2,0.5-0.5,0.5h-9c-0.6,0-0.8-0.4-0.4-0.9l9-11.3c0.5-0.6,0.9-0.5,0.9,0.3V39.1z"/>
<path id="XMLID_4_" class="st0" d="M35,0C15.7,0,0,15.7,0,35c0,19.3,15.7,35,35,35c19.3,0,35-15.7,35-35C70,15.7,54.3,0,35,0
	 M56.3,46.1H13.7c-0.8,0-1-0.5-0.5-1.1l21.3-26.8c0.3-0.4,0.8-0.4,1.1,0l21.3,26.8C57.4,45.5,57.1,46.1,56.3,46.1"/>
</svg>
