<?xml version="1.0" standalone="no"?>
<!DOCTYPE svg PUBLIC "-//W3C//DTD SVG 20010904//EN"
 "http://www.w3.org/TR/2001/REC-SVG-20010904/DTD/svg10.dtd">
<svg version="1.0" xmlns="http://www.w3.org/2000/svg"
 width="700.000000pt" height="700.000000pt" viewBox="0 0 700.000000 700.000000"
 preserveAspectRatio="xMidYMid meet">
<metadata>
Created by potrace 1.11, written by Peter Selinger 2001-2013
</metadata>
<g transform="translate(0.000000,700.000000) scale(0.100000,-0.100000)"
fill="#000000" stroke="none">
<path d="M3298 6995 c-2 -2 -46 -6 -98 -9 -52 -4 -104 -9 -115 -11 -11 -2 -42
-7 -70 -10 -27 -3 -72 -10 -100 -15 -27 -5 -61 -12 -75 -14 -174 -32 -462
-112 -575 -161 -16 -7 -61 -25 -99 -39 -90 -35 -280 -128 -385 -188 -46 -26
-88 -48 -92 -48 -5 0 -9 -4 -9 -10 0 -5 -5 -10 -11 -10 -9 0 -131 -78 -185
-119 -12 -9 -32 -23 -44 -31 -12 -8 -69 -52 -126 -98 -305 -244 -583 -554
-775 -867 -155 -253 -248 -443 -340 -702 -30 -85 -95 -305 -104 -351 -3 -15
-7 -38 -10 -52 -21 -95 -41 -205 -51 -285 -3 -27 -8 -61 -10 -75 -25 -157 -25
-659 1 -811 2 -13 7 -51 10 -84 5 -49 33 -202 49 -275 170 -731 539 -1355
1096 -1851 130 -116 386 -309 408 -309 6 0 12 -3 14 -7 2 -5 41 -31 88 -59
272 -164 596 -302 900 -383 138 -36 346 -78 432 -87 35 -3 65 -7 68 -9 3 -2
50 -7 105 -11 185 -15 604 -9 727 11 13 2 46 6 73 10 28 3 59 8 70 10 22 5 61
12 115 21 87 14 297 70 430 114 363 121 698 297 1005 528 220 165 475 417 645
637 248 321 433 664 559 1041 40 118 109 379 116 439 4 27 17 102 20 115 1 3
5 32 9 65 4 33 10 71 12 85 25 148 24 703 -1 825 -2 11 -7 41 -10 67 -3 25
-14 96 -25 157 -159 881 -664 1677 -1400 2206 -63 45 -135 95 -160 110 -99 63
-283 165 -295 165 -8 0 -16 4 -19 8 -4 8 -91 48 -262 123 -208 91 -623 195
-889 224 -33 3 -73 8 -90 11 -34 5 -522 14 -527 9z m447 -1759 c17 -3 46 -9
65 -12 536 -86 1022 -453 1275 -964 39 -79 108 -263 119 -320 3 -14 12 -56 20
-95 26 -123 30 -167 31 -345 0 -205 -7 -269 -46 -422 -59 -233 -177 -476 -318
-652 -17 -21 -31 -42 -31 -45 0 -6 164 -199 179 -211 3 -3 35 -39 71 -80 36
-41 77 -88 92 -105 16 -16 29 -37 29 -45 1 -8 3 -22 4 -30 3 -26 -16 -53 -74
-107 -63 -60 -91 -66 -137 -31 -16 12 -31 25 -34 28 -8 9 -137 128 -234 215
-49 44 -100 91 -114 104 -28 28 -16 33 -154 -61 -166 -112 -403 -217 -578
-254 -245 -51 -467 -59 -695 -23 -562 88 -1044 448 -1297 969 -68 141 -127
333 -152 500 -13 92 -16 426 -3 477 3 11 9 43 12 70 17 122 82 325 147 460 44
90 134 235 199 319 141 183 375 377 571 474 35 18 75 38 89 46 46 24 186 73
281 98 87 22 120 28 223 43 22 3 42 7 44 9 6 6 383 -3 416 -10z"/>
<path d="M3468 4865 c-2 -2 -37 -5 -78 -9 -324 -25 -617 -162 -850 -395 -326
-326 -459 -758 -379 -1225 14 -78 68 -243 109 -331 123 -262 358 -499 630
-635 126 -63 275 -111 389 -125 30 -4 63 -9 75 -11 31 -6 233 -5 291 1 200 22
422 101 588 208 l68 44 -92 84 c-101 91 -100 90 -180 164 -172 160 -261 235
-277 235 -9 0 -47 -30 -82 -66 -36 -36 -76 -71 -90 -79 -47 -25 -59 -1 -94
195 -15 81 -79 422 -97 517 -12 63 -19 123 -15 138 7 27 8 27 64 22 31 -3 140
-22 242 -42 101 -19 198 -38 215 -41 16 -2 37 -7 45 -9 8 -2 33 -6 55 -10 51
-7 238 -45 240 -48 1 -1 8 -12 14 -24 11 -21 5 -30 -69 -106 -81 -86 -89 -100
-67 -128 18 -24 173 -199 247 -279 8 -8 62 -69 119 -134 l104 -118 54 84 c52
80 93 158 128 243 18 42 63 186 69 220 14 75 17 94 21 130 6 51 7 264 1 290
-2 11 -7 45 -11 75 -20 158 -99 371 -192 517 -232 366 -611 600 -1033 638 -81
8 -159 12 -162 10z"/>
</g>
</svg>
