<?xml version="1.0" standalone="no"?>
<!DOCTYPE svg PUBLIC "-//W3C//DTD SVG 20010904//EN"
 "http://www.w3.org/TR/2001/REC-SVG-20010904/DTD/svg10.dtd">
<svg version="1.0" xmlns="http://www.w3.org/2000/svg"
 width="700.000000pt" height="700.000000pt" viewBox="0 0 700.000000 700.000000"
 preserveAspectRatio="xMidYMid meet">
<metadata>
Created by potrace 1.11, written by Peter Selinger 2001-2013
</metadata>
<g transform="translate(0.000000,700.000000) scale(0.100000,-0.100000)"
fill="#000000" stroke="none">
<path d="M3298 6995 c-2 -2 -46 -6 -98 -9 -52 -4 -104 -9 -115 -11 -11 -2 -42
-7 -70 -10 -27 -3 -72 -10 -100 -15 -27 -5 -61 -12 -75 -14 -174 -32 -462
-112 -575 -161 -16 -7 -61 -25 -99 -39 -90 -35 -280 -128 -385 -188 -46 -26
-88 -48 -92 -48 -5 0 -9 -4 -9 -10 0 -5 -5 -10 -11 -10 -9 0 -131 -78 -185
-119 -12 -9 -32 -23 -44 -31 -12 -8 -69 -52 -126 -98 -305 -244 -583 -554
-775 -867 -155 -253 -248 -443 -340 -702 -30 -85 -95 -305 -104 -351 -3 -15
-7 -38 -10 -52 -21 -95 -41 -205 -51 -285 -3 -27 -8 -61 -10 -75 -25 -157 -25
-659 1 -811 2 -13 7 -50 10 -83 8 -84 31 -196 71 -359 169 -684 538 -1291
1074 -1768 130 -116 386 -309 408 -309 6 0 12 -3 14 -7 2 -5 41 -31 88 -59
272 -164 596 -302 900 -383 138 -36 346 -78 432 -87 35 -3 65 -7 68 -9 3 -2
50 -7 105 -11 187 -15 605 -9 727 11 13 2 46 6 73 10 28 3 59 8 70 10 22 5 61
12 115 21 163 26 492 127 685 209 267 114 551 278 750 433 254 198 472 413
645 637 248 321 433 664 559 1041 40 118 109 379 116 439 4 27 17 102 20 115
1 3 5 32 9 65 4 33 10 71 12 85 25 148 24 703 -1 825 -2 11 -7 41 -10 67 -3
25 -14 96 -25 157 -159 881 -664 1677 -1400 2206 -63 45 -135 95 -160 110 -99
63 -283 165 -295 165 -8 0 -16 4 -19 8 -4 8 -93 49 -262 123 -207 90 -624 195
-889 224 -33 3 -73 8 -90 11 -34 5 -522 14 -527 9z m1441 -2054 c6 -10 9 -27
7 -37 -2 -11 -7 -50 -11 -88 -4 -38 -9 -79 -10 -90 -2 -12 -6 -48 -10 -81 -3
-33 -8 -76 -10 -95 -3 -19 -7 -55 -9 -80 -7 -64 -45 -398 -51 -440 -2 -19 -7
-60 -10 -90 -3 -30 -8 -71 -10 -90 -3 -19 -7 -57 -10 -85 -3 -27 -7 -66 -10
-85 -6 -45 -36 -314 -40 -360 -2 -19 -6 -55 -9 -80 -12 -94 -17 -136 -21 -179
-3 -24 -7 -60 -9 -80 -7 -47 -15 -124 -21 -181 -5 -48 -14 -129 -20 -170 -2
-14 -7 -54 -10 -90 -7 -73 -14 -133 -20 -170 -2 -14 -7 -54 -10 -90 -6 -71 -9
-95 -24 -215 -6 -44 -13 -111 -17 -150 -3 -38 -7 -77 -9 -85 -2 -8 -6 -46 -10
-85 -4 -38 -9 -77 -10 -85 -2 -8 -6 -49 -10 -90 -4 -41 -14 -90 -22 -107 -31
-67 -73 -35 -162 123 -34 60 -66 116 -72 124 -11 19 -172 299 -207 360 -14 25
-152 266 -307 535 -155 270 -335 582 -400 695 -65 113 -128 223 -141 245 -14
22 -38 65 -54 95 -17 30 -35 62 -40 70 -5 8 -73 125 -151 260 -77 135 -147
250 -155 256 -8 7 -36 15 -62 20 -26 4 -51 8 -57 10 -15 3 -712 145 -738 149
-12 3 -42 9 -67 15 -25 5 -56 12 -70 14 -52 10 -89 18 -230 47 -80 16 -155 31
-168 34 -41 8 -62 16 -62 25 0 17 34 27 106 34 39 4 80 8 90 10 11 2 53 7 94
11 41 4 82 8 90 10 8 1 51 6 95 11 44 4 82 8 85 9 3 1 39 5 80 9 41 4 86 9
100 11 59 8 250 30 355 41 28 3 86 9 130 15 102 12 136 16 210 24 33 4 74 8
90 10 36 4 113 13 175 20 105 11 137 15 180 21 25 3 63 7 85 9 53 5 156 17
175 20 8 1 47 6 85 9 39 4 77 9 85 11 8 2 47 6 85 10 39 3 81 8 95 10 14 2 52
7 85 10 54 5 152 17 262 30 21 3 121 14 223 25 102 12 200 23 218 25 19 3 64
8 100 11 37 4 68 7 70 8 1 2 20 3 42 4 29 1 42 -3 49 -17z"/>
<path d="M4135 3490 c-325 -112 -492 -171 -512 -182 -28 -14 -29 -33 -5 -73
10 -16 31 -52 46 -80 16 -27 45 -78 65 -113 20 -35 43 -76 51 -91 93 -168 285
-494 306 -516 25 -27 26 -27 44 -9 19 19 23 37 35 149 4 33 8 70 10 83 2 13 7
53 10 90 4 37 8 74 10 82 2 8 7 47 10 85 3 39 8 81 10 95 3 14 7 48 10 75 3
28 7 66 10 85 2 19 7 60 10 90 4 30 8 66 10 80 2 14 7 54 10 90 4 36 9 68 11
72 3 4 -3 11 -13 16 -13 7 -48 -1 -128 -28z"/>
</g>
</svg>
