<?xml version="1.0" standalone="no"?>
<!DOCTYPE svg PUBLIC "-//W3C//DTD SVG 20010904//EN"
 "http://www.w3.org/TR/2001/REC-SVG-20010904/DTD/svg10.dtd">
<svg version="1.0" xmlns="http://www.w3.org/2000/svg"
 width="700.000000pt" height="700.000000pt" viewBox="0 0 700.000000 700.000000"
 preserveAspectRatio="xMidYMid meet">
<metadata>
Created by potrace 1.11, written by Peter Selinger 2001-2013
</metadata>
<g transform="translate(0.000000,700.000000) scale(0.100000,-0.100000)"
fill="#000000" stroke="none">
<path d="M3298 6995 c-2 -1 -48 -6 -102 -9 -55 -4 -102 -8 -105 -10 -3 -2 -35
-7 -70 -10 -35 -4 -85 -11 -110 -16 -25 -5 -57 -12 -71 -14 -181 -33 -497
-124 -627 -181 -18 -8 -48 -22 -67 -30 -19 -8 -37 -15 -41 -15 -16 0 -302
-150 -414 -217 -369 -222 -715 -534 -978 -879 -215 -282 -394 -616 -518 -964
-28 -77 -92 -295 -100 -340 -3 -14 -7 -36 -10 -50 -18 -79 -44 -223 -50 -275
-4 -33 -9 -69 -11 -80 -18 -98 -25 -570 -10 -715 46 -459 159 -856 357 -1252
37 -76 80 -155 94 -177 14 -23 25 -43 25 -47 0 -13 206 -307 287 -409 119
-150 381 -410 538 -535 117 -93 313 -230 405 -283 287 -165 577 -287 871 -366
136 -36 344 -78 431 -87 35 -3 66 -8 69 -9 29 -18 532 -26 709 -12 105 9 111
9 290 38 497 81 1009 294 1445 603 50 36 229 177 240 190 6 6 24 22 40 34 37
29 171 160 245 239 357 385 623 841 779 1338 58 186 111 422 126 565 4 30 8
61 11 68 24 74 24 781 -1 821 -1 4 -6 33 -9 66 -3 33 -8 69 -10 80 -2 11 -11
61 -21 110 -142 760 -555 1467 -1165 1996 -127 110 -433 329 -460 329 -5 0
-10 5 -10 10 0 6 -5 10 -10 10 -6 0 -29 12 -52 26 -66 42 -290 151 -416 203
-217 89 -499 172 -699 205 -47 8 -235 34 -293 41 -55 7 -526 16 -532 10z m242
-1798 c14 -11 268 -327 500 -622 52 -66 97 -122 100 -125 3 -3 30 -36 60 -75
30 -38 63 -79 72 -90 9 -11 72 -90 140 -176 159 -201 163 -207 293 -369 61
-76 182 -230 270 -341 132 -167 304 -382 358 -449 7 -8 37 -47 67 -85 30 -38
60 -77 67 -85 7 -8 53 -66 104 -129 133 -166 148 -188 142 -211 -14 -53 125
-50 -2215 -50 -2155 0 -2168 0 -2188 20 -11 11 -20 23 -20 28 0 20 44 80 221
303 107 134 199 251 206 259 6 8 27 33 45 56 18 22 44 56 58 74 14 18 30 38
35 44 6 6 69 85 140 176 71 91 134 170 140 176 5 6 21 26 35 44 14 18 30 38
35 44 6 6 35 43 65 81 30 39 57 72 60 75 3 3 53 66 112 140 58 74 179 228 269
341 90 113 178 223 194 244 17 21 53 66 80 100 28 34 60 75 73 91 294 373 401
504 417 513 27 13 47 13 65 -2z"/>
<path d="M3475 4708 c-11 -6 -25 -19 -31 -27 -7 -9 -56 -71 -110 -137 -55 -67
-148 -184 -209 -260 -60 -77 -112 -141 -115 -144 -3 -3 -48 -59 -100 -125 -52
-66 -97 -122 -100 -125 -3 -3 -21 -25 -40 -50 -41 -52 -61 -78 -75 -94 -6 -6
-53 -65 -105 -131 -52 -66 -97 -122 -100 -125 -3 -3 -30 -36 -60 -75 -30 -38
-57 -72 -60 -75 -14 -13 -357 -448 -373 -473 -22 -34 -14 -65 20 -78 15 -5
598 -9 1494 -9 1468 0 1469 0 1490 21 14 14 18 27 13 42 -8 27 4 10 -140 192
-65 83 -133 169 -150 191 -18 23 -41 52 -52 65 -11 13 -111 139 -222 279 -112
140 -215 271 -231 290 -15 19 -94 118 -175 220 -408 515 -490 616 -504 627
-19 15 -39 16 -65 1z m5 -418 c18 -10 19 -34 20 -614 0 -545 -1 -606 -16 -620
-14 -15 -64 -16 -494 -14 -351 2 -482 6 -491 15 -6 6 -9 22 -5 36 4 18 452
592 629 807 7 8 75 94 152 190 120 151 170 208 183 210 2 0 12 -5 22 -10z"/>
</g>
</svg>
