<svg xmlns="http://www.w3.org/2000/svg" width="130.05378" height="61.19402" viewBox="0 0 130.05378 61.19402"><defs><style>.cls-1{fill:#fff;}</style></defs><g id="Layer_2" data-name="Layer 2"><g id="Layer_2-2" data-name="Layer 2"><path class="cls-1" d="M29.73836,17.87953c0,9.96794-5.00627,13.76728-18.32654,13.76728V24.495c8.26926,0,10.72772-1.788,10.72772-6.61546V7.37538H14.58546V.35766h15.1529Z"/><path class="cls-1" d="M29.64847,31.64681,42.16421,0h5.45327L60.62483,31.64681Zm11.06618-7.10708h8.4416l-4.2208-11.93464Z"/><path class="cls-1" d="M75.59808.35766c10.32532,0,15.51042,7.867,15.51042,15.68925s-5.1851,15.5999-15.51042,15.5999h-11.577V.35766Zm0,24.13733c5.27445,0,7.77751-4.33583,7.77751-8.44808S80.87253,7.42,75.59808,7.42H71.57517V24.495Z"/><path class="cls-1" d="M94.50462,21.58953V.35766H102.148V21.54492c0,4.69335,8.85036,4.60387,8.85036,0V.35766H118.642V21.58953c0,7.06246-6.0791,10.549-12.11334,10.50428C100.49425,32.09381,94.50462,28.652,94.50462,21.58953Z"/><path class="cls-1" d="M15.37863,52.64725H20.2423a9.86389,9.86389,0,0,1-10.065,8.54677,10.13531,10.13531,0,1,1,0-20.27044,9.81876,9.81876,0,0,1,10.0369,8.49049H15.35049c-1.462-5.73537-10.57124-5.17323-10.57124,1.68677C4.77925,57.989,14.00107,58.467,15.37863,52.64725Z"/><path class="cls-1" d="M32.16228,40.92358A10.13531,10.13531,0,1,1,21.98467,51.10084,10.09192,10.09192,0,0,1,32.16228,40.92358Zm5.36987,10.17726c0-7.42214-10.76789-7.45028-10.76789,0C26.76426,58.52333,37.53215,58.467,37.53215,51.10084Z"/><path class="cls-1" d="M44.2789,60.913V41.23279h3.7109l6.80371,9.83991V41.23279H59.545V60.913H55.77778l-6.71964-9.587v9.587Z"/><path class="cls-1" d="M61.681,60.913V41.23279h3.7109l6.80372,9.83991V41.23279H76.947V60.913H73.17985l-6.71963-9.587v9.587Z"/><path class="cls-1" d="M83.80635,56.27407h8.2657V60.913H79.083V41.23279H92.04391v4.63888H83.80635v2.86769h8.06871v4.667H83.80635Z"/><path class="cls-1" d="M108.856,52.64725h4.86367a9.8639,9.8639,0,0,1-10.065,8.54677,10.13531,10.13531,0,1,1,0-20.27044,9.81876,9.81876,0,0,1,10.0369,8.49049H108.8279c-1.462-5.73537-10.57125-5.17323-10.57125,1.68677C98.25665,57.989,107.47848,58.467,108.856,52.64725Z"/><path class="cls-1" d="M119.9606,60.913V45.731H114.647V41.23279h15.40678V45.731h-5.28545V60.913Z"/></g></g></svg>