<svg id="Layer_3" data-name="Layer 3" xmlns="http://www.w3.org/2000/svg" viewBox="0 0 473 794.04"><defs><style>.cls-1{fill:none;stroke:#dadada;stroke-linecap:round;stroke-miterlimit:10;stroke-width:4px;}.cls-2{fill:#dadada;}.cls-3{fill:#11a4ee;}.cls-4{fill:#fff;}.cls-5{fill:#f6ee36;}.cls-6{fill:#82bf23;}.cls-7{fill:#3dc3c6;}.cls-8{fill:#3d4796;}</style></defs><title>Artboard 1</title><path class="cls-1" d="M305.56,112.66A15.56,15.56,0,0,0,290,97.1c-.42,0-.83,0-1.24.06V97.1a18.77,18.77,0,0,0-29.3-15.55A24.94,24.94,0,0,0,216.14,81a19.75,19.75,0,0,0-29.63,16.77,21,21,0,0,0,5.18,41.36A22.62,22.62,0,0,0,194,139a16.28,16.28,0,0,0,24.05.46,25.29,25.29,0,0,0,35.73,3.4,27.59,27.59,0,0,0,39.13-14.89A15.56,15.56,0,0,0,305.56,112.66Z"/><ellipse class="cls-2" cx="237.49" cy="778.88" rx="75.39" ry="4.4"/><polygon class="cls-3" points="325.26 96.18 308.56 85.87 318.86 69.17 314.59 66.53 304.28 83.23 287.57 72.93 284.93 77.2 301.64 87.51 291.33 104.22 295.61 106.86 305.92 90.15 322.63 100.46 325.26 96.18"/><circle class="cls-4" cx="176.13" cy="164.33" r="18.85"/><path class="cls-5" d="M176.13,185.69a21.36,21.36,0,1,1,21.36-21.36A21.39,21.39,0,0,1,176.13,185.69Zm0-37.7a16.34,16.34,0,1,0,16.33,16.34A16.36,16.36,0,0,0,176.13,148Z"/><polygon class="cls-4" points="285.9 165.83 292.23 153.45 285.62 141.22 299.35 143.42 308.94 133.35 311.09 147.09 323.63 153.1 311.23 159.39 309.39 173.17 299.57 163.32 285.9 165.83"/><path class="cls-6" d="M311.31,178.85l-12.63-12.66-17.59,3.22,8.14-15.92-8.5-15.74,17.66,2.83,12.33-13,2.78,17.67L329.62,153l-15.94,8.1Zm-10.84-18.39,7,7,1.32-9.83,8.84-4.48-8.95-4.29-1.53-9.8-6.84,7.18-9.8-1.57,4.72,8.73-4.52,8.83Z"/><polygon class="cls-4" points="185.82 106.67 166.97 99.36 148.13 92.06 163.87 79.39 179.62 66.72 182.72 86.69 185.82 106.67"/><path class="cls-7" d="M189,110.58,143.16,92.84,181.43,62ZM153.09,91.29l29.58,11.46L177.8,71.41Z"/><path class="cls-8" d="M214.37,188.41h-2.88a.65.65,0,0,0-.65.65v26.39a16.13,16.13,0,0,0,3.06,9c3.47,5.13,9.33,9.35,14.56,12.37a20.93,20.93,0,0,0,7.54,2.58l.32,0a22.16,22.16,0,0,0,2.57.16,21.27,21.27,0,0,0,10.43-2.78,56.1,56.1,0,0,0,10.38-7.52l.13-.12c4.09-3.9,7.12-8.55,7.12-13.77V192.3a.64.64,0,0,1,.29-.54.63.63,0,0,1,.54-.07h.07l.61.23c.6.23,1.21.44,1.83.62a.82.82,0,0,0,.27,0,.19.19,0,0,1,.08,0,.66.66,0,0,0,.47-.47l.49-2.09.17-.72a.64.64,0,0,0-.44-.77c-6.34-1.79-11.72-7.73-14.37-11.11a.69.69,0,0,1-.13-.45.46.46,0,0,1,.06-.23.66.66,0,0,1,.14-.2c.55-.54,1.08-1.07,1.59-1.61a53.84,53.84,0,0,0,3.9-4.58.65.65,0,0,0,.13-.48.68.68,0,0,0-.26-.44l-2.31-1.72a.67.67,0,0,0-.47-.12h0a.63.63,0,0,0-.43.25A51.28,51.28,0,0,1,248.74,178c-.78.57-1.58,1.12-2.42,1.66s-1.72,1.06-2.62,1.57a.71.71,0,0,1-.34.08.65.65,0,0,1-.64-.65v-4.84a.62.62,0,0,0-.25-.51.61.61,0,0,0-.52-.13.64.64,0,0,0-.36.19L239.11,178l-.09.09h0c-.17.16-.55.53-1.14,1-.39.33-.88.73-1.46,1.17A37.3,37.3,0,0,1,221.84,187a.7.7,0,0,1-.29,0,.6.6,0,0,1-.25-.13.64.64,0,0,1-.24-.5v-5.12a.63.63,0,0,0-.19-.46.65.65,0,0,0-.46-.2h-2.89a.71.71,0,0,0-.32.1.64.64,0,0,0-.33.56v10a.66.66,0,0,0,.35.57.61.61,0,0,0,.38.08l1.6-.18a40.65,40.65,0,0,0,18.31-7,.65.65,0,0,1,.16-.09.57.57,0,0,1,.18,0,.66.66,0,0,1,.68.66v2.1a.65.65,0,0,0,.29.55.63.63,0,0,0,.3.1.59.59,0,0,0,.32-.05l.39-.17,1.64-.72a50.7,50.7,0,0,0,5.65-2.92,52.37,52.37,0,0,0,5.81-4,.66.66,0,0,1,.46-.14h0a.73.73,0,0,1,.24.07.79.79,0,0,1,.2.17,51.78,51.78,0,0,0,3.61,4.1,40.31,40.31,0,0,0,5,4.34l.1.1a.67.67,0,0,1,.18.43v26.27a8.67,8.67,0,0,1-.18,1.72c0,.05,0,.09,0,.14a11.68,11.68,0,0,1-.61,2,14.08,14.08,0,0,1-.83,1.72c-.1.18-.2.36-.32.54a20.32,20.32,0,0,1-1.64,2.29c-.5.6-1.06,1.22-1.69,1.85a42.5,42.5,0,0,1-6.74,5.39c-1.07.71-2.23,1.43-3.5,2.17-.32.18-.65.36-1,.52a16.77,16.77,0,0,1-12.69.83,17.56,17.56,0,0,1-3-1.35l-1.23-.73a57.31,57.31,0,0,1-5.9-4.06l-.32-.26c-.76-.62-1.45-1.23-2.08-1.82l-.07-.06c-5-4.73-5.92-8.59-5.92-10.85V189.06A.66.66,0,0,0,214.37,188.41Z"/><path class="cls-8" d="M201.11,190.28a.64.64,0,0,0,.52.27h2.88a.78.78,0,0,0,.22,0,.64.64,0,0,0,.43-.61,29.42,29.42,0,0,1,.24-3.25,29,29,0,0,1,.52-2.93c0-.2.09-.39.14-.59a29.5,29.5,0,0,1,2-5.73c.65-1.35,1.32-2.59,2-3.74a38.31,38.31,0,0,1,2.16-3.18,31.19,31.19,0,0,1,4.5-4.8,34.94,34.94,0,0,1,37-5.83,32.8,32.8,0,0,1,17.37,15.61c.34.62.66,1.26,1,1.94a30.42,30.42,0,0,1,1.21,2.95c.18.51.34,1,.49,1.54a31.25,31.25,0,0,1,1.22,8,.69.69,0,0,0,.19.46.6.6,0,0,0,.21.14.7.7,0,0,0,.25.05h2.88a.66.66,0,0,0,.47-.2l0-.07a.59.59,0,0,0,.1-.17.78.78,0,0,0,0-.22,35.5,35.5,0,0,0-3.33-14.3c-4.56-9.56-10.69-15.43-20.5-19.6a39.54,39.54,0,0,0-7.5-2.36c-.64-.14-1.28-.26-1.93-.36a41.18,41.18,0,0,0-5.89-.5A40.47,40.47,0,0,0,224.8,156c-.62.26-1.23.54-1.82.81-1,.47-1.93,1-2.84,1.47-.37.2-.74.42-1.1.63a36.66,36.66,0,0,0-5.18,3.71c-.43.37-.86.76-1.28,1.16s-.82.81-1.21,1.22a36.1,36.1,0,0,0-3.32,4.09,45.5,45.5,0,0,0-3.75,6.51,34.83,34.83,0,0,0-3.16,11.55c-.09.91-.15,1.83-.17,2.75A.66.66,0,0,0,201.11,190.28Z"/><path class="cls-8" d="M268.44,196.82l.23.28,1.66,1.93a.49.49,0,0,0,.18.14.61.61,0,0,0,.44.07.6.6,0,0,0,.21-.08l.23-.12a4.85,4.85,0,0,1,2.59-.62.65.65,0,0,1,.42.28.52.52,0,0,1,.08.11,2.44,2.44,0,0,1,.16.57,7,7,0,0,1,.1.74,16.72,16.72,0,0,1,.08,1.79c0,.31,0,.62,0,.93,0,.92-.06,1.78-.09,2.33v.37a4.51,4.51,0,0,1-1,2.44,9.11,9.11,0,0,1-2,1.93l-2.73,2a.7.7,0,0,0-.26.43h0a.65.65,0,0,0,.11.48l1.68,2.34h0a.65.65,0,0,0,.91.15l.91-.65,1.82-1.3c2.85-2,4.63-4.86,4.77-7.57l0-.36c0-1,.11-2.1.11-3.14,0-.27,0-.54,0-.81-.06-2.82-.57-5.38-2.58-6.53a5.47,5.47,0,0,0-2.55-.69,7.74,7.74,0,0,0-1.6.12l-.53.11c-.22.05-.43.11-.64.18a9.44,9.44,0,0,0-2.55,1.22.62.62,0,0,0-.28.46.46.46,0,0,0,0,.26A.55.55,0,0,0,268.44,196.82Z"/><path class="cls-8" d="M198.83,205.74h0a.51.51,0,0,0,0,.13c.18,2.67,1.94,5.44,4.74,7.44l2.1,1.5.63.45h0a.62.62,0,0,0,.22.1.7.7,0,0,0,.47-.08.66.66,0,0,0,.19-.18l1.68-2.34a.64.64,0,0,0,.11-.24.67.67,0,0,0-.26-.68l-1.93-1.38-.8-.57a9.33,9.33,0,0,1-2-1.93,4.59,4.59,0,0,1-1-2.44v-.37c-.08-1.46-.27-5.12.23-6.36a.69.69,0,0,1,.16-.21l0,0a.51.51,0,0,1,.17-.07.75.75,0,0,1,.13-.06,2.7,2.7,0,0,1,.64,0,5.65,5.65,0,0,1,1.72.52,3.29,3.29,0,0,1,.46.23.66.66,0,0,0,.55.05.68.68,0,0,0,.29-.18l1.89-2.21a.66.66,0,0,0-.13-1,8.13,8.13,0,0,0-1-.59,9.21,9.21,0,0,0-4.31-1c-.23,0-.46,0-.68.06a5.13,5.13,0,0,0-1.39.39,4.44,4.44,0,0,0-.49.24c-2.92,1.68-2.68,6.36-2.46,10.48Z"/><path class="cls-8" d="M279,216.83h0l-3.33.21h-.19a.72.72,0,0,0-.35.14.66.66,0,0,0-.26.58c0,.37.08.88.16,1.49a45.64,45.64,0,0,0,1.86,8.48,26.44,26.44,0,0,0,1.1,2.84.62.62,0,0,1,0,.55.59.59,0,0,1-.25.29.66.66,0,0,1-.32.08H269.2a.65.65,0,0,0-.6.88.11.11,0,0,0,0,.05l4.86,10.76a.61.61,0,0,1,.06.32.65.65,0,0,1-.65.6H270a.65.65,0,0,0-.65.65v2.89a.65.65,0,0,0,.65.65h9.38l.06,0a.62.62,0,0,0,.48-.28.64.64,0,0,0,.11-.3.63.63,0,0,0-.06-.32l-3.6-7.95-1.27-2.81a.64.64,0,0,1-.05-.33.63.63,0,0,1,.1-.3.66.66,0,0,1,.55-.3h9.9a.69.69,0,0,0,.2,0,.61.61,0,0,0,.3-.2.65.65,0,0,0,0-.86l-2.17-2.41a8.5,8.5,0,0,1-.74-.92q-.35-.5-.66-1.05c-.11-.18-.21-.37-.31-.56a23.22,23.22,0,0,1-1.47-3.67c-.06-.21-.13-.42-.19-.63-.25-.85-.45-1.7-.63-2.51,0-.2-.09-.4-.13-.6-.08-.4-.15-.78-.21-1.15-.23-1.3-.37-2.41-.45-3.18S279,216.87,279,216.83Z"/><path class="cls-8" d="M127.88,460.49c-.06-.07-.11-.15-.17-.23s-.3-.39-.43-.58l-.15-.24c-.13-.2-.25-.41-.36-.61l-.09-.17a7.4,7.4,0,0,1-.36-.76c-.06-.14-.11-.29-.16-.43a8.53,8.53,0,0,1-.4-4.43s0-.06,0-.09l.09-.43,0-.12L126,452a8.32,8.32,0,0,1,6-5.68c2.78-.59,5.62.61,8,3.35l3.22-2.8c-3.44-4-7.74-5.64-12.09-4.74a12.67,12.67,0,0,0-9.22,8.58c-.09.3-.18.59-.25.89a1.29,1.29,0,0,1,0,.19c0,.24-.1.47-.14.71,0,.05,0,.09,0,.14,0,.25-.07.51-.09.76a.34.34,0,0,0,0,.1c0,.27,0,.54,0,.81v0a12.62,12.62,0,0,0,.45,3.55l-.07,0c.45,1.14.86,2.26,1.26,3.38,3.06,8.41,6.21,17.11,24.15,29l2.37-3.55-1.84-1.25-.51-.36-1.29-.92-.46-.34c-.55-.39-1.08-.79-1.59-1.18l-.1-.08c-.48-.37-.94-.73-1.38-1.09l-.4-.32-1.06-.88-.33-.28c-.44-.38-.86-.76-1.27-1.13l-.09-.07-1.09-1-.27-.26-.9-.9-.19-.19c-.35-.36-.69-.73-1-1.09l0,0-.88-1-.16-.2-.78-.95-.06-.08c-.55-.71-1.06-1.41-1.52-2.1l-.08-.12a35.61,35.61,0,0,1-1.85-3.1h0l0,0c.58.31,1.19.61,1.81.9l.21.1.82.37.35.15.82.34.36.15.86.33.32.13c1.41.52,2.86,1,4.33,1.47l.25.07,1,.29.31.09,1,.28.28.08c1.51.41,3,.79,4.44,1.13l.17,0,1,.22.25.06.9.2.27.06.89.19.13,0c1,.21,1.9.39,2.77.55l.16,0,.72.14.26,0,.63.12.29,0,.55.1.28,0,1.56.25.22,0,.32.05.23,0,.25,0,.18,0,.19,0,.18,0H160l.16,0,.57-4.23c-7.08-1-26.65-4.71-32.1-10.52C128.33,461,128.1,460.76,127.88,460.49Z"/><path class="cls-8" d="M233.13,679.18,262,732.75l10.52-2.26-12.24-57.13Zm31.15,48.57-24.5-45.5,17.1-3.67,10.4,48.53Z"/><path class="cls-8" d="M275,730l10.52-2.25L289.84,667l-27.12,5.82Zm6.37-5.86-3,.64-10.39-48.52,17.1-3.67Z"/><rect class="cls-8" x="246.59" y="456.36" width="4.4" height="209.94" transform="translate(-54.87 27.68) rotate(-5.74)"/><polygon class="cls-8" points="235.33 673.13 239.65 672.29 197.37 456.69 197.61 437.95 190.71 430.18 197.93 419.53 195.58 375.34 191.19 375.57 193.46 418.29 185.15 430.54 193.19 439.6 192.96 457.08 235.33 673.13"/><polygon class="cls-8" points="285.39 353.82 281 353.66 278.66 419.55 285.87 430.18 278.97 437.95 279.22 456.9 280.27 661.59 284.67 661.57 283.61 456.86 283.39 439.6 291.43 430.54 283.11 418.27 285.39 353.82"/><path class="cls-8" d="M190.82,235.46a.61.61,0,0,0,.3.2.69.69,0,0,0,.2,0h9.9a.65.65,0,0,1,.61.88s0,0,0,.05L199.38,242,197,247.38s0,0,0,.05a.66.66,0,0,0,.28.79.73.73,0,0,0,.33.08h9.37a.65.65,0,0,0,.61-.45.71.71,0,0,0,0-.2v-2.89a.6.6,0,0,0-.11-.34.64.64,0,0,0-.54-.31H204a.66.66,0,0,1-.32-.08.65.65,0,0,1-.27-.84l4.86-10.76a.63.63,0,0,0-.16-.74.6.6,0,0,0-.43-.19H199.5a.66.66,0,0,1-.55-.3.64.64,0,0,1,0-.62c.14-.31.27-.62.4-.93a40.84,40.84,0,0,0,2.37-9c.19-1.21.29-2.19.35-2.81v0h0a.66.66,0,0,0-.61-.72l-2.87-.17h0a.57.57,0,0,0-.26,0,.72.72,0,0,0-.21.12.7.7,0,0,0-.23.44,44.24,44.24,0,0,1-1,6.24l-.27,1a23.46,23.46,0,0,1-2.4,5.91,10,10,0,0,1-1.13,1.52l-2.17,2.41A.65.65,0,0,0,190.82,235.46Z"/><path class="cls-8" d="M229.08,197.89a3.14,3.14,0,0,0,2.22-5.36l-.08-.06a3.38,3.38,0,0,0-2.14-.86,3.14,3.14,0,0,0-3.14,3.14,3.16,3.16,0,0,0,3.14,3.14Z"/><path class="cls-8" d="M247.5,197.89a3.13,3.13,0,0,0,1-6.11,3,3,0,0,0-1-.17,3.15,3.15,0,0,0-3.14,3.14,3.18,3.18,0,0,0,3.14,3.14Z"/><rect class="cls-8" x="232.34" y="329.22" width="12.56" height="4.4"/><rect class="cls-8" x="232.34" y="348.07" width="12.56" height="4.4"/><rect class="cls-8" x="232.34" y="366.91" width="12.56" height="4.4"/><rect class="cls-8" x="232.34" y="385.76" width="12.56" height="4.4"/><path class="cls-8" d="M353.07,430.65l-31.33,7.09-.12-.32,30.64-15.23-38-70.8-4-61.12a27.14,27.14,0,0,0-10.33-21.22,26.11,26.11,0,0,0-5.18-3.21l-26.53-12.49-4.56-13.68a.69.69,0,0,0-.39-.41.66.66,0,0,0-.28,0,.76.76,0,0,0-.28.09l-4.31,2.48v-3.58a.65.65,0,0,0-.65-.65h-2.89a.65.65,0,0,0-.65.65v6l-15.86,9.12L224,245.07v-6.86a.66.66,0,0,0-.66-.65h-2.88a.64.64,0,0,0-.6.4.51.51,0,0,0-.05.25v4.45l-5.84-3.35a.76.76,0,0,0-.28-.09.86.86,0,0,0-.28,0,.77.77,0,0,0-.28.23,1.08,1.08,0,0,0-.11.18l-4.56,13.68-26.53,12.49a27.13,27.13,0,0,0-14.53,17.32,26.82,26.82,0,0,0-1,7.11l-8.09,57.66L118.92,423l31.2,14.18-.11.32-31.56-6-.8,4.2,35.23,6.69,2.51-7.51L124.8,421l36.93-70.44a.41.41,0,0,0,.15-.07l.05,0,.1-.1a.47.47,0,0,0,.06-.09.41.41,0,0,0,0-.09.59.59,0,0,0,.05-.23l.05-.36,0-.08,0,0,2.49-17.73,5.82-41.48a22.9,22.9,0,0,1,13.11-20.64l19.71-9.28c.29,1.16.7,2.65,1.27,4.36A59.44,59.44,0,0,0,208.1,273c.28.56.57,1.13.89,1.71a51.54,51.54,0,0,0,4.12,6.34,45,45,0,0,0,9.11,9.07c.59.43,1.18.85,1.79,1.25a42.06,42.06,0,0,0,11.9,5.45v18.67a.65.65,0,0,0,.65.65h2.89a.65.65,0,0,0,.65-.65h0V294a.65.65,0,0,0-.5-.63l-1.1-.27a37.72,37.72,0,0,1-15.84-8.08,41.76,41.76,0,0,1-4.94-5c-.57-.69-1.1-1.39-1.62-2.09-.27-.37-.54-.75-.79-1.12a55.18,55.18,0,0,1-8-18.3l3-1.39,19,12.69a.65.65,0,0,0,.88-.14l2-2.49,3.93-5a.57.57,0,0,0,.12-.23.68.68,0,0,0-.23-.69l-1-.75-1.3-1a.55.55,0,0,0-.24-.12.69.69,0,0,0-.25,0,.65.65,0,0,0-.43.24l-3.88,4.92L212.7,253.73l2.88-8.63,14.36,8.24,6.68,3.84L247,269.68a.61.61,0,0,0,.41.23h0a.74.74,0,0,0,.36-.06l.09,0,6.27-4.18,12.54-8.37,2.16,1c-1.1,5-6.14,23.12-22.58,31.62-.53.28-1.07.54-1.62.8a.45.45,0,0,0-.21.15.64.64,0,0,0-.13.7l1.16,2.64a.65.65,0,0,0,.87.34c12.87-5.86,19.76-16.7,23.33-25.13a57.27,57.27,0,0,0,3.07-9.29l20.22,9.52a22.68,22.68,0,0,1,6.57,4.67,23.44,23.44,0,0,1,3.78,5.13A22.82,22.82,0,0,1,306,290.27l3.4,61.25a.74.74,0,0,0,.08.3s0,0,0,0a.8.8,0,0,0,.2.21h0l36.69,68.27-30.14,15,2.77,7.42,35-7.91ZM248.16,264.55l-3.38-4.09-3.39-4.09,11.27-6.48L261,245.1l3,8.91-7.9,5.27Z"/><path class="cls-8" d="M350,448.57l-.06,0h0a12.51,12.51,0,0,0-1.77-3.15h0a14,14,0,0,0-1.2-1.35h0a13.35,13.35,0,0,0-1.41-1.18A12.65,12.65,0,0,0,333,441.49c-4,1.86-6.49,5.77-6.9,11l4.26.33c.28-3.62,1.86-6.26,4.43-7.45a8.34,8.34,0,0,1,8.22,1c1.57,1.14,4.11,3.83,3.5,9-.92,7.9-14.41,22.56-19.54,27.54l3,3.07.11-.11.07-.07.12-.12.13-.13.14-.13.18-.18.16-.17.22-.22.2-.2L332,484,332,484l.37-.39.17-.18.4-.41.2-.22.43-.45.2-.21.49-.53.1-.1c.61-.66,1.26-1.37,1.93-2.13l.06-.07.62-.7.17-.19.6-.69.19-.21.64-.75.08-.1c1-1.14,2-2.35,2.94-3.6l.15-.19.63-.82c.06-.08.12-.15.17-.23.22-.28.43-.56.64-.85l.12-.16c.93-1.26,1.82-2.54,2.65-3.82l.16-.25.51-.8.19-.32c.16-.26.31-.52.46-.78l.18-.3c.15-.27.31-.54.45-.81,0,0,.05-.09.08-.14.34-.64.67-1.27,1-1.9a33.1,33.1,0,0,1,.37,3.61v.12q.06,1.25,0,2.61v.08c0,.41,0,.82-.06,1.25,0,.08,0,.16,0,.24,0,.44-.06.89-.11,1.36v0c-.05.49-.1,1-.17,1.5l0,.24c-.06.42-.13.84-.2,1.28l-.06.36c-.08.49-.17,1-.27,1.49a.3.3,0,0,1,0,.1c-.1.54-.22,1.1-.35,1.67,0,.13-.07.26-.1.4-.1.44-.21.9-.33,1.36l-.12.48c-.15.56-.3,1.13-.47,1.72l0,.1c-.18.62-.37,1.26-.57,1.9-.06.18-.12.37-.17.55-.16.49-.32,1-.49,1.5-.07.2-.13.4-.2.6-.24.68-.48,1.38-.74,2.09l4,1.46c7.32-20.26,4.69-29.13,2.14-37.7C350.67,450.9,350.33,449.76,350,448.57Z"/><ellipse class="cls-2" cx="237.49" cy="778.88" rx="75.39" ry="4.4"/></svg>