<svg id="Layer_1" data-name="Layer 1" xmlns="http://www.w3.org/2000/svg" viewBox="0 0 473 794.04"><defs><style>.cls-1{fill:#f6ee36;}.cls-2{fill:#82bf23;}.cls-3{fill:#3dc3c6;}.cls-4{fill:#dadada;}.cls-5{fill:#3d4796;}.cls-6{fill:#11a4ee;}</style></defs><title>Artboard 1</title><path class="cls-1" d="M170.47,119.8a21.36,21.36,0,1,1,21.36-21.36A21.38,21.38,0,0,1,170.47,119.8Zm0-37.7A16.34,16.34,0,1,0,186.8,98.44,16.36,16.36,0,0,0,170.47,82.1Z"/><path class="cls-2" d="M327.58,132.59l-7.32-15.27-16.73-2.63L315.79,103,313.11,86.3l14.9,8,15.07-7.7L340,103.29l12,11.95-16.78,2.25Zm-13.21-21.28,9.27,1.45,4.07,8.47,4.25-8.37,9.3-1.25L334.61,105l1.7-9.23L328,100l-8.27-4.46,1.49,9.27Z"/><path class="cls-3" d="M409.48,286.11l-45.81-17.74L402,237.57Zm-35.87-19.28,29.57,11.45-4.86-31.34Z"/><ellipse class="cls-4" cx="238.47" cy="778.57" rx="75.39" ry="4.4"/><rect class="cls-5" x="111.48" y="558.85" width="216.14" height="4.4" transform="translate(-366.39 701.26) rotate(-82.09)"/><path class="cls-5" d="M184.72,664.8l10.84-233.5,6,1.93,2.2-5-9.17-2.93-8.48-44.79-4.32.81,8,42.46-3.45-1.1a1.18,1.18,0,0,0-1.52.62l-1.26,2.87a1.22,1.22,0,0,0,0,.9,1.24,1.24,0,0,0,.68.67l6.94,2.21L180.33,664.6Z"/><rect class="cls-5" x="97.67" y="291.6" width="4.4" height="27.28" transform="translate(-21.7 7.98) rotate(-4.13)"/><rect class="cls-5" x="91.84" y="306.6" width="27.21" height="4.4" transform="translate(-205.39 408.05) rotate(-88.85)"/><path class="cls-5" d="M86.51,288.29l-1.06,4.26c4.43,1.11,5.93,3.74,6.41,5.75A9.09,9.09,0,0,1,89,306.92c-2.28,2-5.31,2.36-8.52,1.09-9.69-3.85-23.71-14.11-23.71-22.62h-4.4c0,11.05,15.81,22.47,26.49,26.71a14.16,14.16,0,0,0,5.23,1,11.73,11.73,0,0,0,7.79-2.9,13.44,13.44,0,0,0,4.25-13C95.07,292.83,91.57,289.55,86.51,288.29Z"/><path class="cls-5" d="M253.64,407.85,219,410.08l1.14,17.62,34.62-2.24ZM224.26,423l-.57-8.84,25.85-1.67.57,8.84Z"/><path class="cls-5" d="M175.33,667.82,184.12,728l10.65,1.48,8-57.87ZM191,724.55l-3-.42L180.53,673l17.32,2.4Z"/><rect class="cls-5" x="135.62" y="553.41" width="236.77" height="4.4" transform="translate(-344.81 676.6) rotate(-76.86)"/><path class="cls-5" d="M197.26,729.86l10.66,1.47,24.86-55.53L205.3,672Zm29.11-50.51-21.12,47.17-3-.42L209.05,677Z"/><path class="cls-5" d="M179,267l27.65-13a.63.63,0,0,1,.58,0l18,10.3a.64.64,0,0,0,.86-.23l1.55-2.73a.62.62,0,0,0-.23-.86l-17.52-10a.62.62,0,0,1-.28-.74L212.2,242a.64.64,0,0,1,.91-.35l20.64,11.64a.62.62,0,0,1,.32.55V378.21a.63.63,0,0,0,.63.63h3.14a.63.63,0,0,0,.63-.63v-127a.66.66,0,0,0-.32-.55l-16.61-9.37a.62.62,0,0,1-.32-.54V234a.63.63,0,0,0-.63-.63h-3.14a.63.63,0,0,0-.63.63v3.61a.63.63,0,0,1-.94.54l-5.26-3a.62.62,0,0,0-.9.35L205,249.68a.6.6,0,0,1-.33.37l-27.59,13a28.45,28.45,0,0,0-16.28,25.64l5.31,56L114.51,301a.63.63,0,0,0-.89,0l-2.25,2.19a.64.64,0,0,0,0,.89l56,47.35,3.15-3.08-.13-.1h.51l-5.65-59.54A24,24,0,0,1,179,267Z"/><path class="cls-5" d="M269,196.77a.64.64,0,0,0,.83,0,5.09,5.09,0,0,1,3-1,.58.58,0,0,1,.46.31c.66,1.2.74,5.13.78,6.69v.38c0,1.79-1.43,3.66-2.82,4.82l-2.75,2.29a.64.64,0,0,0-.08.89l2,2.41a.63.63,0,0,0,.88.08l2.75-2.3c2.82-2.35,4.46-5.45,4.39-8.29v-.38c-.09-4.33-.2-9.24-3.39-10.77-2.78-1.33-6.33.09-8.24,1.65a.64.64,0,0,0,0,.93Z"/><path class="cls-5" d="M194.68,209.37c.36,2.82,2.44,5.64,5.58,7.55l3.06,1.86a.63.63,0,0,0,.86-.21l1.63-2.69a.62.62,0,0,0-.21-.86l-3.06-1.86c-1.54-.94-3.27-2.57-3.5-4.34l0-.38c-.19-1.55-.69-5.45-.23-6.74a.62.62,0,0,1,.42-.37,5.13,5.13,0,0,1,3.09.55.64.64,0,0,0,.81-.18l1.87-2.55a.62.62,0,0,0-.17-.9c-2.12-1.26-5.84-2.14-8.39-.42-2.93,2-2.31,6.86-1.76,11.16Z"/><path class="cls-5" d="M207.54,212.32c.72,9.71,11.34,16.79,20.11,21a21.89,21.89,0,0,0,21.83-1.63c8-5.48,17.5-14.06,16.77-23.78l-2.35-31.47a27.22,27.22,0,0,0-5.78-15c-4.11-5.14-12-11-26.25-10-15.49,1.16-22.13,10.13-25,17.45a27.48,27.48,0,0,0-1.71,11.94ZM211,170.47c2.39-6.14,8-13.66,21.21-14.65,9.9-.74,17.47,2.06,22.48,8.34a22.76,22.76,0,0,1,4.83,12.62l2.36,31.47c.6,8-9.06,15.86-14.86,19.82a17.48,17.48,0,0,1-17.45,1.3c-6.33-3.05-17-9.36-17.64-17.38l-2.36-31.5A23.16,23.16,0,0,1,211,170.47Z"/><path class="cls-5" d="M224.94,182.26a3.14,3.14,0,1,0-3.37-2.9A3.14,3.14,0,0,0,224.94,182.26Z"/><path class="cls-5" d="M243.31,180.88a3.14,3.14,0,1,0-3.37-2.9A3.15,3.15,0,0,0,243.31,180.88Z"/><path class="cls-5" d="M374,360.5l-68.25-9,6-62.78A28.33,28.33,0,0,0,295.46,263l-27.6-13a.67.67,0,0,1-.33-.37l-4.71-14.15a.63.63,0,0,0-.91-.35l-3.66,2.06a.62.62,0,0,1-.93-.55V234a.63.63,0,0,0-.63-.63h-3.14a.63.63,0,0,0-.63.63v5.89a.62.62,0,0,1-.32.55l-9.39,5.3a.63.63,0,0,0-.24.86l1.54,2.73a.63.63,0,0,0,.86.24l14.06-7.93a.62.62,0,0,1,.9.35l2.68,8a.63.63,0,0,1-.28.75l-17.08,9.74a.63.63,0,0,0-.23.86L247,264.1a.62.62,0,0,0,.85.23l17.82-10.17a.61.61,0,0,1,.57,0L293.59,267a24,24,0,0,1,13.75,21.66l-5.9,62.21h-.07c0,.4,0,.81-.05,1.22l-.23,2.4h.14l0,.77,72.67,9.63a.63.63,0,0,0,.65-.61l.12-3.14A.63.63,0,0,0,374,360.5Z"/><rect class="cls-5" x="372.14" y="365.99" width="27.28" height="4.4" transform="translate(-34.99 695.82) rotate(-81.57)"/><rect class="cls-5" x="366.34" y="369.12" width="27.21" height="4.4" transform="translate(-11.65 730.33) rotate(-86.86)"/><path class="cls-5" d="M430.25,351.63c-.64,8.48-15.39,17.67-25.35,20.78-3.29,1-6.28.41-8.41-1.73a9.06,9.06,0,0,1-2.2-8.81c.63-2,2.32-4.48,6.82-5.25l-.74-4.33c-5.14.88-8.88,3.88-10.27,8.24a13.45,13.45,0,0,0,3.27,13.25,11.79,11.79,0,0,0,8.51,3.51,14.51,14.51,0,0,0,4.33-.68c11-3.43,27.59-13.63,28.42-24.65Z"/><path class="cls-5" d="M290.1,380.48l-8.59,45.4-8.32,2.65c.57,1.31,1.17,2.66,1.77,4l16.83-5.37a.63.63,0,0,0,.33-.83l-1.26-2.88a.64.64,0,0,0-.83-.32l-3.75,1.2,8.14-43.07Z"/><polygon class="cls-6" points="106.15 211.96 89.44 201.65 99.75 184.94 95.47 182.3 85.16 199.01 68.45 188.7 65.81 192.98 82.52 203.29 72.22 220 76.49 222.63 86.8 205.93 103.51 216.23 106.15 211.96"/><path class="cls-1" d="M170.47,119.8a21.36,21.36,0,1,1,21.36-21.36A21.38,21.38,0,0,1,170.47,119.8Zm0-37.7A16.34,16.34,0,1,0,186.8,98.44,16.36,16.36,0,0,0,170.47,82.1Z"/><path class="cls-2" d="M327.58,132.59l-7.32-15.27-16.73-2.63L315.79,103,313.11,86.3l14.9,8,15.07-7.7L340,103.29l12,11.95-16.78,2.25Zm-13.21-21.28,9.27,1.45,4.07,8.47,4.25-8.37,9.3-1.25L334.61,105l1.7-9.23L328,100l-8.27-4.46,1.49,9.27Z"/><path class="cls-3" d="M409.48,286.11l-45.81-17.74L402,237.57Zm-35.87-19.28,29.57,11.45-4.86-31.34Z"/><ellipse class="cls-4" cx="238.47" cy="778.57" rx="75.39" ry="4.4"/></svg>