<svg id="Layer_2" data-name="Layer 2" xmlns="http://www.w3.org/2000/svg" viewBox="0 0 473 794.04"><defs><style>.cls-1{fill:#dadada;}.cls-2{fill:#f6ee36;}.cls-3{fill:#82bf23;}.cls-4{fill:#3dc3c6;}.cls-5{fill:#3d4796;}.cls-6{fill:#11a4ee;}</style></defs><title>Artboard 1</title><ellipse class="cls-1" cx="237.84" cy="778.88" rx="75.39" ry="4.4"/><path class="cls-2" d="M137.41,120.11a21.36,21.36,0,1,1,21.36-21.36A21.38,21.38,0,0,1,137.41,120.11Zm0-37.69a16.34,16.34,0,1,0,16.33,16.33A16.36,16.36,0,0,0,137.41,82.42Z"/><path class="cls-3" d="M30.81,183.21l-7.73-16.12L5.41,164.32l13-12.34-2.82-17.66,15.73,8.5,15.92-8.14L44,152.27,56.63,164.9l-17.72,2.37ZM16.86,160.74l9.8,1.54L31,171.22l4.49-8.84,9.83-1.32-7-7L40,144.3l-8.83,4.52-8.72-4.71L24,153.9Z"/><path class="cls-4" d="M333.86,120.19l20.51-44.64,28.4,40.09ZM355.3,85.56l-13.24,28.82,31.58-2.94Z"/><ellipse class="cls-1" cx="237.84" cy="778.88" rx="75.39" ry="4.4"/><path class="cls-5" d="M255.89,188v-2.72a.65.65,0,0,0-.65-.65H235.59c-8,0-12.88-7.22-14.1-9.26a.66.66,0,0,0-.86-.24l-2.43,1.24a.65.65,0,0,0-.26.91c1.42,2.45,7.31,11.38,17.65,11.38h19.65A.66.66,0,0,0,255.89,188Z"/><circle class="cls-5" cx="227.66" cy="194.46" r="2.51"/><circle class="cls-5" cx="246.08" cy="194.46" r="2.51"/><rect class="cls-5" x="48.66" y="177.44" width="4.4" height="6.57" transform="translate(-106.71 78.64) rotate(-41.34)"/><path class="cls-5" d="M262.79,219.5l2.4-1.72c2.59-1.86,4.22-4.44,4.34-6.91l0-.33c.2-3.75.42-8-2.28-9.56a6.24,6.24,0,0,0-5-.21v-8.22a.65.65,0,0,0-.65-.65h-2.72a.65.65,0,0,0-.65.65v24.87c0,6.85-8.72,12.9-13.92,15.9a14.91,14.91,0,0,1-14.9,0c-5.2-3-13.92-9-13.92-15.9V188.88a.65.65,0,0,0-.65-.65h-2.72a.65.65,0,0,0-.65.65v11.89a6.24,6.24,0,0,0-5,.21c-2.7,1.56-2.48,5.81-2.28,9.56l0,.33c.13,2.47,1.75,5,4.34,6.91L211,219.5a.63.63,0,0,0,.72,0C213,227,220.76,233,227.41,236.81a19,19,0,0,0,18.92,0C253,233,260.79,227,262.06,219.52A.65.65,0,0,0,262.79,219.5Zm-.53-14.43a.55.55,0,0,0,.31-.08,4.72,4.72,0,0,1,2.21-.63.66.66,0,0,1,.61.47,22.83,22.83,0,0,1,.14,5.5v.33c-.08,1.48-1.43,3-2.67,3.84l-.59.42Zm-50.78,9.85-.59-.42c-1.24-.88-2.59-2.36-2.66-3.84l0-.33a22.83,22.83,0,0,1,.14-5.5.67.67,0,0,1,.62-.47,4.68,4.68,0,0,1,2.2.63.58.58,0,0,0,.31.08Z"/><path class="cls-5" d="M252.28,238.14h-2.71a.66.66,0,0,0-.66.65V247l1.2.53c.06,0,4.95,2.18,9.21,4.26a.66.66,0,0,0,.88-.3l1.2-2.44a.64.64,0,0,0-.3-.87c-3.05-1.49-6.42-3-8.16-3.8v-5.59A.66.66,0,0,0,252.28,238.14Z"/><path class="cls-5" d="M221.46,238.14a.65.65,0,0,0-.65.65v5.59c-1.75.78-5.12,2.31-8.17,3.8a.65.65,0,0,0-.3.87l1.21,2.44a.65.65,0,0,0,.87.3c4.26-2.08,9.16-4.24,9.21-4.26l1.2-.53v-8.21a.65.65,0,0,0-.65-.65Z"/><path class="cls-5" d="M210.87,226.72a.65.65,0,0,0,.7-.65v-2.73a.65.65,0,0,0-.6-.65c-4.28-.43-10.93-5.28-13.32-14a39.3,39.3,0,0,1,2.2-27.42l.49-1c2.43-4.7,5.85-6.89,10.47-6.7l1.17,0,.62-1a29.38,29.38,0,0,1,16-11.21C247,156.31,266,165,273.75,181.93c2.29,5,3.38,11.9,3,18.94a35.94,35.94,0,0,1-6.4,19c-1.9,2.66-4.78,5.79-8,6.15a.64.64,0,0,0-.59.64v2.73a.66.66,0,0,0,.7.66c3.87-.28,7.6-2.92,11.12-7.84a39.9,39.9,0,0,0,7.14-21.15c.41-7.67-.81-15.26-3.36-20.83a41.81,41.81,0,0,0-2-3.82,14.15,14.15,0,1,0-20.81-17.65,43.13,43.13,0,0,0-27.09-1.29,33.38,33.38,0,0,0-17.67,12c-5.65.15-10.15,3.2-13.08,8.89-.19.36-.37.72-.55,1.09a43.41,43.41,0,0,0-2.46,30.23C195.59,216.4,202.24,226.22,210.87,226.72Zm56.57-72.09a10.12,10.12,0,0,1,5.8,18.43A40.83,40.83,0,0,0,258.3,160.4,10.16,10.16,0,0,1,267.44,154.63Z"/><path class="cls-5" d="M237.84,370.69a10.06,10.06,0,1,0,10,10.06A10.07,10.07,0,0,0,237.84,370.69Zm0,15.71a5.66,5.66,0,1,1,5.65-5.65A5.67,5.67,0,0,1,237.84,386.4Z"/><path class="cls-5" d="M237.84,416.71a8.48,8.48,0,1,0,8.48,8.48A8.49,8.49,0,0,0,237.84,416.71Zm0,12.57a4.09,4.09,0,1,1,4.08-4.09A4.1,4.1,0,0,1,237.84,429.28Z"/><path class="cls-5" d="M99.24,223.8a18.75,18.75,0,0,0,.86-4.77c2.34-9.57,3.25-21.84-9.51-32.61l-2.75,3.27c6.91,5.83,9.2,12,9.41,18-4.5-7.67-13.28-11.32-20.72-8.2l1.71,4.06c6-2.51,13.22,1.21,16.21,8.3a16,16,0,0,1,1.24,7.2c-.38,1.43-.79,2.83-1.18,4.19l-.35,1.2h0a10.39,10.39,0,0,1-5.13,4.8c-6,2.5-13.23-1.22-16.21-8.3a15.88,15.88,0,0,1-1.16-8.11l-4.36-.57a20.07,20.07,0,0,0,1.47,10.38c3.06,7.27,9.72,11.77,16.39,11.77a14.33,14.33,0,0,0,5.58-1.12A15.09,15.09,0,0,0,99.24,223.8Z"/><rect class="cls-5" x="64.79" y="180.57" width="4.4" height="36.97" transform="translate(-114.8 93.87) rotate(-41.35)"/><path class="cls-5" d="M253.54,488.9a57.3,57.3,0,0,1-32.92.3l-46.8-13.55-1.36,4.7,46.81,13.54a62.21,62.21,0,0,0,35.71-.32l43.73-13.51-1.44-4.67Z"/><rect class="cls-5" x="233.93" y="520.07" width="4.89" height="147.23"/><rect class="cls-5" x="209.42" y="506.2" width="4.89" height="161.04" transform="translate(-48.68 19.94) rotate(-4.83)"/><path class="cls-5" d="M222.89,728.78l11.94,4.14v-59.3l-27.67-3.3Zm7.17-2.56-3.23-1.11-13.24-49.22,16.47,2Z"/><rect class="cls-5" x="180.38" y="584.28" width="161.02" height="4.89" transform="translate(-345.4 798.17) rotate(-85.25)"/><path class="cls-5" d="M237.65,732.92l11.95-4.14,15.72-58.46-27.67,3.3Zm4.77-55.07,16.47-2-13.24,49.22-3.23,1.11Z"/><path class="cls-5" d="M253.54,499.25a57.22,57.22,0,0,1-32.92.29L173.82,486l-1.36,4.69,46.81,13.55a62.21,62.21,0,0,0,35.71-.32l43.73-13.51-1.44-4.67Z"/><path class="cls-5" d="M314,424.83l-1.15-4.25c-6.91,1.88-11.25,1.82-14.52-.2-3.65-2.26-6.2-7.2-7.8-15.1l-3.4.69.27-2.63a30.64,30.64,0,0,0-4.05.22c-3.75,36.49-7,67.22-7.16,68.92a.65.65,0,0,0,.61.69l2.71.19a.66.66,0,0,0,.7-.61c.11-1.68,3.11-29.63,6.62-63.85,4.22,17.89,12.88,27.57,24.66,27.57.7,0,1.42,0,2.14-.1L313.2,432c-6.37.6-11.09-2.19-14.6-6.63a17.08,17.08,0,0,0,5.92,1A36.67,36.67,0,0,0,314,424.83Z"/><path class="cls-5" d="M190.32,310.66a31.62,31.62,0,0,0-3,1.2.42.42,0,0,0-.25.43c4.88,56.2,7.55,157.32,7.75,160.46a.66.66,0,0,0,.7.61l2.71-.19a.65.65,0,0,0,.61-.69c-.19-3.06-3.06-105.9-7.93-161.46A.43.43,0,0,0,190.32,310.66Z"/><path class="cls-5" d="M207.87,255l23,20.51h0l4.69,4v45.27a11.6,11.6,0,1,0,4,.17V279.5L267.13,255c7.95,5.22,25.09,17.64,26.86,24.31l32.16,56.93L284,400.51l26.11,11.81,1.81-4-21.42-9.69,40.76-62.23-33.41-58.14c-2.61-9.83-27.07-25.72-29.85-27.5l-.87-.56a.66.66,0,0,0-.79.07l-28.8,25.66-4.26-3.67-24.68-22a.66.66,0,0,0-.79-.07l-.87.56c-2.05,1.31-15.86,10.29-24,18.85L120.07,298l-3.41-70.62L110,224.68,87.72,243.42l3,3.15,20.22-16.81,1.31.54,3.31,74.54,69.07-31.19C190.5,267.05,201.83,258.93,207.87,255Zm36.44,81.33a7.22,7.22,0,1,1-7.22-7.23A7.23,7.23,0,0,1,244.31,336.3Z"/><polygon class="cls-6" points="262.84 68.72 259.77 64.74 244.23 76.73 232.24 61.19 228.26 64.26 240.25 79.8 224.7 91.79 227.77 95.77 243.32 83.78 255.31 99.33 259.29 96.25 247.3 80.71 262.84 68.72"/><path class="cls-2" d="M137.41,120.11a21.36,21.36,0,1,1,21.36-21.36A21.38,21.38,0,0,1,137.41,120.11Zm0-37.69a16.34,16.34,0,1,0,16.33,16.33A16.36,16.36,0,0,0,137.41,82.42Z"/><path class="cls-3" d="M30.81,183.21l-7.73-16.12L5.41,164.32l13-12.34-2.82-17.66,15.73,8.5,15.92-8.14L44,152.27,56.63,164.9l-17.72,2.37ZM16.86,160.74l9.8,1.54L31,171.22l4.49-8.84,9.83-1.32-7-7L40,144.3l-8.83,4.52-8.72-4.71L24,153.9Z"/><path class="cls-4" d="M333.86,120.19l20.51-44.64,28.4,40.09ZM355.3,85.56l-13.24,28.82,31.58-2.94Z"/></svg>