<svg id="Layer_1" data-name="Layer 1" xmlns="http://www.w3.org/2000/svg" viewBox="0 0 300 300"><defs><style>.cls-1{fill:#231f20;opacity:0.21;}.cls-2{fill:#f1f2f2;}</style></defs><title>Artboard 1</title><circle class="cls-1" cx="150" cy="150" r="147.5"/><path class="cls-2" d="M236.5,151.8h0l-80.83,2.43,39.14-35.92a6.52,6.52,0,1,0-9.67-8.73L149.6,148.31,152,72.6h0a6.53,6.53,0,0,0-13.05,0h0l2.4,75.67-35.18-38.52a6.52,6.52,0,1,0-9.33,9l38.47,35.49-52.56-2.05a6.53,6.53,0,0,0,0,13.05l42.67-2L61.06,191.82a6.52,6.52,0,1,0,5.66,11.72l74.62-38.69L139,210.35c0,.22,0,.45,0,.67a6.53,6.53,0,1,0,13,0,5,5,0,0,0,0-.67l-2.36-45.5,74.75,38.73.13.07.15.07h0a6.51,6.51,0,0,0,9.39-5.85,6.51,6.51,0,0,0-3.44-5.75h0a6.47,6.47,0,0,0-.8-.36l-65.32-29,72,2.13h0a6.52,6.52,0,1,0,0-13Z"/></svg>