<?xml version="1.0" standalone="no"?>
<!DOCTYPE svg PUBLIC "-//W3C//DTD SVG 20010904//EN"
 "http://www.w3.org/TR/2001/REC-SVG-20010904/DTD/svg10.dtd">
<svg version="1.0" xmlns="http://www.w3.org/2000/svg"
 width="700.000000pt" height="700.000000pt" viewBox="0 0 700.000000 700.000000"
 preserveAspectRatio="xMidYMid meet">
<metadata>
Created by potrace 1.11, written by Peter Selinger 2001-2013
</metadata>
<g transform="translate(0.000000,700.000000) scale(0.100000,-0.100000)"
fill="#000000" stroke="none">
<path d="M3298 6995 c-2 -2 -46 -6 -98 -9 -52 -4 -104 -9 -115 -11 -11 -2 -42
-7 -70 -10 -27 -3 -72 -10 -100 -15 -27 -5 -61 -12 -75 -14 -174 -32 -462
-112 -575 -161 -16 -7 -61 -25 -99 -39 -90 -35 -280 -128 -385 -188 -46 -26
-88 -48 -92 -48 -5 0 -9 -4 -9 -10 0 -5 -5 -10 -11 -10 -9 0 -131 -78 -185
-119 -12 -9 -32 -23 -44 -31 -12 -8 -69 -52 -126 -98 -305 -244 -583 -554
-775 -867 -155 -253 -248 -443 -340 -702 -30 -85 -95 -305 -104 -351 -3 -15
-7 -38 -10 -52 -21 -95 -41 -205 -51 -285 -3 -27 -8 -61 -10 -75 -25 -157 -25
-659 1 -811 2 -13 7 -51 10 -84 5 -49 33 -202 49 -275 170 -731 539 -1355
1096 -1851 130 -116 386 -309 408 -309 6 0 12 -3 14 -7 2 -5 41 -31 88 -59
272 -164 596 -302 900 -383 138 -36 346 -78 432 -87 35 -3 65 -7 68 -9 3 -2
50 -7 105 -11 185 -15 604 -9 727 11 13 2 45 6 72 10 545 69 1145 314 1597
652 194 145 432 368 575 538 102 122 314 411 314 429 0 2 18 34 41 71 119 197
243 478 323 735 36 117 92 347 101 416 3 22 7 50 10 64 3 14 8 48 11 75 3 28
7 61 10 75 25 135 24 703 -1 825 -2 11 -7 41 -10 67 -3 25 -14 96 -25 157
-159 881 -664 1677 -1400 2206 -63 45 -135 95 -160 110 -99 63 -283 165 -295
165 -8 0 -16 4 -19 8 -4 8 -91 48 -262 123 -208 91 -623 195 -889 224 -33 3
-73 8 -90 11 -34 5 -522 14 -527 9z m447 -1759 c17 -3 46 -9 65 -12 536 -86
1022 -453 1275 -964 39 -79 108 -263 119 -320 3 -14 12 -56 20 -95 26 -122 27
-137 31 -295 5 -242 -25 -433 -101 -638 -142 -384 -407 -704 -754 -914 -176
-106 -422 -198 -600 -223 -25 -4 -64 -10 -88 -15 -83 -15 -361 -9 -477 11
-115 19 -273 57 -290 69 -5 4 -35 15 -65 25 -85 27 -241 108 -351 181 -413
275 -689 710 -763 1204 -13 92 -16 426 -3 477 3 11 9 43 12 70 17 122 82 325
147 460 44 90 134 235 199 319 141 183 375 377 571 474 35 18 75 38 89 46 46
24 186 73 281 98 87 22 120 28 223 43 22 3 42 7 44 9 6 6 383 -3 416 -10z"/>
<path d="M3397 4864 c-1 -1 -24 -4 -52 -8 -77 -10 -117 -16 -160 -28 -193 -49
-375 -139 -530 -261 -132 -105 -286 -292 -364 -442 -52 -100 -112 -268 -126
-354 -3 -19 -8 -37 -10 -41 -21 -34 -20 -345 1 -455 47 -246 135 -442 283
-627 59 -74 74 -74 131 -2 45 57 328 412 342 429 9 11 110 137 223 280 114
143 214 269 224 280 9 12 36 45 60 75 53 68 85 85 121 63 14 -8 84 -89 155
-180 72 -91 159 -201 195 -245 36 -44 74 -92 85 -107 11 -15 74 -93 140 -175
66 -82 140 -175 165 -206 169 -217 215 -270 230 -270 60 0 235 277 299 474 62
191 83 361 67 561 -11 139 -70 336 -144 480 -75 146 -145 240 -270 363 -69 68
-240 202 -257 202 -2 0 -26 13 -52 28 -116 68 -349 143 -493 158 -59 6 -258
12 -263 8z"/>
<path d="M3472 3283 c-7 -3 -67 -73 -134 -157 -132 -166 -166 -209 -216 -270
-18 -23 -39 -48 -45 -56 -7 -8 -83 -104 -169 -213 -87 -109 -158 -204 -158
-212 0 -27 176 -122 205 -111 12 4 96 105 192 232 12 16 89 112 170 214 141
177 150 185 183 185 37 0 36 1 466 -543 36 -46 72 -86 79 -89 19 -7 199 90
203 109 2 12 -155 220 -285 378 -7 8 -101 125 -208 260 -108 135 -205 253
-216 263 -21 17 -42 20 -67 10z"/>
</g>
</svg>
