<svg xmlns="http://www.w3.org/2000/svg" xmlns:xlink="http://www.w3.org/1999/xlink" preserveAspectRatio="xMidYMid" width="9.843" height="15.995" viewBox="0 0 32 52">
  <defs>
    <style>
      .cls-1, .cls-2 {
        fill: #696e6b;
      }

      .cls-1 {
        fill-rule: evenodd;
      }
    </style>
  </defs>
  <path d="M6.500,12.000 C3.462,12.000 1.000,9.538 1.000,6.500 C1.000,3.462 3.462,1.000 6.500,1.000 C9.538,1.000 12.000,3.462 12.000,6.500 C12.000,9.538 9.538,12.000 6.500,12.000 Z" class="cls-1"/>
  <circle cx="25.5" cy="6.5" r="5.5" class="cls-2"/>
  <path d="M6.500,32.000 C3.462,32.000 1.000,29.538 1.000,26.500 C1.000,23.462 3.462,21.000 6.500,21.000 C9.538,21.000 12.000,23.462 12.000,26.500 C12.000,29.538 9.538,32.000 6.500,32.000 Z" class="cls-1"/>
  <circle cx="25.5" cy="26.5" r="5.5" class="cls-2"/>
  <path d="M6.500,52.000 C3.462,52.000 1.000,49.538 1.000,46.500 C1.000,43.462 3.462,41.000 6.500,41.000 C9.538,41.000 12.000,43.462 12.000,46.500 C12.000,49.538 9.538,52.000 6.500,52.000 Z" class="cls-1"/>
  <circle cx="25.5" cy="46.5" r="5.5" class="cls-2"/>
</svg>
